iA Writer Duospace-Italic.ufo
<glyph name="exclam" format="1">
  <advance width="600"/>
  <unicode hex="0021"/>
  <outline>
    <contour>
      <point x="297" y="495" type="line"/>
      <point x="280" y="233" type="line"/>
      <point x="311" y="233" type="line"/>
      <point x="383" y="495" type="line"/>
      <point x="417" y="698" type="line"/>
      <point x="331" y="698" type="line"/>
    </contour>
    <contour>
      <point x="257" y="-9" type="curve"/>
      <point x="310" y="-9"/>
      <point x="332" y="14"/>
      <point x="338" y="50" type="curve"/>
      <point x="341" y="68"/>
      <point x="342" y="77"/>
      <point x="342" y="83" type="curve"/>
      <point x="342" y="108"/>
      <point x="324" y="127"/>
      <point x="277" y="127" type="curve"/>
      <point x="224" y="127"/>
      <point x="202" y="104"/>
      <point x="196" y="68" type="curve"/>
      <point x="193" y="50"/>
      <point x="192" y="41"/>
      <point x="192" y="35" type="curve"/>
      <point x="192" y="10"/>
      <point x="210" y="-9"/>
    </contour>
  </outline>
</glyph>
<glyph name="quotesingle" format="1">
  <advance width="600"/>
  <unicode hex="0027"/>
  <outline>
    <contour>
      <point x="343" y="740" type="line"/>
      <point x="297" y="464" type="line"/>
      <point x="371" y="464" type="line"/>
      <point x="417" y="740" type="line"/>
    </contour>
  </outline>
</glyph>
<glyph name="comma" format="1">
  <advance width="600"/>
  <unicode hex="002C"/>
  <outline>
    <contour>
      <point x="364" y="135" type="line"/>
      <point x="237" y="135" type="line"/>
      <point x="139" y="-141" type="line"/>
      <point x="205" y="-141" type="line"/>
    </contour>
  </outline>
</glyph>
<glyph name="period" format="1">
  <advance width="600"/>
  <unicode hex="002E"/>
  <outline>
    <contour>
      <point x="257" y="-9" type="curve"/>
      <point x="308" y="-9"/>
      <point x="332" y="14"/>
      <point x="338" y="50" type="curve"/>
      <point x="340" y="62"/>
      <point x="342" y="74"/>
      <point x="342" y="82" type="curve"/>
      <point x="342" y="107"/>
      <point x="324" y="127"/>
      <point x="277" y="127" type="curve"/>
      <point x="226" y="127"/>
      <point x="202" y="104"/>
      <point x="196" y="68" type="curve"/>
      <point x="194" y="56"/>
      <point x="192" y="44"/>
      <point x="192" y="36" type="curve"/>
      <point x="192" y="11"/>
      <point x="210" y="-9"/>
    </contour>
  </outline>
</glyph>
<glyph name="one" format="1">
  <advance width="600"/>
  <unicode hex="0031"/>
  <outline>
    <contour>
      <point x="54" y="72" type="line"/>
      <point x="42" y="0" type="line"/>
      <point x="509" y="0" type="line"/>
      <point x="521" y="72" type="line"/>
      <point x="336" y="72" type="line"/>
      <point x="441" y="698" type="line"/>
      <point x="352" y="698" type="line"/>
      <point x="100" y="569" type="line"/>
      <point x="128" y="507" type="line"/>
      <point x="346" y="620" type="line"/>
      <point x="254" y="72" type="line"/>
    </contour>
  </outline>
</glyph>
<glyph name="four" format="1">
  <advance width="600"/>
  <unicode hex="0034"/>
  <outline>
    <contour>
      <point x="360" y="137" type="line"/>
      <point x="337" y="0" type="line"/>
      <point x="415" y="0" type="line"/>
      <point x="438" y="137" type="line"/>
      <point x="543" y="137" type="line"/>
      <point x="554" y="205" type="line"/>
      <point x="449" y="205" type="line"/>
      <point x="532" y="698" type="line"/>
      <point x="421" y="698" type="line"/>
      <point x="28" y="214" type="line"/>
      <point x="15" y="137" type="line"/>
    </contour>
    <contour>
      <point x="371" y="205" type="line"/>
      <point x="103" y="205" type="line"/>
      <point x="436" y="614" type="line"/>
      <point x="440" y="614" type="line"/>
    </contour>
  </outline>
</glyph>
<glyph name="equal" format="1">
  <advance width="600"/>
  <unicode hex="003D"/>
  <outline>
    <contour>
      <point x="95" y="439" type="line"/>
      <point x="84" y="373" type="line"/>
      <point x="555" y="373" type="line"/>
      <point x="566" y="439" type="line"/>
    </contour>
    <contour>
      <point x="62" y="240" type="line"/>
      <point x="51" y="174" type="line"/>
      <point x="522" y="174" type="line"/>
      <point x="533" y="240" type="line"/>
    </contour>
  </outline>
</glyph>
<glyph name="E" format="1">
  <advance width="600"/>
  <unicode hex="0045"/>
  <outline>
    <contour>
      <point x="164" y="698" type="line"/>
      <point x="47" y="0" type="line"/>
      <point x="477" y="0" type="line"/>
      <point x="489" y="72" type="line"/>
      <point x="141" y="72" type="line"/>
      <point x="182" y="318" type="line"/>
      <point x="517" y="318" type="line"/>
      <point x="529" y="390" type="line"/>
      <point x="194" y="390" type="line"/>
      <point x="234" y="626" type="line"/>
      <point x="580" y="626" type="line"/>
      <point x="592" y="698" type="line"/>
    </contour>
  </outline>
</glyph>
<glyph name="M" format="1">
  <advance width="900"/>
  <unicode hex="004D"/>
  <outline>
    <contour>
      <point x="741" y="586" type="line"/>
      <point x="746" y="586" type="line"/>
      <point x="627" y="0" type="line"/>
      <point x="707" y="0" type="line"/>
      <point x="847" y="698" type="line"/>
      <point x="734" y="698" type="line"/>
      <point x="461" y="319" type="line"/>
      <point x="458" y="319" type="line"/>
      <point x="330" y="698" type="line"/>
      <point x="225" y="698" type="line"/>
      <point x="85" y="0" type="line"/>
      <point x="165" y="0" type="line"/>
      <point x="282" y="585" type="line"/>
      <point x="287" y="585" type="line"/>
      <point x="330" y="469" type="line"/>
      <point x="433" y="166" type="line"/>
      <point x="655" y="469" type="line"/>
    </contour>
  </outline>
</glyph>
<glyph name="N" format="1">
  <advance width="600"/>
  <unicode hex="004E"/>
  <outline>
    <contour>
      <point x="216" y="602" type="line"/>
      <point x="223" y="602" type="line"/>
      <point x="356" y="0" type="line"/>
      <point x="475" y="0" type="line"/>
      <point x="592" y="698" type="line"/>
      <point x="516" y="698" type="line"/>
      <point x="415" y="96" type="line"/>
      <point x="408" y="96" type="line"/>
      <point x="275" y="698" type="line"/>
      <point x="156" y="698" type="line"/>
      <point x="39" y="0" type="line"/>
      <point x="115" y="0" type="line"/>
    </contour>
  </outline>
</glyph>
<glyph name="V" format="1">
  <advance width="600"/>
  <unicode hex="0056"/>
  <outline>
    <contour>
      <point x="109" y="698" type="line"/>
      <point x="201" y="0" type="line"/>
      <point x="313" y="0" type="line"/>
      <point x="635" y="698" type="line"/>
      <point x="549" y="698" type="line"/>
      <point x="392" y="349" type="line"/>
      <point x="271" y="81" type="line"/>
      <point x="266" y="81" type="line"/>
      <point x="231" y="349" type="line"/>
      <point x="187" y="698" type="line"/>
    </contour>
  </outline>
</glyph>
<glyph name="W" format="1">
  <advance width="900"/>
  <unicode hex="0057"/>
  <outline>
    <contour>
      <point x="112" y="698" type="line"/>
      <point x="141" y="0" type="line"/>
      <point x="235" y="0" type="line"/>
      <point x="396" y="362" type="line"/>
      <point x="505" y="606" type="line"/>
      <point x="510" y="606" type="line"/>
      <point x="520" y="367" type="line"/>
      <point x="538" y="0" type="line"/>
      <point x="631" y="0" type="line"/>
      <point x="944" y="698" type="line"/>
      <point x="860" y="698" type="line"/>
      <point x="710" y="349" type="line"/>
      <point x="604" y="102" type="line"/>
      <point x="600" y="102" type="line"/>
      <point x="586" y="403" type="line"/>
      <point x="571" y="698" type="line"/>
      <point x="475" y="698" type="line"/>
      <point x="349" y="416" type="line"/>
      <point x="212" y="101" type="line"/>
      <point x="208" y="101" type="line"/>
      <point x="202" y="344" type="line"/>
      <point x="193" y="698" type="line"/>
    </contour>
  </outline>
</glyph>
<glyph name="grave" format="1">
  <advance width="600"/>
  <unicode hex="0060"/>
  <outline>
    <contour>
      <point x="303" y="779" type="line"/>
      <point x="229" y="752" type="line"/>
      <point x="304" y="585" type="line"/>
      <point x="355" y="605" type="line"/>
    </contour>
  </outline>
</glyph>
<glyph name="m" format="1">
  <advance width="900"/>
  <unicode hex="006D"/>
  <outline>
    <contour>
      <point x="166" y="516" type="line"/>
      <point x="62" y="0" type="line"/>
      <point x="139" y="0" type="line"/>
      <point x="197" y="288" type="line" smooth="yes"/>
      <point x="205" y="328"/>
      <point x="230" y="381"/>
      <point x="267" y="418" type="curve"/>
      <point x="291" y="442"/>
      <point x="321" y="458"/>
      <point x="356" y="458" type="curve"/>
      <point x="405" y="458"/>
      <point x="428" y="429"/>
      <point x="428" y="376" type="curve"/>
      <point x="428" y="359"/>
      <point x="426" y="338"/>
      <point x="422" y="318" type="curve"/>
      <point x="358" y="0" type="line"/>
      <point x="435" y="0" type="line"/>
      <point x="493" y="288" type="line" smooth="yes"/>
      <point x="501" y="330"/>
      <point x="524" y="384"/>
      <point x="557" y="417" type="curve"/>
      <point x="585" y="445"/>
      <point x="612" y="458"/>
      <point x="644" y="458" type="curve"/>
      <point x="699" y="458"/>
      <point x="723" y="429"/>
      <point x="723" y="374" type="curve"/>
      <point x="723" y="358"/>
      <point x="721" y="339"/>
      <point x="717" y="319" type="curve"/>
      <point x="669" y="80" type="line" smooth="yes"/>
      <point x="667" y="70"/>
      <point x="666" y="64"/>
      <point x="666" y="57" type="curve"/>
      <point x="666" y="18"/>
      <point x="692" y="0"/>
      <point x="732" y="0" type="curve"/>
      <point x="804" y="0" type="line"/>
      <point x="817" y="68" type="line"/>
      <point x="744" y="68" type="line"/>
      <point x="794" y="319" type="line" smooth="yes"/>
      <point x="799" y="344"/>
      <point x="801" y="366"/>
      <point x="801" y="386" type="curve"/>
      <point x="801" y="476"/>
      <point x="757" y="528"/>
      <point x="671" y="528" type="curve"/>
      <point x="595" y="528"/>
      <point x="545" y="491"/>
      <point x="510" y="414" type="curve"/>
      <point x="504" y="414" type="line"/>
      <point x="496" y="485"/>
      <point x="456" y="528"/>
      <point x="384" y="528" type="curve"/>
      <point x="309" y="528"/>
      <point x="263" y="491"/>
      <point x="227" y="414" type="curve"/>
      <point x="222" y="414" type="line"/>
      <point x="243" y="516" type="line"/>
    </contour>
  </outline>
</glyph>
<glyph name="w" format="1">
  <advance width="900"/>
  <unicode hex="0077"/>
  <outline>
    <contour>
      <point x="197" y="516" type="line"/>
      <point x="123" y="516" type="line"/>
      <point x="151" y="0" type="line"/>
      <point x="249" y="0" type="line"/>
      <point x="461" y="411" type="line"/>
      <point x="466" y="411" type="line"/>
      <point x="518" y="0" type="line"/>
      <point x="611" y="0" type="line"/>
      <point x="866" y="516" type="line"/>
      <point x="791" y="516" type="line"/>
      <point x="578" y="78" type="line"/>
      <point x="573" y="78" type="line"/>
      <point x="519" y="516" type="line"/>
      <point x="444" y="516" type="line"/>
      <point x="217" y="74" type="line"/>
      <point x="212" y="74" type="line"/>
    </contour>
  </outline>
</glyph>
<glyph name="dieresis" format="1">
  <advance width="600"/>
  <unicode hex="00A8"/>
  <outline>
    <contour>
      <point x="276" y="619" type="curve"/>
      <point x="316" y="619"/>
      <point x="329" y="636"/>
      <point x="335" y="662" type="curve"/>
      <point x="337" y="671"/>
      <point x="339" y="680"/>
      <point x="339" y="687" type="curve"/>
      <point x="339" y="706"/>
      <point x="326" y="723"/>
      <point x="287" y="723" type="curve"/>
      <point x="247" y="723"/>
      <point x="234" y="706"/>
      <point x="228" y="680" type="curve"/>
      <point x="226" y="671"/>
      <point x="224" y="662"/>
      <point x="224" y="655" type="curve"/>
      <point x="224" y="636"/>
      <point x="237" y="619"/>
    </contour>
    <contour>
      <point x="462" y="619" type="curve"/>
      <point x="502" y="619"/>
      <point x="515" y="636"/>
      <point x="521" y="662" type="curve"/>
      <point x="523" y="671"/>
      <point x="525" y="680"/>
      <point x="525" y="687" type="curve"/>
      <point x="525" y="706"/>
      <point x="512" y="723"/>
      <point x="473" y="723" type="curve"/>
      <point x="433" y="723"/>
      <point x="420" y="706"/>
      <point x="414" y="680" type="curve"/>
      <point x="412" y="671"/>
      <point x="410" y="662"/>
      <point x="410" y="655" type="curve"/>
      <point x="410" y="636"/>
      <point x="423" y="619"/>
    </contour>
    <contour>
      <point x="347" y="522" type="move" name="_top"/>
    </contour>
  </outline>
</glyph>
<glyph name="copyright" format="1">
  <advance width="900"/>
  <unicode hex="00A9"/>
  <outline>
    <contour>
      <point x="408" y="-12" type="curve"/>
      <point x="633" y="-12"/>
      <point x="802" y="165"/>
      <point x="802" y="404" type="curve"/>
      <point x="802" y="584"/>
      <point x="686" y="708"/>
      <point x="511" y="708" type="curve"/>
      <point x="286" y="708"/>
      <point x="117" y="531"/>
      <point x="117" y="292" type="curve"/>
      <point x="117" y="112"/>
      <point x="233" y="-12"/>
    </contour>
    <contour>
      <point x="412" y="46" type="curve"/>
      <point x="277" y="46"/>
      <point x="181" y="142"/>
      <point x="181" y="292" type="curve"/>
      <point x="181" y="317"/>
      <point x="188" y="357"/>
      <point x="196" y="400" type="curve"/>
      <point x="222" y="538"/>
      <point x="353" y="650"/>
      <point x="507" y="650" type="curve"/>
      <point x="642" y="650"/>
      <point x="738" y="554"/>
      <point x="738" y="404" type="curve"/>
      <point x="738" y="379"/>
      <point x="731" y="339"/>
      <point x="723" y="296" type="curve"/>
      <point x="697" y="158"/>
      <point x="566" y="46"/>
    </contour>
    <contour>
      <point x="430" y="155" type="curve"/>
      <point x="497" y="155"/>
      <point x="551" y="193"/>
      <point x="585" y="244" type="curve"/>
      <point x="537" y="282" type="line"/>
      <point x="505" y="237"/>
      <point x="473" y="216"/>
      <point x="438" y="216" type="curve"/>
      <point x="395" y="216"/>
      <point x="371" y="247"/>
      <point x="371" y="292" type="curve"/>
      <point x="371" y="301"/>
      <point x="372" y="310"/>
      <point x="374" y="320" type="curve"/>
      <point x="386" y="379" type="line" smooth="yes"/>
      <point x="398" y="439"/>
      <point x="430" y="483"/>
      <point x="486" y="483" type="curve"/>
      <point x="525" y="483"/>
      <point x="551" y="461"/>
      <point x="560" y="423" type="curve"/>
      <point x="618" y="447" type="line"/>
      <point x="604" y="497"/>
      <point x="561" y="543"/>
      <point x="489" y="543" type="curve"/>
      <point x="377" y="543"/>
      <point x="300" y="434"/>
      <point x="300" y="301" type="curve"/>
      <point x="300" y="210"/>
      <point x="349" y="155"/>
    </contour>
  </outline>
</glyph>
<glyph name="uni00B2" format="1">
  <advance width="600"/>
  <unicode hex="00B2"/>
  <outline>
    <contour>
      <point x="181" y="329" type="line"/>
      <point x="442" y="329" type="line"/>
      <point x="450" y="378" type="line"/>
      <point x="259" y="378" type="line"/>
      <point x="353" y="445" type="line" smooth="yes"/>
      <point x="405" y="482"/>
      <point x="478" y="527"/>
      <point x="478" y="604" type="curve"/>
      <point x="478" y="672"/>
      <point x="421" y="704"/>
      <point x="356" y="704" type="curve"/>
      <point x="282" y="704"/>
      <point x="242" y="663"/>
      <point x="221" y="614" type="curve"/>
      <point x="273" y="591" type="line"/>
      <point x="285" y="620"/>
      <point x="308" y="651"/>
      <point x="352" y="651" type="curve"/>
      <point x="385" y="651"/>
      <point x="412" y="633"/>
      <point x="412" y="604" type="curve"/>
      <point x="412" y="598"/>
      <point x="411" y="589"/>
      <point x="410" y="584" type="curve"/>
      <point x="402" y="542"/>
      <point x="375" y="523"/>
      <point x="322" y="484" type="curve"/>
      <point x="191" y="388" type="line"/>
    </contour>
  </outline>
</glyph>
<glyph name="acute" format="1">
  <advance width="600"/>
  <unicode hex="00B4"/>
  <outline>
    <contour>
      <point x="273" y="613" type="line"/>
      <point x="320" y="585" type="line"/>
      <point x="449" y="740" type="line"/>
      <point x="381" y="779" type="line"/>
    </contour>
  </outline>
</glyph>
<glyph name="Acircumflex" format="1">
  <advance width="600"/>
  <unicode hex="00C2"/>
  <outline>
    <contour>
      <point x="550" y="788" type="line"/>
      <point x="463" y="935" type="line"/>
      <point x="365" y="935" type="line"/>
      <point x="232" y="794" type="line"/>
      <point x="271" y="761" type="line"/>
      <point x="408" y="878" type="line"/>
      <point x="504" y="761" type="line"/>
    </contour>
    <contour>
      <point x="417" y="199" type="line"/>
      <point x="442" y="0" type="line"/>
      <point x="528" y="0" type="line"/>
      <point x="431" y="698" type="line"/>
      <point x="321" y="698" type="line"/>
      <point x="-9" y="0" type="line"/>
      <point x="79" y="0" type="line"/>
      <point x="171" y="199" type="line"/>
    </contour>
    <contour>
      <point x="357" y="614" type="line"/>
      <point x="366" y="614" type="line"/>
      <point x="409" y="272" type="line"/>
      <point x="202" y="272" type="line"/>
    </contour>
  </outline>
</glyph>
<glyph name="Adieresis" format="1">
  <advance width="600"/>
  <unicode hex="00C4"/>
  <outline>
    <contour>
      <point x="300" y="789" type="curve"/>
      <point x="340" y="789"/>
      <point x="352" y="806"/>
      <point x="359" y="832" type="curve"/>
      <point x="361" y="839"/>
      <point x="363" y="850"/>
      <point x="363" y="857" type="curve"/>
      <point x="363" y="876"/>
      <point x="350" y="893"/>
      <point x="311" y="893" type="curve"/>
      <point x="271" y="893"/>
      <point x="259" y="876"/>
      <point x="252" y="850" type="curve"/>
      <point x="250" y="843"/>
      <point x="248" y="832"/>
      <point x="248" y="825" type="curve"/>
      <point x="248" y="806"/>
      <point x="261" y="789"/>
    </contour>
    <contour>
      <point x="486" y="789" type="curve"/>
      <point x="526" y="789"/>
      <point x="538" y="806"/>
      <point x="545" y="832" type="curve"/>
      <point x="547" y="839"/>
      <point x="549" y="850"/>
      <point x="549" y="857" type="curve"/>
      <point x="549" y="876"/>
      <point x="536" y="893"/>
      <point x="497" y="893" type="curve"/>
      <point x="457" y="893"/>
      <point x="445" y="876"/>
      <point x="438" y="850" type="curve"/>
      <point x="436" y="843"/>
      <point x="434" y="832"/>
      <point x="434" y="825" type="curve"/>
      <point x="434" y="806"/>
      <point x="447" y="789"/>
    </contour>
    <contour>
      <point x="417" y="199" type="line"/>
      <point x="442" y="0" type="line"/>
      <point x="528" y="0" type="line"/>
      <point x="431" y="698" type="line"/>
      <point x="321" y="698" type="line"/>
      <point x="-9" y="0" type="line"/>
      <point x="79" y="0" type="line"/>
      <point x="171" y="199" type="line"/>
    </contour>
    <contour>
      <point x="357" y="614" type="line"/>
      <point x="366" y="614" type="line"/>
      <point x="409" y="272" type="line"/>
      <point x="202" y="272" type="line"/>
    </contour>
  </outline>
</glyph>
<glyph name="Aring" format="1">
  <advance width="600"/>
  <unicode hex="00C5"/>
  <outline>
    <contour>
      <point x="387" y="748" type="curve"/>
      <point x="455" y="748"/>
      <point x="516" y="804"/>
      <point x="516" y="875" type="curve"/>
      <point x="516" y="933"/>
      <point x="474" y="974"/>
      <point x="415" y="974" type="curve"/>
      <point x="347" y="974"/>
      <point x="286" y="918"/>
      <point x="286" y="847" type="curve"/>
      <point x="286" y="789"/>
      <point x="328" y="748"/>
    </contour>
    <contour>
      <point x="391" y="795" type="curve"/>
      <point x="358" y="795"/>
      <point x="341" y="812"/>
      <point x="341" y="839" type="curve"/>
      <point x="341" y="846"/>
      <point x="343" y="859"/>
      <point x="345" y="871" type="curve"/>
      <point x="351" y="907"/>
      <point x="377" y="927"/>
      <point x="411" y="927" type="curve"/>
      <point x="444" y="927"/>
      <point x="461" y="910"/>
      <point x="461" y="883" type="curve"/>
      <point x="461" y="876"/>
      <point x="459" y="863"/>
      <point x="457" y="851" type="curve"/>
      <point x="451" y="815"/>
      <point x="425" y="795"/>
    </contour>
    <contour>
      <point x="417" y="199" type="line"/>
      <point x="442" y="0" type="line"/>
      <point x="528" y="0" type="line"/>
      <point x="431" y="698" type="line"/>
      <point x="321" y="698" type="line"/>
      <point x="-9" y="0" type="line"/>
      <point x="79" y="0" type="line"/>
      <point x="171" y="199" type="line"/>
    </contour>
    <contour>
      <point x="357" y="614" type="line"/>
      <point x="366" y="614" type="line"/>
      <point x="409" y="272" type="line"/>
      <point x="202" y="272" type="line"/>
    </contour>
  </outline>
</glyph>
<glyph name="AE" format="1">
  <advance width="900"/>
  <unicode hex="00C6"/>
  <outline>
    <contour>
      <point x="189" y="205" type="line"/>
      <point x="401" y="205" type="line"/>
      <point x="360" y="0" type="line"/>
      <point x="788" y="0" type="line"/>
      <point x="802" y="72" type="line"/>
      <point x="456" y="72" type="line"/>
      <point x="505" y="318" type="line"/>
      <point x="802" y="318" type="line"/>
      <point x="816" y="390" type="line"/>
      <point x="520" y="390" type="line"/>
      <point x="567" y="626" type="line"/>
      <point x="896" y="626" type="line"/>
      <point x="911" y="698" type="line"/>
      <point x="440" y="698" type="line"/>
      <point x="-42" y="0" type="line"/>
      <point x="50" y="0" type="line"/>
    </contour>
    <contour>
      <point x="239" y="276" type="line"/>
      <point x="477" y="631" type="line"/>
      <point x="487" y="631" type="line"/>
      <point x="416" y="276" type="line"/>
    </contour>
  </outline>
</glyph>
<glyph name="Ecircumflex" format="1">
  <advance width="600"/>
  <unicode hex="00CA"/>
  <outline>
    <contour>
      <point x="555" y="788" type="line"/>
      <point x="468" y="935" type="line"/>
      <point x="370" y="935" type="line"/>
      <point x="237" y="794" type="line"/>
      <point x="276" y="761" type="line"/>
      <point x="413" y="878" type="line"/>
      <point x="509" y="761" type="line"/>
    </contour>
    <contour>
      <point x="164" y="698" type="line"/>
      <point x="47" y="0" type="line"/>
      <point x="477" y="0" type="line"/>
      <point x="489" y="72" type="line"/>
      <point x="141" y="72" type="line"/>
      <point x="182" y="318" type="line"/>
      <point x="517" y="318" type="line"/>
      <point x="529" y="390" type="line"/>
      <point x="194" y="390" type="line"/>
      <point x="234" y="626" type="line"/>
      <point x="580" y="626" type="line"/>
      <point x="592" y="698" type="line"/>
    </contour>
  </outline>
</glyph>
<glyph name="Iacute" format="1">
  <advance width="600"/>
  <unicode hex="00CD"/>
  <outline>
    <contour>
      <point x="345" y="783" type="line"/>
      <point x="392" y="755" type="line"/>
      <point x="521" y="910" type="line"/>
      <point x="453" y="949" type="line"/>
    </contour>
    <contour>
      <point x="52" y="66" type="line"/>
      <point x="41" y="0" type="line"/>
      <point x="473" y="0" type="line"/>
      <point x="484" y="66" type="line"/>
      <point x="309" y="66" type="line"/>
      <point x="404" y="632" type="line"/>
      <point x="579" y="632" type="line"/>
      <point x="590" y="698" type="line"/>
      <point x="158" y="698" type="line"/>
      <point x="147" y="632" type="line"/>
      <point x="322" y="632" type="line"/>
      <point x="227" y="66" type="line"/>
    </contour>
  </outline>
</glyph>
<glyph name="Icircumflex" format="1">
  <advance width="600"/>
  <unicode hex="00CE"/>
  <outline>
    <contour>
      <point x="548" y="788" type="line"/>
      <point x="461" y="935" type="line"/>
      <point x="363" y="935" type="line"/>
      <point x="230" y="794" type="line"/>
      <point x="269" y="761" type="line"/>
      <point x="406" y="878" type="line"/>
      <point x="502" y="761" type="line"/>
    </contour>
    <contour>
      <point x="52" y="66" type="line"/>
      <point x="41" y="0" type="line"/>
      <point x="473" y="0" type="line"/>
      <point x="484" y="66" type="line"/>
      <point x="309" y="66" type="line"/>
      <point x="404" y="632" type="line"/>
      <point x="579" y="632" type="line"/>
      <point x="590" y="698" type="line"/>
      <point x="158" y="698" type="line"/>
      <point x="147" y="632" type="line"/>
      <point x="322" y="632" type="line"/>
      <point x="227" y="66" type="line"/>
    </contour>
  </outline>
</glyph>
<glyph name="Otilde" format="1">
  <advance width="600"/>
  <unicode hex="00D5"/>
  <outline>
    <contour>
      <point x="456" y="782" type="curve"/>
      <point x="498" y="782"/>
      <point x="533" y="808"/>
      <point x="555" y="834" type="curve"/>
      <point x="527" y="875" type="line"/>
      <point x="504" y="857"/>
      <point x="485" y="846"/>
      <point x="464" y="846" type="curve"/>
      <point x="445" y="846"/>
      <point x="423" y="855"/>
      <point x="400" y="869" type="curve"/>
      <point x="380" y="881"/>
      <point x="357" y="897"/>
      <point x="324" y="897" type="curve"/>
      <point x="282" y="897"/>
      <point x="247" y="871"/>
      <point x="225" y="845" type="curve"/>
      <point x="253" y="804" type="line"/>
      <point x="276" y="822"/>
      <point x="295" y="833"/>
      <point x="316" y="833" type="curve"/>
      <point x="335" y="833"/>
      <point x="357" y="824"/>
      <point x="380" y="810" type="curve"/>
      <point x="400" y="798"/>
      <point x="423" y="782"/>
    </contour>
    <contour>
      <point x="260" y="-12" type="curve"/>
      <point x="510" y="-12"/>
      <point x="570" y="297"/>
      <point x="570" y="473" type="curve"/>
      <point x="570" y="625"/>
      <point x="508" y="710"/>
      <point x="372" y="710" type="curve"/>
      <point x="122" y="710"/>
      <point x="62" y="401"/>
      <point x="62" y="225" type="curve"/>
      <point x="62" y="73"/>
      <point x="124" y="-12"/>
    </contour>
    <contour>
      <point x="266" y="60" type="curve"/>
      <point x="178" y="60"/>
      <point x="143" y="115"/>
      <point x="143" y="210" type="curve"/>
      <point x="143" y="233"/>
      <point x="145" y="262"/>
      <point x="150" y="292" type="curve"/>
      <point x="169" y="406" type="line" smooth="yes"/>
      <point x="193" y="549"/>
      <point x="259" y="638"/>
      <point x="366" y="638" type="curve"/>
      <point x="454" y="638"/>
      <point x="489" y="583"/>
      <point x="489" y="488" type="curve"/>
      <point x="489" y="465"/>
      <point x="487" y="436"/>
      <point x="482" y="406" type="curve"/>
      <point x="463" y="292" type="line" smooth="yes"/>
      <point x="439" y="149"/>
      <point x="373" y="60"/>
    </contour>
  </outline>
</glyph>
<glyph name="Udieresis" format="1">
  <advance width="600"/>
  <unicode hex="00DC"/>
  <outline>
    <contour>
      <point x="293" y="789" type="curve"/>
      <point x="333" y="789"/>
      <point x="345" y="806"/>
      <point x="352" y="832" type="curve"/>
      <point x="354" y="839"/>
      <point x="356" y="850"/>
      <point x="356" y="857" type="curve"/>
      <point x="356" y="876"/>
      <point x="343" y="893"/>
      <point x="304" y="893" type="curve"/>
      <point x="264" y="893"/>
      <point x="252" y="876"/>
      <point x="245" y="850" type="curve"/>
      <point x="243" y="843"/>
      <point x="241" y="832"/>
      <point x="241" y="825" type="curve"/>
      <point x="241" y="806"/>
      <point x="254" y="789"/>
    </contour>
    <contour>
      <point x="479" y="789" type="curve"/>
      <point x="519" y="789"/>
      <point x="531" y="806"/>
      <point x="538" y="832" type="curve"/>
      <point x="540" y="839"/>
      <point x="542" y="850"/>
      <point x="542" y="857" type="curve"/>
      <point x="542" y="876"/>
      <point x="529" y="893"/>
      <point x="490" y="893" type="curve"/>
      <point x="450" y="893"/>
      <point x="438" y="876"/>
      <point x="431" y="850" type="curve"/>
      <point x="429" y="843"/>
      <point x="427" y="832"/>
      <point x="427" y="825" type="curve"/>
      <point x="427" y="806"/>
      <point x="440" y="789"/>
    </contour>
    <contour>
      <point x="169" y="298" type="curve"/>
      <point x="236" y="698" type="line"/>
      <point x="154" y="698" type="line"/>
      <point x="91" y="323" type="line" smooth="yes"/>
      <point x="82" y="269"/>
      <point x="73" y="209"/>
      <point x="73" y="166" type="curve"/>
      <point x="73" y="52"/>
      <point x="126" y="-12"/>
      <point x="269" y="-12" type="curve"/>
      <point x="452" y="-12"/>
      <point x="489" y="84"/>
      <point x="524" y="291" type="curve"/>
      <point x="592" y="698" type="line"/>
      <point x="510" y="698" type="line"/>
      <point x="439" y="274" type="line" smooth="yes"/>
      <point x="416" y="137"/>
      <point x="398" y="60"/>
      <point x="266" y="60" type="curve"/>
      <point x="177" y="60"/>
      <point x="154" y="104"/>
      <point x="154" y="173" type="curve"/>
      <point x="154" y="198"/>
      <point x="157" y="226"/>
    </contour>
  </outline>
</glyph>
<glyph name="Thorn" format="1">
  <advance width="600"/>
  <unicode hex="00DE"/>
  <outline>
    <contour>
      <point x="165" y="698" type="line"/>
      <point x="48" y="0" type="line"/>
      <point x="130" y="0" type="line"/>
      <point x="156" y="154" type="line"/>
      <point x="331" y="154" type="line" smooth="yes"/>
      <point x="477" y="154"/>
      <point x="560" y="243"/>
      <point x="560" y="391" type="curve"/>
      <point x="560" y="488"/>
      <point x="506" y="555"/>
      <point x="389" y="555" type="curve"/>
      <point x="223" y="555" type="line"/>
      <point x="247" y="698" type="line"/>
    </contour>
    <contour>
      <point x="339" y="226" type="curve"/>
      <point x="168" y="226" type="line"/>
      <point x="211" y="483" type="line"/>
      <point x="379" y="483" type="line" smooth="yes"/>
      <point x="440" y="483"/>
      <point x="476" y="455"/>
      <point x="476" y="400" type="curve"/>
      <point x="476" y="387"/>
      <point x="475" y="373"/>
      <point x="473" y="361" type="curve"/>
      <point x="467" y="325" type="line" smooth="yes"/>
      <point x="457" y="265"/>
      <point x="414" y="226"/>
    </contour>
  </outline>
</glyph>
<glyph name="aring" format="1">
  <advance width="600"/>
  <unicode hex="00E5"/>
  <outline>
    <contour>
      <point x="333" y="578" type="curve"/>
      <point x="401" y="578"/>
      <point x="462" y="634"/>
      <point x="462" y="705" type="curve"/>
      <point x="462" y="763"/>
      <point x="420" y="804"/>
      <point x="361" y="804" type="curve"/>
      <point x="293" y="804"/>
      <point x="232" y="748"/>
      <point x="232" y="677" type="curve"/>
      <point x="232" y="619"/>
      <point x="274" y="578"/>
    </contour>
    <contour>
      <point x="337" y="625" type="curve"/>
      <point x="304" y="625"/>
      <point x="287" y="642"/>
      <point x="287" y="669" type="curve"/>
      <point x="287" y="676"/>
      <point x="289" y="689"/>
      <point x="291" y="701" type="curve"/>
      <point x="297" y="737"/>
      <point x="323" y="757"/>
      <point x="357" y="757" type="curve"/>
      <point x="390" y="757"/>
      <point x="407" y="740"/>
      <point x="407" y="713" type="curve"/>
      <point x="407" y="706"/>
      <point x="405" y="693"/>
      <point x="403" y="681" type="curve"/>
      <point x="397" y="645"/>
      <point x="371" y="625"/>
    </contour>
    <contour>
      <point x="403" y="122" type="line"/>
      <point x="383" y="0" type="line"/>
      <point x="461" y="0" type="line"/>
      <point x="547" y="516" type="line"/>
      <point x="469" y="516" type="line"/>
      <point x="454" y="426" type="line"/>
      <point x="451" y="426" type="line"/>
      <point x="429" y="493"/>
      <point x="376" y="528"/>
      <point x="300" y="528" type="curve"/>
      <point x="118" y="528"/>
      <point x="56" y="326"/>
      <point x="56" y="188" type="curve"/>
      <point x="56" y="56"/>
      <point x="113" y="-12"/>
      <point x="217" y="-12" type="curve"/>
      <point x="308" y="-12"/>
      <point x="360" y="41"/>
      <point x="400" y="122" type="curve"/>
    </contour>
    <contour>
      <point x="244" y="57" type="curve"/>
      <point x="172" y="57"/>
      <point x="135" y="103"/>
      <point x="135" y="180" type="curve"/>
      <point x="135" y="193"/>
      <point x="136" y="207"/>
      <point x="139" y="225" type="curve"/>
      <point x="151" y="297" type="line" smooth="yes"/>
      <point x="167" y="393"/>
      <point x="224" y="459"/>
      <point x="323" y="459" type="curve"/>
      <point x="400" y="459"/>
      <point x="453" y="418"/>
      <point x="441" y="346" type="curve"/>
      <point x="422" y="232" type="line" smooth="yes"/>
      <point x="414" y="184"/>
      <point x="391" y="143"/>
      <point x="365" y="114" type="curve"/>
      <point x="329" y="74"/>
      <point x="287" y="57"/>
    </contour>
  </outline>
</glyph>
<glyph name="ae" format="1">
  <advance width="900"/>
  <unicode hex="00E6"/>
  <outline>
    <contour>
      <point x="225" y="56" type="curve"/>
      <point x="151" y="56"/>
      <point x="120" y="79"/>
      <point x="120" y="119" type="curve"/>
      <point x="120" y="126"/>
      <point x="121" y="133"/>
      <point x="126" y="158" type="curve"/>
      <point x="136" y="210"/>
      <point x="193" y="221"/>
      <point x="290" y="225" type="curve"/>
      <point x="389" y="229" type="line"/>
      <point x="373" y="150" type="line" smooth="yes"/>
      <point x="362" y="96"/>
      <point x="296" y="56"/>
    </contour>
    <contour>
      <point x="651" y="462" type="curve"/>
      <point x="715" y="462"/>
      <point x="761" y="448"/>
      <point x="761" y="384" type="curve"/>
      <point x="761" y="323"/>
      <point x="713" y="293"/>
      <point x="475" y="286" type="curve"/>
      <point x="480" y="310" type="line" smooth="yes"/>
      <point x="499" y="402"/>
      <point x="562" y="462"/>
    </contour>
    <contour>
      <point x="208" y="-12" type="curve"/>
      <point x="287" y="-12"/>
      <point x="358" y="24"/>
      <point x="396" y="94" type="curve"/>
      <point x="403" y="94" type="line"/>
      <point x="430" y="27"/>
      <point x="489" y="-12"/>
      <point x="578" y="-12" type="curve"/>
      <point x="673" y="-12"/>
      <point x="748" y="16"/>
      <point x="812" y="94" type="curve"/>
      <point x="762" y="139" type="line"/>
      <point x="722" y="90"/>
      <point x="669" y="57"/>
      <point x="584" y="57" type="curve"/>
      <point x="504" y="57"/>
      <point x="461" y="108"/>
      <point x="461" y="174" type="curve"/>
      <point x="461" y="192"/>
      <point x="464" y="214"/>
      <point x="466" y="228" type="curve"/>
      <point x="719" y="230"/>
      <point x="840" y="274"/>
      <point x="840" y="390" type="curve"/>
      <point x="840" y="485"/>
      <point x="758" y="528"/>
      <point x="655" y="528" type="curve"/>
      <point x="580" y="528"/>
      <point x="518" y="493"/>
      <point x="474" y="433" type="curve"/>
      <point x="467" y="433" type="line"/>
      <point x="449" y="490"/>
      <point x="403" y="528"/>
      <point x="321" y="528" type="curve"/>
      <point x="214" y="528"/>
      <point x="143" y="486"/>
      <point x="107" y="431" type="curve"/>
      <point x="155" y="385" type="line"/>
      <point x="191" y="433"/>
      <point x="229" y="458"/>
      <point x="310" y="458" type="curve"/>
      <point x="378" y="458"/>
      <point x="415" y="427"/>
      <point x="415" y="372" type="curve"/>
      <point x="415" y="363"/>
      <point x="414" y="355"/>
      <point x="412" y="345" type="curve"/>
      <point x="401" y="286" type="line"/>
      <point x="294" y="282" type="line" smooth="yes"/>
      <point x="114" y="275"/>
      <point x="42" y="221"/>
      <point x="42" y="122" type="curve"/>
      <point x="42" y="36"/>
      <point x="96" y="-12"/>
    </contour>
  </outline>
</glyph>
<glyph name="odieresis" format="1">
  <advance width="600"/>
  <unicode hex="00F6"/>
  <outline>
    <contour>
      <point x="269" y="619" type="curve"/>
      <point x="309" y="619"/>
      <point x="322" y="636"/>
      <point x="328" y="662" type="curve"/>
      <point x="330" y="671"/>
      <point x="332" y="680"/>
      <point x="332" y="687" type="curve"/>
      <point x="332" y="706"/>
      <point x="319" y="723"/>
      <point x="280" y="723" type="curve"/>
      <point x="240" y="723"/>
      <point x="227" y="706"/>
      <point x="221" y="680" type="curve"/>
      <point x="219" y="671"/>
      <point x="217" y="662"/>
      <point x="217" y="655" type="curve"/>
      <point x="217" y="636"/>
      <point x="230" y="619"/>
    </contour>
    <contour>
      <point x="455" y="619" type="curve"/>
      <point x="495" y="619"/>
      <point x="508" y="636"/>
      <point x="514" y="662" type="curve"/>
      <point x="516" y="671"/>
      <point x="518" y="680"/>
      <point x="518" y="687" type="curve"/>
      <point x="518" y="706"/>
      <point x="505" y="723"/>
      <point x="466" y="723" type="curve"/>
      <point x="426" y="723"/>
      <point x="413" y="706"/>
      <point x="407" y="680" type="curve"/>
      <point x="405" y="671"/>
      <point x="403" y="662"/>
      <point x="403" y="655" type="curve"/>
      <point x="403" y="636"/>
      <point x="416" y="619"/>
    </contour>
    <contour>
      <point x="265" y="-12" type="curve"/>
      <point x="417" y="-12"/>
      <point x="536" y="113"/>
      <point x="536" y="310" type="curve"/>
      <point x="536" y="439"/>
      <point x="468" y="528"/>
      <point x="334" y="528" type="curve"/>
      <point x="183" y="528"/>
      <point x="64" y="403"/>
      <point x="64" y="206" type="curve"/>
      <point x="64" y="77"/>
      <point x="133" y="-12"/>
    </contour>
    <contour>
      <point x="269" y="56" type="curve"/>
      <point x="192" y="56"/>
      <point x="143" y="96"/>
      <point x="143" y="183" type="curve"/>
      <point x="143" y="195"/>
      <point x="144" y="210"/>
      <point x="148" y="234" type="curve"/>
      <point x="158" y="294" type="line" smooth="yes"/>
      <point x="175" y="396"/>
      <point x="234" y="460"/>
      <point x="331" y="460" type="curve"/>
      <point x="408" y="460"/>
      <point x="457" y="420"/>
      <point x="457" y="333" type="curve"/>
      <point x="457" y="321"/>
      <point x="456" y="306"/>
      <point x="452" y="282" type="curve"/>
      <point x="442" y="222" type="line" smooth="yes"/>
      <point x="425" y="120"/>
      <point x="366" y="56"/>
    </contour>
  </outline>
</glyph>
<glyph name="Dcroat" format="1">
  <advance width="600"/>
  <unicode hex="0110"/>
  <outline>
    <contour>
      <point x="31" y="337" type="line"/>
      <point x="111" y="337" type="line"/>
      <point x="55" y="0" type="line"/>
      <point x="248" y="0" type="line" smooth="yes"/>
      <point x="443" y="0"/>
      <point x="565" y="148"/>
      <point x="565" y="473" type="curve"/>
      <point x="565" y="602"/>
      <point x="489" y="698"/>
      <point x="343" y="698" type="curve"/>
      <point x="172" y="698" type="line"/>
      <point x="122" y="399" type="line"/>
      <point x="41" y="399" type="line"/>
    </contour>
    <contour>
      <point x="255" y="72" type="curve"/>
      <point x="149" y="72" type="line"/>
      <point x="194" y="337" type="line"/>
      <point x="333" y="337" type="line"/>
      <point x="343" y="399" type="line"/>
      <point x="204" y="399" type="line"/>
      <point x="242" y="626" type="line"/>
      <point x="333" y="626" type="line" smooth="yes"/>
      <point x="431" y="626"/>
      <point x="483" y="572"/>
      <point x="483" y="471" type="curve"/>
      <point x="483" y="443"/>
      <point x="480" y="409"/>
      <point x="476" y="385" type="curve"/>
      <point x="460" y="289" type="line" smooth="yes"/>
      <point x="436" y="146"/>
      <point x="366" y="72"/>
    </contour>
  </outline>
</glyph>
<glyph name="Edotaccent" format="1">
  <advance width="600"/>
  <unicode hex="0116"/>
  <outline>
    <contour>
      <point x="396" y="782" type="curve"/>
      <point x="440" y="782"/>
      <point x="458" y="806"/>
      <point x="462" y="830" type="curve"/>
      <point x="463" y="836"/>
      <point x="466" y="852"/>
      <point x="466" y="859" type="curve"/>
      <point x="466" y="880"/>
      <point x="451" y="899"/>
      <point x="408" y="899" type="curve"/>
      <point x="364" y="899"/>
      <point x="346" y="875"/>
      <point x="342" y="851" type="curve"/>
      <point x="341" y="845"/>
      <point x="338" y="829"/>
      <point x="338" y="822" type="curve"/>
      <point x="338" y="801"/>
      <point x="353" y="782"/>
    </contour>
    <contour>
      <point x="164" y="698" type="line"/>
      <point x="47" y="0" type="line"/>
      <point x="477" y="0" type="line"/>
      <point x="489" y="72" type="line"/>
      <point x="141" y="72" type="line"/>
      <point x="182" y="318" type="line"/>
      <point x="517" y="318" type="line"/>
      <point x="529" y="390" type="line"/>
      <point x="194" y="390" type="line"/>
      <point x="234" y="626" type="line"/>
      <point x="580" y="626" type="line"/>
      <point x="592" y="698" type="line"/>
    </contour>
  </outline>
</glyph>
<glyph name="edotaccent" format="1">
  <advance width="600"/>
  <unicode hex="0117"/>
  <outline>
    <contour>
      <point x="371" y="612" type="curve"/>
      <point x="415" y="612"/>
      <point x="433" y="636"/>
      <point x="437" y="660" type="curve"/>
      <point x="438" y="666"/>
      <point x="441" y="682"/>
      <point x="441" y="689" type="curve"/>
      <point x="441" y="710"/>
      <point x="426" y="729"/>
      <point x="383" y="729" type="curve"/>
      <point x="339" y="729"/>
      <point x="321" y="705"/>
      <point x="317" y="681" type="curve"/>
      <point x="316" y="675"/>
      <point x="313" y="659"/>
      <point x="313" y="652" type="curve"/>
      <point x="313" y="631"/>
      <point x="328" y="612"/>
    </contour>
    <contour>
      <point x="277" y="-12" type="curve"/>
      <point x="386" y="-12"/>
      <point x="456" y="40"/>
      <point x="514" y="135" type="curve"/>
      <point x="459" y="169" type="line"/>
      <point x="401" y="87"/>
      <point x="358" y="55"/>
      <point x="284" y="55" type="curve"/>
      <point x="176" y="55"/>
      <point x="155" y="122"/>
      <point x="155" y="194" type="curve"/>
      <point x="155" y="196"/>
      <point x="155" y="207"/>
      <point x="156" y="217" type="curve"/>
      <point x="485" y="226"/>
      <point x="532" y="316"/>
      <point x="532" y="389" type="curve"/>
      <point x="532" y="479"/>
      <point x="458" y="528"/>
      <point x="357" y="528" type="curve"/>
      <point x="191" y="528"/>
      <point x="73" y="396"/>
      <point x="73" y="209" type="curve"/>
      <point x="73" y="61"/>
      <point x="147" y="-12"/>
    </contour>
    <contour>
      <point x="350" y="463" type="curve"/>
      <point x="425" y="463"/>
      <point x="452" y="428"/>
      <point x="452" y="386" type="curve"/>
      <point x="452" y="336"/>
      <point x="414" y="279"/>
      <point x="162" y="271" type="curve"/>
      <point x="163" y="281" type="line" smooth="yes"/>
      <point x="178" y="398"/>
      <point x="246" y="463"/>
    </contour>
  </outline>
</glyph>
<glyph name="Itilde" format="1">
  <advance width="600"/>
  <unicode hex="0128"/>
  <outline>
    <contour>
      <point x="463" y="782" type="curve"/>
      <point x="505" y="782"/>
      <point x="540" y="808"/>
      <point x="562" y="834" type="curve"/>
      <point x="534" y="875" type="line"/>
      <point x="511" y="857"/>
      <point x="492" y="846"/>
      <point x="471" y="846" type="curve"/>
      <point x="452" y="846"/>
      <point x="430" y="855"/>
      <point x="407" y="869" type="curve"/>
      <point x="387" y="881"/>
      <point x="364" y="897"/>
      <point x="331" y="897" type="curve"/>
      <point x="289" y="897"/>
      <point x="254" y="871"/>
      <point x="232" y="845" type="curve"/>
      <point x="260" y="804" type="line"/>
      <point x="283" y="822"/>
      <point x="302" y="833"/>
      <point x="323" y="833" type="curve"/>
      <point x="342" y="833"/>
      <point x="364" y="824"/>
      <point x="387" y="810" type="curve"/>
      <point x="407" y="798"/>
      <point x="430" y="782"/>
    </contour>
    <contour>
      <point x="52" y="66" type="line"/>
      <point x="41" y="0" type="line"/>
      <point x="473" y="0" type="line"/>
      <point x="484" y="66" type="line"/>
      <point x="309" y="66" type="line"/>
      <point x="404" y="632" type="line"/>
      <point x="579" y="632" type="line"/>
      <point x="590" y="698" type="line"/>
      <point x="158" y="698" type="line"/>
      <point x="147" y="632" type="line"/>
      <point x="322" y="632" type="line"/>
      <point x="227" y="66" type="line"/>
    </contour>
  </outline>
</glyph>
<glyph name="uni013C" format="1">
  <advance width="600"/>
  <unicode hex="013C"/>
  <outline>
    <contour>
      <point x="292" y="-64" type="line"/>
      <point x="184" y="-64" type="line"/>
      <point x="129" y="-249" type="line"/>
      <point x="190" y="-249" type="line"/>
    </contour>
    <contour>
      <point x="249" y="-12" type="curve"/>
      <point x="289" y="-12"/>
      <point x="325" y="5"/>
      <point x="422" y="93" type="curve"/>
      <point x="526" y="187" type="line"/>
      <point x="481" y="231" type="line"/>
      <point x="276" y="57" type="line"/>
      <point x="251" y="65" type="line"/>
      <point x="381" y="740" type="line"/>
      <point x="118" y="740" type="line"/>
      <point x="107" y="673" type="line"/>
      <point x="289" y="673" type="line"/>
      <point x="177" y="91" type="line" smooth="yes"/>
      <point x="175" y="82"/>
      <point x="174" y="68"/>
      <point x="174" y="59" type="curve"/>
      <point x="174" y="18"/>
      <point x="195" y="-12"/>
    </contour>
  </outline>
</glyph>
<glyph name="Nacute" format="1">
  <advance width="600"/>
  <unicode hex="0143"/>
  <outline>
    <contour>
      <point x="344" y="783" type="line"/>
      <point x="391" y="755" type="line"/>
      <point x="520" y="910" type="line"/>
      <point x="452" y="949" type="line"/>
    </contour>
    <contour>
      <point x="216" y="602" type="line"/>
      <point x="223" y="602" type="line"/>
      <point x="356" y="0" type="line"/>
      <point x="475" y="0" type="line"/>
      <point x="592" y="698" type="line"/>
      <point x="516" y="698" type="line"/>
      <point x="415" y="96" type="line"/>
      <point x="408" y="96" type="line"/>
      <point x="275" y="698" type="line"/>
      <point x="156" y="698" type="line"/>
      <point x="39" y="0" type="line"/>
      <point x="115" y="0" type="line"/>
    </contour>
  </outline>
</glyph>
<glyph name="Scaron" format="1">
  <advance width="600"/>
  <unicode hex="0160"/>
  <outline>
    <contour>
      <point x="233" y="916" type="line"/>
      <point x="320" y="769" type="line"/>
      <point x="418" y="769" type="line"/>
      <point x="551" y="910" type="line"/>
      <point x="512" y="943" type="line"/>
      <point x="375" y="826" type="line"/>
      <point x="279" y="943" type="line"/>
    </contour>
    <contour>
      <point x="266" y="-12" type="curve"/>
      <point x="429" y="-12"/>
      <point x="532" y="80"/>
      <point x="532" y="212" type="curve"/>
      <point x="532" y="297"/>
      <point x="490" y="355"/>
      <point x="374" y="382" type="curve"/>
      <point x="301" y="399" type="line" smooth="yes"/>
      <point x="227" y="416"/>
      <point x="188" y="444"/>
      <point x="188" y="508" type="curve"/>
      <point x="188" y="589"/>
      <point x="250" y="640"/>
      <point x="351" y="640" type="curve"/>
      <point x="430" y="640"/>
      <point x="484" y="609"/>
      <point x="523" y="551" type="curve"/>
      <point x="583" y="595" type="line"/>
      <point x="547" y="658"/>
      <point x="476" y="710"/>
      <point x="355" y="710" type="curve"/>
      <point x="206" y="710"/>
      <point x="104" y="631"/>
      <point x="104" y="502" type="curve"/>
      <point x="104" y="412"/>
      <point x="153" y="356"/>
      <point x="263" y="331" type="curve"/>
      <point x="338" y="314" type="line" smooth="yes"/>
      <point x="419" y="296"/>
      <point x="448" y="262"/>
      <point x="448" y="205" type="curve"/>
      <point x="448" y="116"/>
      <point x="379" y="59"/>
      <point x="270" y="59" type="curve"/>
      <point x="186" y="59"/>
      <point x="130" y="93"/>
      <point x="87" y="160" type="curve"/>
      <point x="25" y="111" type="line"/>
      <point x="66" y="39"/>
      <point x="145" y="-12"/>
    </contour>
  </outline>
</glyph>
<glyph name="scaron" format="1">
  <advance width="600"/>
  <unicode hex="0161"/>
  <outline>
    <contour>
      <point x="213" y="746" type="line"/>
      <point x="300" y="599" type="line"/>
      <point x="398" y="599" type="line"/>
      <point x="531" y="740" type="line"/>
      <point x="492" y="773" type="line"/>
      <point x="355" y="656" type="line"/>
      <point x="259" y="773" type="line"/>
    </contour>
    <contour>
      <point x="268" y="-12" type="curve"/>
      <point x="406" y="-12"/>
      <point x="499" y="54"/>
      <point x="499" y="161" type="curve"/>
      <point x="499" y="263"/>
      <point x="414" y="279"/>
      <point x="348" y="290" type="curve"/>
      <point x="275" y="302" type="line" smooth="yes"/>
      <point x="233" y="309"/>
      <point x="195" y="320"/>
      <point x="195" y="370" type="curve"/>
      <point x="195" y="426"/>
      <point x="242" y="462"/>
      <point x="331" y="462" type="curve"/>
      <point x="418" y="462"/>
      <point x="460" y="428"/>
      <point x="478" y="401" type="curve"/>
      <point x="533" y="449" type="line"/>
      <point x="494" y="498"/>
      <point x="430" y="528"/>
      <point x="340" y="528" type="curve"/>
      <point x="218" y="528"/>
      <point x="119" y="473"/>
      <point x="119" y="364" type="curve"/>
      <point x="119" y="268"/>
      <point x="197" y="243"/>
      <point x="272" y="232" type="curve"/>
      <point x="347" y="221" type="line" smooth="yes"/>
      <point x="389" y="215"/>
      <point x="422" y="201"/>
      <point x="422" y="153" type="curve"/>
      <point x="422" y="91"/>
      <point x="366" y="54"/>
      <point x="275" y="54" type="curve"/>
      <point x="197" y="54"/>
      <point x="146" y="81"/>
      <point x="106" y="131" type="curve"/>
      <point x="48" y="85" type="line"/>
      <point x="93" y="23"/>
      <point x="168" y="-12"/>
    </contour>
  </outline>
</glyph>
<glyph name="uni0163" format="1">
  <advance width="600"/>
  <unicode hex="0163"/>
  <outline>
    <contour>
      <point x="277" y="-64" type="line"/>
      <point x="169" y="-64" type="line"/>
      <point x="114" y="-249" type="line"/>
      <point x="175" y="-249" type="line"/>
    </contour>
    <contour>
      <point x="239" y="-12" type="curve"/>
      <point x="280" y="-12"/>
      <point x="320" y="9"/>
      <point x="413" y="75" type="curve"/>
      <point x="526" y="155" type="line"/>
      <point x="487" y="205" type="line"/>
      <point x="262" y="55" type="line"/>
      <point x="242" y="67" type="line"/>
      <point x="306" y="449" type="line"/>
      <point x="519" y="449" type="line"/>
      <point x="530" y="516" type="line"/>
      <point x="317" y="516" type="line"/>
      <point x="348" y="698" type="line"/>
      <point x="274" y="698" type="line"/>
      <point x="251" y="563" type="line" smooth="yes"/>
      <point x="245" y="528"/>
      <point x="229" y="516"/>
      <point x="195" y="516" type="curve"/>
      <point x="90" y="516" type="line"/>
      <point x="79" y="449" type="line"/>
      <point x="228" y="449" type="line"/>
      <point x="168" y="101" type="line" smooth="yes"/>
      <point x="166" y="90"/>
      <point x="165" y="71"/>
      <point x="165" y="62" type="curve"/>
      <point x="165" y="14"/>
      <point x="192" y="-12"/>
    </contour>
  </outline>
</glyph>
<glyph name="utilde" format="1">
  <advance width="600"/>
  <unicode hex="0169"/>
  <outline>
    <contour>
      <point x="431" y="612" type="curve"/>
      <point x="473" y="612"/>
      <point x="508" y="638"/>
      <point x="530" y="664" type="curve"/>
      <point x="502" y="705" type="line"/>
      <point x="479" y="687"/>
      <point x="460" y="676"/>
      <point x="439" y="676" type="curve"/>
      <point x="420" y="676"/>
      <point x="398" y="685"/>
      <point x="375" y="699" type="curve"/>
      <point x="355" y="711"/>
      <point x="332" y="727"/>
      <point x="299" y="727" type="curve"/>
      <point x="257" y="727"/>
      <point x="222" y="701"/>
      <point x="200" y="675" type="curve"/>
      <point x="228" y="634" type="line"/>
      <point x="251" y="652"/>
      <point x="270" y="663"/>
      <point x="291" y="663" type="curve"/>
      <point x="310" y="663"/>
      <point x="332" y="654"/>
      <point x="355" y="640" type="curve"/>
      <point x="375" y="628"/>
      <point x="398" y="612"/>
    </contour>
    <contour>
      <point x="395" y="122" type="curve"/>
      <point x="399" y="122" type="line"/>
      <point x="379" y="0" type="line"/>
      <point x="457" y="0" type="line"/>
      <point x="543" y="516" type="line"/>
      <point x="465" y="516" type="line"/>
      <point x="417" y="231" type="line" smooth="yes"/>
      <point x="407" y="172"/>
      <point x="369" y="126"/>
      <point x="358" y="113" type="curve"/>
      <point x="329" y="79"/>
      <point x="294" y="57"/>
      <point x="249" y="57" type="curve"/>
      <point x="191" y="57"/>
      <point x="163" y="95"/>
      <point x="163" y="156" type="curve"/>
      <point x="163" y="167"/>
      <point x="164" y="187"/>
      <point x="168" y="211" type="curve"/>
      <point x="219" y="516" type="line"/>
      <point x="141" y="516" type="line"/>
      <point x="89" y="204" type="line" smooth="yes"/>
      <point x="85" y="181"/>
      <point x="83" y="157"/>
      <point x="83" y="137" type="curve"/>
      <point x="83" y="43"/>
      <point x="137" y="-12"/>
      <point x="223" y="-12" type="curve"/>
      <point x="306" y="-12"/>
      <point x="357" y="40"/>
    </contour>
  </outline>
</glyph>
<glyph name="Uring" format="1">
  <advance width="600"/>
  <unicode hex="016E"/>
  <outline>
    <contour>
      <point x="380" y="748" type="curve"/>
      <point x="448" y="748"/>
      <point x="509" y="804"/>
      <point x="509" y="875" type="curve"/>
      <point x="509" y="933"/>
      <point x="467" y="974"/>
      <point x="408" y="974" type="curve"/>
      <point x="340" y="974"/>
      <point x="279" y="918"/>
      <point x="279" y="847" type="curve"/>
      <point x="279" y="789"/>
      <point x="321" y="748"/>
    </contour>
    <contour>
      <point x="384" y="795" type="curve"/>
      <point x="351" y="795"/>
      <point x="334" y="812"/>
      <point x="334" y="839" type="curve"/>
      <point x="334" y="846"/>
      <point x="336" y="859"/>
      <point x="338" y="871" type="curve"/>
      <point x="344" y="907"/>
      <point x="370" y="927"/>
      <point x="404" y="927" type="curve"/>
      <point x="437" y="927"/>
      <point x="454" y="910"/>
      <point x="454" y="883" type="curve"/>
      <point x="454" y="876"/>
      <point x="452" y="863"/>
      <point x="450" y="851" type="curve"/>
      <point x="444" y="815"/>
      <point x="418" y="795"/>
    </contour>
    <contour>
      <point x="169" y="298" type="curve"/>
      <point x="236" y="698" type="line"/>
      <point x="154" y="698" type="line"/>
      <point x="91" y="323" type="line" smooth="yes"/>
      <point x="82" y="269"/>
      <point x="73" y="209"/>
      <point x="73" y="166" type="curve"/>
      <point x="73" y="52"/>
      <point x="126" y="-12"/>
      <point x="269" y="-12" type="curve"/>
      <point x="452" y="-12"/>
      <point x="489" y="84"/>
      <point x="524" y="291" type="curve"/>
      <point x="592" y="698" type="line"/>
      <point x="510" y="698" type="line"/>
      <point x="439" y="274" type="line" smooth="yes"/>
      <point x="416" y="137"/>
      <point x="398" y="60"/>
      <point x="266" y="60" type="curve"/>
      <point x="177" y="60"/>
      <point x="154" y="104"/>
      <point x="154" y="173" type="curve"/>
      <point x="154" y="198"/>
      <point x="157" y="226"/>
    </contour>
  </outline>
</glyph>
<glyph name="Ycircumflex" format="1">
  <advance width="600"/>
  <unicode hex="0176"/>
  <outline>
    <contour>
      <point x="540" y="788" type="line"/>
      <point x="453" y="935" type="line"/>
      <point x="355" y="935" type="line"/>
      <point x="222" y="794" type="line"/>
      <point x="261" y="761" type="line"/>
      <point x="398" y="878" type="line"/>
      <point x="494" y="761" type="line"/>
    </contour>
    <contour>
      <point x="262" y="272" type="line"/>
      <point x="216" y="0" type="line"/>
      <point x="298" y="0" type="line"/>
      <point x="345" y="279" type="line"/>
      <point x="656" y="698" type="line"/>
      <point x="558" y="698" type="line"/>
      <point x="427" y="515" type="line"/>
      <point x="312" y="354" type="line"/>
      <point x="308" y="354" type="line"/>
      <point x="249" y="515" type="line"/>
      <point x="178" y="698" type="line"/>
      <point x="90" y="698" type="line"/>
    </contour>
  </outline>
</glyph>
<glyph name="Ydieresis" format="1">
  <advance width="600"/>
  <unicode hex="0178"/>
  <outline>
    <contour>
      <point x="290" y="789" type="curve"/>
      <point x="330" y="789"/>
      <point x="342" y="806"/>
      <point x="349" y="832" type="curve"/>
      <point x="351" y="839"/>
      <point x="353" y="850"/>
      <point x="353" y="857" type="curve"/>
      <point x="353" y="876"/>
      <point x="340" y="893"/>
      <point x="301" y="893" type="curve"/>
      <point x="261" y="893"/>
      <point x="249" y="876"/>
      <point x="242" y="850" type="curve"/>
      <point x="240" y="843"/>
      <point x="238" y="832"/>
      <point x="238" y="825" type="curve"/>
      <point x="238" y="806"/>
      <point x="251" y="789"/>
    </contour>
    <contour>
      <point x="476" y="789" type="curve"/>
      <point x="516" y="789"/>
      <point x="528" y="806"/>
      <point x="535" y="832" type="curve"/>
      <point x="537" y="839"/>
      <point x="539" y="850"/>
      <point x="539" y="857" type="curve"/>
      <point x="539" y="876"/>
      <point x="526" y="893"/>
      <point x="487" y="893" type="curve"/>
      <point x="447" y="893"/>
      <point x="435" y="876"/>
      <point x="428" y="850" type="curve"/>
      <point x="426" y="843"/>
      <point x="424" y="832"/>
      <point x="424" y="825" type="curve"/>
      <point x="424" y="806"/>
      <point x="437" y="789"/>
    </contour>
    <contour>
      <point x="262" y="272" type="line"/>
      <point x="216" y="0" type="line"/>
      <point x="298" y="0" type="line"/>
      <point x="345" y="279" type="line"/>
      <point x="656" y="698" type="line"/>
      <point x="558" y="698" type="line"/>
      <point x="427" y="515" type="line"/>
      <point x="312" y="354" type="line"/>
      <point x="308" y="354" type="line"/>
      <point x="249" y="515" type="line"/>
      <point x="178" y="698" type="line"/>
      <point x="90" y="698" type="line"/>
    </contour>
  </outline>
</glyph>
<glyph name="florin" format="1">
  <advance width="600"/>
  <unicode hex="0192"/>
  <outline>
    <contour>
      <point x="139" y="-212" type="curve"/>
      <point x="188" y="-212"/>
      <point x="209" y="-178"/>
      <point x="225" y="-119" type="curve"/>
      <point x="357" y="371" type="line"/>
      <point x="556" y="371" type="line"/>
      <point x="567" y="438" type="line"/>
      <point x="375" y="438" type="line"/>
      <point x="428" y="631" type="line"/>
      <point x="624" y="631" type="line"/>
      <point x="635" y="698" type="line"/>
      <point x="480" y="698" type="line" smooth="yes"/>
      <point x="403" y="698"/>
      <point x="355" y="650"/>
      <point x="336" y="581" type="curve"/>
      <point x="297" y="438" type="line"/>
      <point x="128" y="438" type="line"/>
      <point x="117" y="371" type="line"/>
      <point x="279" y="371" type="line"/>
      <point x="142" y="-136" type="line"/>
      <point x="124" y="-144" type="line"/>
      <point x="-32" y="22" type="line"/>
      <point x="-84" y="-24" type="line"/>
      <point x="-2" y="-113" type="line" smooth="yes"/>
      <point x="65" y="-186"/>
      <point x="93" y="-212"/>
    </contour>
  </outline>
</glyph>
<glyph name="AEacute" format="1">
  <advance width="900"/>
  <unicode hex="01FC"/>
  <outline>
    <contour>
      <point x="532" y="783" type="line"/>
      <point x="579" y="755" type="line"/>
      <point x="708" y="910" type="line"/>
      <point x="640" y="949" type="line"/>
    </contour>
    <component base="AE"/>
  </outline>
</glyph>
<glyph name="aeacute" format="1">
  <advance width="900"/>
  <unicode hex="01FD"/>
  <outline>
    <contour>
      <point x="443" y="613" type="line"/>
      <point x="490" y="585" type="line"/>
      <point x="619" y="740" type="line"/>
      <point x="551" y="779" type="line"/>
    </contour>
    <component base="ae"/>
  </outline>
</glyph>
<glyph name="uni02BB" format="1">
  <advance width="600"/>
  <unicode hex="02BB"/>
  <outline>
    <contour>
      <point x="420" y="774" type="line"/>
      <point x="359" y="774" type="line"/>
      <point x="257" y="589" type="line"/>
      <point x="365" y="589" type="line"/>
    </contour>
  </outline>
</glyph>
<glyph name="uni02BC" format="1">
  <advance width="600"/>
  <unicode hex="02BC"/>
  <outline>
    <contour>
      <point x="162" y="553" type="line"/>
      <point x="220" y="553" type="line"/>
      <point x="300" y="740" type="line"/>
      <point x="198" y="740" type="line"/>
    </contour>
  </outline>
</glyph>
<glyph name="circumflex" format="1">
  <advance width="600"/>
  <unicode hex="02C6"/>
  <outline>
    <contour>
      <point x="476" y="618" type="line"/>
      <point x="389" y="765" type="line"/>
      <point x="291" y="765" type="line"/>
      <point x="158" y="624" type="line"/>
      <point x="197" y="591" type="line"/>
      <point x="334" y="708" type="line"/>
      <point x="430" y="591" type="line"/>
    </contour>
  </outline>
</glyph>
<glyph name="uni0301" format="1">
  <advance width="0"/>
  <unicode hex="0301"/>
  <outline>
    <contour>
      <point x="-27" y="613" type="line"/>
      <point x="20" y="585" type="line"/>
      <point x="149" y="740" type="line"/>
      <point x="81" y="779" type="line"/>
    </contour>
  </outline>
</glyph>
<glyph name="uni030A" format="1">
  <advance width="0"/>
  <unicode hex="030A"/>
  <outline>
    <contour>
      <point x="13" y="578" type="curve"/>
      <point x="81" y="578"/>
      <point x="142" y="634"/>
      <point x="142" y="705" type="curve"/>
      <point x="142" y="763"/>
      <point x="100" y="804"/>
      <point x="41" y="804" type="curve"/>
      <point x="-27" y="804"/>
      <point x="-88" y="748"/>
      <point x="-88" y="677" type="curve"/>
      <point x="-88" y="619"/>
      <point x="-46" y="578"/>
    </contour>
    <contour>
      <point x="17" y="625" type="curve"/>
      <point x="-16" y="625"/>
      <point x="-33" y="642"/>
      <point x="-33" y="669" type="curve"/>
      <point x="-33" y="676"/>
      <point x="-31" y="689"/>
      <point x="-29" y="701" type="curve"/>
      <point x="-23" y="737"/>
      <point x="3" y="757"/>
      <point x="37" y="757" type="curve"/>
      <point x="70" y="757"/>
      <point x="87" y="740"/>
      <point x="87" y="713" type="curve"/>
      <point x="87" y="706"/>
      <point x="85" y="693"/>
      <point x="83" y="681" type="curve"/>
      <point x="77" y="645"/>
      <point x="51" y="625"/>
    </contour>
  </outline>
</glyph>
<glyph name="uni0312" format="1">
  <advance width="0"/>
  <unicode hex="0312"/>
  <outline>
    <contour>
      <point x="120" y="774" type="line"/>
      <point x="59" y="774" type="line"/>
      <point x="-43" y="589" type="line"/>
      <point x="65" y="589" type="line"/>
    </contour>
  </outline>
</glyph>
<glyph name="uni031B" format="1">
  <advance width="0"/>
  <unicode hex="031B"/>
  <outline>
    <contour>
      <point x="72" y="526" type="curve"/>
      <point x="89" y="627" type="line"/>
      <point x="20" y="627" type="line"/>
      <point x="2" y="516" type="line"/>
      <point x="-80" y="516" type="line"/>
      <point x="-89" y="464" type="line"/>
      <point x="0" y="464" type="line" smooth="yes"/>
      <point x="49" y="464"/>
      <point x="66" y="492"/>
    </contour>
  </outline>
</glyph>
<glyph name="uni0323" format="1">
  <advance width="0"/>
  <unicode hex="0323"/>
  <outline>
    <contour>
      <point x="-25" y="-171" type="curve"/>
      <point x="15" y="-171"/>
      <point x="27" y="-153"/>
      <point x="34" y="-128" type="curve"/>
      <point x="36" y="-121"/>
      <point x="38" y="-109"/>
      <point x="38" y="-102" type="curve"/>
      <point x="38" y="-83"/>
      <point x="24" y="-66"/>
      <point x="-14" y="-66" type="curve"/>
      <point x="-54" y="-66"/>
      <point x="-66" y="-84"/>
      <point x="-73" y="-109" type="curve"/>
      <point x="-75" y="-116"/>
      <point x="-77" y="-128"/>
      <point x="-77" y="-135" type="curve"/>
      <point x="-77" y="-154"/>
      <point x="-63" y="-171"/>
    </contour>
  </outline>
</glyph>
<glyph name="uni0327" format="1">
  <advance width="0"/>
  <unicode hex="0327"/>
  <outline>
    <contour>
      <point x="-15" y="-207" type="curve"/>
      <point x="46" y="-207"/>
      <point x="100" y="-181"/>
      <point x="100" y="-119" type="curve"/>
      <point x="100" y="-80"/>
      <point x="78" y="-60"/>
      <point x="41" y="-60" type="curve"/>
      <point x="33" y="-60"/>
      <point x="18" y="-61"/>
      <point x="4" y="-64" type="curve"/>
      <point x="2" y="-61" type="line"/>
      <point x="31" y="20" type="line"/>
      <point x="-19" y="20" type="line"/>
      <point x="-54" y="-76" type="line"/>
      <point x="-25" y="-80" type="line" smooth="yes"/>
      <point x="26" y="-87"/>
      <point x="35" y="-105"/>
      <point x="35" y="-119" type="curve"/>
      <point x="35" y="-141"/>
      <point x="14" y="-153"/>
      <point x="-15" y="-153" type="curve"/>
      <point x="-44" y="-153"/>
      <point x="-61" y="-141"/>
      <point x="-71" y="-126" type="curve"/>
      <point x="-111" y="-166" type="line"/>
      <point x="-98" y="-187"/>
      <point x="-67" y="-207"/>
    </contour>
  </outline>
</glyph>
<glyph name="uni0328" format="1">
  <advance width="0"/>
  <unicode hex="0328"/>
  <outline>
    <contour>
      <point x="-91" y="-207" type="curve"/>
      <point x="-44" y="-207"/>
      <point x="-11" y="-189"/>
      <point x="7" y="-170" type="curve"/>
      <point x="-31" y="-127" type="line"/>
      <point x="-50" y="-144"/>
      <point x="-70" y="-153"/>
      <point x="-87" y="-153" type="curve"/>
      <point x="-105" y="-153"/>
      <point x="-121" y="-144"/>
      <point x="-121" y="-122" type="curve"/>
      <point x="-121" y="-101"/>
      <point x="-107" y="-70"/>
      <point x="0" y="0" type="curve"/>
      <point x="-12" y="18" type="line"/>
      <point x="-65" y="12" type="line"/>
      <point x="-62" y="-5" type="line"/>
      <point x="-139" y="-39"/>
      <point x="-189" y="-77"/>
      <point x="-189" y="-132" type="curve"/>
      <point x="-189" y="-186"/>
      <point x="-142" y="-207"/>
    </contour>
  </outline>
</glyph>
<glyph name="dieresistonos" format="1">
  <advance width="600"/>
  <unicode hex="0385"/>
  <note>
    dieresistonos
  </note>
  <outline>
    <contour>
      <point x="315" y="597" type="line"/>
      <point x="358" y="585" type="line"/>
      <point x="442" y="762" type="line"/>
      <point x="378" y="780" type="line"/>
    </contour>
    <contour>
      <point x="250" y="618" type="curve"/>
      <point x="277" y="618"/>
      <point x="296" y="635"/>
      <point x="301" y="665" type="curve"/>
      <point x="303" y="676"/>
      <point x="304" y="681"/>
      <point x="304" y="686" type="curve"/>
      <point x="304" y="709"/>
      <point x="287" y="721"/>
      <point x="267" y="721" type="curve"/>
      <point x="240" y="721"/>
      <point x="221" y="704"/>
      <point x="216" y="674" type="curve"/>
      <point x="214" y="663"/>
      <point x="213" y="658"/>
      <point x="213" y="653" type="curve"/>
      <point x="213" y="630"/>
      <point x="230" y="618"/>
    </contour>
    <contour>
      <point x="472" y="618" type="curve"/>
      <point x="499" y="618"/>
      <point x="518" y="635"/>
      <point x="523" y="665" type="curve"/>
      <point x="525" y="676"/>
      <point x="526" y="681"/>
      <point x="526" y="686" type="curve"/>
      <point x="526" y="709"/>
      <point x="509" y="721"/>
      <point x="489" y="721" type="curve"/>
      <point x="462" y="721"/>
      <point x="443" y="704"/>
      <point x="438" y="674" type="curve"/>
      <point x="436" y="663"/>
      <point x="435" y="658"/>
      <point x="435" y="653" type="curve"/>
      <point x="435" y="630"/>
      <point x="452" y="618"/>
    </contour>
  </outline>
</glyph>
<glyph name="anoteleia" format="1">
  <advance width="600"/>
  <unicode hex="0387"/>
  <note>
    anoteleia
  </note>
  <outline>
    <contour>
      <point x="318" y="394" type="curve"/>
      <point x="363" y="394"/>
      <point x="378" y="422"/>
      <point x="383" y="449" type="curve"/>
      <point x="385" y="459"/>
      <point x="387" y="474"/>
      <point x="387" y="483" type="curve"/>
      <point x="387" y="509"/>
      <point x="368" y="523"/>
      <point x="336" y="523" type="curve"/>
      <point x="291" y="523"/>
      <point x="276" y="495"/>
      <point x="271" y="468" type="curve"/>
      <point x="269" y="458"/>
      <point x="267" y="443"/>
      <point x="267" y="434" type="curve"/>
      <point x="267" y="408"/>
      <point x="286" y="394"/>
    </contour>
  </outline>
</glyph>
<glyph name="Theta" format="1">
  <advance width="600"/>
  <unicode hex="0398"/>
  <note>
    Theta
  </note>
  <outline>
    <contour>
      <point x="188" y="390" type="line"/>
      <point x="173" y="318" type="line"/>
      <point x="441" y="318" type="line"/>
      <point x="456" y="390" type="line"/>
    </contour>
    <component base="O"/>
  </outline>
</glyph>
<glyph name="Iota" format="1">
  <advance width="300"/>
  <unicode hex="0399"/>
  <note>
    Iota
  </note>
  <outline>
    <contour>
      <point x="195" y="698" type="line"/>
      <point x="56" y="0" type="line"/>
      <point x="137" y="0" type="line"/>
      <point x="276" y="698" type="line"/>
    </contour>
    <contour>
      <point x="327" y="702" type="move" name="top"/>
    </contour>
  </outline>
</glyph>
<glyph name="Lambda" format="1">
  <advance width="600"/>
  <unicode hex="039B"/>
  <note>
    Lambda
  </note>
  <outline>
    <contour>
      <point x="537" y="0" type="line"/>
      <point x="448" y="698" type="line"/>
      <point x="341" y="698" type="line"/>
      <point x="-27" y="0" type="line"/>
      <point x="59" y="0" type="line"/>
      <point x="239" y="350" type="line"/>
      <point x="377" y="621" type="line"/>
      <point x="382" y="621" type="line"/>
      <point x="414" y="350" type="line"/>
      <point x="454" y="0" type="line"/>
    </contour>
  </outline>
</glyph>
<glyph name="Sigma" format="1">
  <advance width="600"/>
  <unicode hex="03A3"/>
  <note>
    Sigma
  </note>
  <outline>
    <contour>
      <point x="37" y="78" type="line"/>
      <point x="21" y="0" type="line"/>
      <point x="477" y="0" type="line"/>
      <point x="491" y="72" type="line"/>
      <point x="133" y="72" type="line"/>
      <point x="421" y="349" type="line"/>
      <point x="240" y="626" type="line"/>
      <point x="585" y="626" type="line"/>
      <point x="600" y="698" type="line"/>
      <point x="167" y="698" type="line"/>
      <point x="151" y="620" type="line"/>
      <point x="324" y="354" type="line"/>
    </contour>
  </outline>
</glyph>
<glyph name="Psi" format="1">
  <advance width="900"/>
  <unicode hex="03A8"/>
  <note>
    Psi
  </note>
  <outline>
    <contour>
      <point x="388" y="204" type="curve"/>
      <point x="347" y="0" type="line"/>
      <point x="428" y="0" type="line"/>
      <point x="469" y="204" type="line"/>
      <point x="685" y="204"/>
      <point x="793" y="294"/>
      <point x="832" y="489" type="curve"/>
      <point x="874" y="698" type="line"/>
      <point x="793" y="698" type="line"/>
      <point x="754" y="507" type="line" smooth="yes"/>
      <point x="718" y="333"/>
      <point x="651" y="272"/>
      <point x="483" y="272" type="curve"/>
      <point x="568" y="698" type="line"/>
      <point x="487" y="698" type="line"/>
      <point x="402" y="272" type="line"/>
      <point x="260" y="272"/>
      <point x="211" y="317"/>
      <point x="211" y="408" type="curve"/>
      <point x="211" y="431"/>
      <point x="215" y="465"/>
      <point x="225" y="515" type="curve"/>
      <point x="262" y="698" type="line"/>
      <point x="181" y="698" type="line"/>
      <point x="148" y="535" type="line" smooth="yes"/>
      <point x="138" y="485"/>
      <point x="132" y="442"/>
      <point x="132" y="400" type="curve"/>
      <point x="132" y="296"/>
      <point x="198" y="204"/>
    </contour>
  </outline>
</glyph>
<glyph name="uni03A9" format="1">
  <advance width="600"/>
  <unicode hex="03A9"/>
  <note>
    uni03A9
  </note>
  <outline>
    <contour>
      <point x="148" y="72" type="line"/>
      <point x="-8" y="72" type="line"/>
      <point x="-23" y="0" type="line"/>
      <point x="202" y="0" type="line"/>
      <point x="225" y="111" type="line"/>
      <point x="176" y="131"/>
      <point x="140" y="193"/>
      <point x="140" y="269" type="curve"/>
      <point x="140" y="284"/>
      <point x="140" y="303"/>
      <point x="143" y="318" type="curve"/>
      <point x="162" y="413" type="line" smooth="yes"/>
      <point x="190" y="551"/>
      <point x="275" y="637"/>
      <point x="378" y="637" type="curve"/>
      <point x="462" y="637"/>
      <point x="521" y="567"/>
      <point x="521" y="474" type="curve"/>
      <point x="521" y="444"/>
      <point x="519" y="425"/>
      <point x="515" y="405" type="curve"/>
      <point x="493" y="296" type="line" smooth="yes"/>
      <point x="474" y="204"/>
      <point x="409" y="140"/>
      <point x="331" y="111" type="curve"/>
      <point x="308" y="0" type="line"/>
      <point x="533" y="0" type="line"/>
      <point x="548" y="72" type="line"/>
      <point x="391" y="72" type="line"/>
      <point x="394" y="84" type="line"/>
      <point x="551" y="144"/>
      <point x="601" y="313"/>
      <point x="601" y="450" type="curve"/>
      <point x="601" y="615"/>
      <point x="502" y="710"/>
      <point x="386" y="710" type="curve"/>
      <point x="209" y="710"/>
      <point x="60" y="527"/>
      <point x="60" y="303" type="curve"/>
      <point x="60" y="211"/>
      <point x="89" y="125"/>
      <point x="151" y="84" type="curve"/>
    </contour>
  </outline>
</glyph>
<glyph name="epsilon" format="1">
  <advance width="600"/>
  <unicode hex="03B5"/>
  <note>
    epsilon
  </note>
  <outline>
    <contour>
      <point x="471" y="83" type="curve"/>
      <point x="424" y="130" type="line"/>
      <point x="372" y="74"/>
      <point x="316" y="56"/>
      <point x="246" y="56" type="curve"/>
      <point x="170" y="56"/>
      <point x="133" y="83"/>
      <point x="133" y="127" type="curve"/>
      <point x="133" y="137"/>
      <point x="134" y="144"/>
      <point x="136" y="154" type="curve"/>
      <point x="146" y="204"/>
      <point x="192" y="234"/>
      <point x="266" y="234" type="curve"/>
      <point x="384" y="234" type="line"/>
      <point x="397" y="299" type="line"/>
      <point x="289" y="299" type="line" smooth="yes"/>
      <point x="222" y="299"/>
      <point x="191" y="323"/>
      <point x="191" y="358" type="curve"/>
      <point x="191" y="368"/>
      <point x="192" y="376"/>
      <point x="193" y="383" type="curve"/>
      <point x="201" y="427"/>
      <point x="244" y="460"/>
      <point x="328" y="460" type="curve"/>
      <point x="396" y="460"/>
      <point x="434" y="443"/>
      <point x="466" y="405" type="curve"/>
      <point x="519" y="452" type="line"/>
      <point x="473" y="504"/>
      <point x="424" y="528"/>
      <point x="334" y="528" type="curve"/>
      <point x="190" y="528"/>
      <point x="116" y="446"/>
      <point x="116" y="366" type="curve"/>
      <point x="116" y="316"/>
      <point x="147" y="281"/>
      <point x="205" y="271" type="curve"/>
      <point x="204" y="267" type="line"/>
      <point x="108" y="255"/>
      <point x="58" y="197"/>
      <point x="58" y="123" type="curve"/>
      <point x="58" y="45"/>
      <point x="121" y="-12"/>
      <point x="241" y="-12" type="curve"/>
      <point x="333" y="-12"/>
      <point x="403" y="11"/>
    </contour>
    <contour>
      <point x="337" y="522" type="move" name="top"/>
    </contour>
  </outline>
</glyph>
<glyph name="zeta" format="1">
  <advance width="600"/>
  <unicode hex="03B6"/>
  <note>
    zeta
  </note>
  <outline>
    <contour>
      <point x="579" y="740" type="line"/>
      <point x="179" y="740" type="line"/>
      <point x="166" y="672" type="line"/>
      <point x="339" y="672" type="line"/>
      <point x="475" y="677" type="line"/>
      <point x="474" y="672" type="line"/>
      <point x="253" y="501" type="line" smooth="yes"/>
      <point x="97" y="380"/>
      <point x="69" y="275"/>
      <point x="69" y="184" type="curve"/>
      <point x="69" y="98"/>
      <point x="116" y="25"/>
      <point x="222" y="7" type="curve"/>
      <point x="343" y="-13" type="line"/>
      <point x="286" y="-140" type="line"/>
      <point x="353" y="-168" type="line"/>
      <point x="404" y="-54" type="line" smooth="yes"/>
      <point x="414" y="-32"/>
      <point x="418" y="-16"/>
      <point x="418" y="0" type="curve"/>
      <point x="418" y="31"/>
      <point x="403" y="54"/>
      <point x="367" y="60" type="curve"/>
      <point x="239" y="82" type="line" smooth="yes"/>
      <point x="176" y="93"/>
      <point x="146" y="134"/>
      <point x="146" y="184" type="curve"/>
      <point x="146" y="258"/>
      <point x="170" y="345"/>
      <point x="301" y="454" type="curve"/>
      <point x="566" y="674" type="line"/>
    </contour>
  </outline>
</glyph>
<glyph name="uni03BC" format="1">
  <advance width="600"/>
  <unicode hex="03BC"/>
  <note>
    uni03BC
  </note>
  <outline>
    <contour>
      <point x="140" y="516" type="line"/>
      <point x="-4" y="-200" type="line"/>
      <point x="73" y="-200" type="line"/>
      <point x="103" y="-52" type="line"/>
      <point x="110" y="102" type="line"/>
      <point x="115" y="102" type="line"/>
      <point x="121" y="32"/>
      <point x="149" y="-12"/>
      <point x="218" y="-12" type="curve"/>
      <point x="280" y="-12"/>
      <point x="320" y="24"/>
      <point x="356" y="102" type="curve"/>
      <point x="361" y="102" type="line"/>
      <point x="359" y="92" type="line" smooth="yes"/>
      <point x="356" y="78"/>
      <point x="355" y="70"/>
      <point x="355" y="63" type="curve"/>
      <point x="355" y="26"/>
      <point x="377" y="0"/>
      <point x="422" y="0" type="curve"/>
      <point x="491" y="0" type="line"/>
      <point x="504" y="68" type="line"/>
      <point x="431" y="68" type="line"/>
      <point x="521" y="516" type="line"/>
      <point x="444" y="516" type="line"/>
      <point x="386" y="228" type="line" smooth="yes"/>
      <point x="378" y="189"/>
      <point x="355" y="137"/>
      <point x="318" y="99" type="curve"/>
      <point x="291" y="71"/>
      <point x="261" y="58"/>
      <point x="225" y="58" type="curve"/>
      <point x="170" y="58"/>
      <point x="148" y="88"/>
      <point x="148" y="145" type="curve"/>
      <point x="148" y="157"/>
      <point x="149" y="178"/>
      <point x="153" y="198" type="curve"/>
      <point x="217" y="516" type="line"/>
    </contour>
  </outline>
</glyph>
<glyph name="nu" format="1">
  <advance width="600"/>
  <unicode hex="03BD"/>
  <note>
    nu
  </note>
  <outline>
    <contour>
      <point x="138" y="448" type="line"/>
      <point x="195" y="0" type="line"/>
      <point x="278" y="0" type="line"/>
      <point x="434" y="212"/>
      <point x="516" y="376"/>
      <point x="558" y="516" type="curve"/>
      <point x="480" y="516" type="line"/>
      <point x="438" y="376"/>
      <point x="359" y="227"/>
      <point x="255" y="77" type="curve"/>
      <point x="250" y="77" type="line"/>
      <point x="236" y="261" type="line"/>
      <point x="211" y="456" type="line" smooth="yes"/>
      <point x="206" y="497"/>
      <point x="185" y="516"/>
      <point x="141" y="516" type="curve"/>
      <point x="98" y="516" type="line"/>
      <point x="85" y="448" type="line"/>
    </contour>
  </outline>
</glyph>
<glyph name="uni03C2" format="1">
  <advance width="600"/>
  <unicode hex="03C2"/>
  <note>
    sigma1
  </note>
  <outline>
    <contour>
      <point x="254" y="7" type="curve"/>
      <point x="325" y="-13" type="line"/>
      <point x="268" y="-140" type="line"/>
      <point x="335" y="-168" type="line"/>
      <point x="386" y="-54" type="line" smooth="yes"/>
      <point x="396" y="-32"/>
      <point x="400" y="-16"/>
      <point x="400" y="0" type="curve"/>
      <point x="400" y="31"/>
      <point x="385" y="50"/>
      <point x="349" y="60" type="curve"/>
      <point x="271" y="82" type="line" smooth="yes"/>
      <point x="199" y="102"/>
      <point x="166" y="135"/>
      <point x="166" y="209" type="curve"/>
      <point x="166" y="229"/>
      <point x="176" y="277"/>
      <point x="183" y="312" type="curve"/>
      <point x="201" y="403"/>
      <point x="255" y="459"/>
      <point x="336" y="459" type="curve"/>
      <point x="393" y="459"/>
      <point x="428" y="432"/>
      <point x="445" y="378" type="curve"/>
      <point x="509" y="407" type="line"/>
      <point x="489" y="477"/>
      <point x="429" y="528"/>
      <point x="338" y="528" type="curve"/>
      <point x="178" y="528"/>
      <point x="89" y="373"/>
      <point x="89" y="217" type="curve"/>
      <point x="89" y="97"/>
      <point x="140" y="39"/>
    </contour>
  </outline>
</glyph>
<glyph name="sigma" format="1">
  <advance width="600"/>
  <unicode hex="03C3"/>
  <note>
    sigma
  </note>
  <outline>
    <contour>
      <point x="454" y="441" type="curve"/>
      <point x="456" y="448" type="line"/>
      <point x="581" y="448" type="line"/>
      <point x="594" y="516" type="line"/>
      <point x="323" y="516" type="line" smooth="yes"/>
      <point x="165" y="516"/>
      <point x="59" y="362"/>
      <point x="59" y="200" type="curve"/>
      <point x="59" y="60"/>
      <point x="137" y="-12"/>
      <point x="245" y="-12" type="curve"/>
      <point x="403" y="-12"/>
      <point x="509" y="143"/>
      <point x="509" y="304" type="curve"/>
      <point x="509" y="366"/>
      <point x="490" y="411"/>
    </contour>
    <contour>
      <point x="323" y="448" type="curve"/>
      <point x="398" y="448" type="line"/>
      <point x="424" y="418"/>
      <point x="433" y="386"/>
      <point x="433" y="326" type="curve"/>
      <point x="433" y="311"/>
      <point x="431" y="296"/>
      <point x="428" y="281" type="curve"/>
      <point x="415" y="218" type="line" smooth="yes"/>
      <point x="393" y="113"/>
      <point x="329" y="57"/>
      <point x="255" y="57" type="curve"/>
      <point x="177" y="57"/>
      <point x="135" y="106"/>
      <point x="135" y="178" type="curve"/>
      <point x="135" y="193"/>
      <point x="137" y="208"/>
      <point x="140" y="223" type="curve"/>
      <point x="153" y="286" type="line" smooth="yes"/>
      <point x="175" y="391"/>
      <point x="239" y="448"/>
    </contour>
  </outline>
</glyph>
<glyph name="upsilon" format="1">
  <advance width="600"/>
  <unicode hex="03C5"/>
  <note>
    upsilon
  </note>
  <outline>
    <contour>
      <point x="167" y="247" type="curve"/>
      <point x="221" y="516" type="line"/>
      <point x="144" y="516" type="line"/>
      <point x="92" y="257" type="line" smooth="yes"/>
      <point x="84" y="217"/>
      <point x="80" y="185"/>
      <point x="80" y="159" type="curve"/>
      <point x="80" y="55"/>
      <point x="142" y="-12"/>
      <point x="246" y="-12" type="curve"/>
      <point x="370" y="-12"/>
      <point x="443" y="58"/>
      <point x="479" y="234" type="curve"/>
      <point x="536" y="516" type="line"/>
      <point x="459" y="516" type="line"/>
      <point x="404" y="240" type="line" smooth="yes"/>
      <point x="374" y="92"/>
      <point x="332" y="57"/>
      <point x="256" y="57" type="curve"/>
      <point x="190" y="57"/>
      <point x="156" y="85"/>
      <point x="156" y="151" type="curve"/>
      <point x="156" y="185"/>
      <point x="161" y="215"/>
    </contour>
    <contour>
      <point x="337" y="522" type="move" name="top"/>
    </contour>
  </outline>
</glyph>
<glyph name="uni0400" format="1">
  <advance width="600"/>
  <unicode hex="0400"/>
  <note>
    uni0400
  </note>
  <outline>
    <contour>
      <point x="382" y="949" type="line"/>
      <point x="309" y="918" type="line"/>
      <point x="383" y="755" type="line"/>
      <point x="434" y="775" type="line"/>
    </contour>
    <contour>
      <point x="164" y="698" type="line"/>
      <point x="47" y="0" type="line"/>
      <point x="477" y="0" type="line"/>
      <point x="489" y="72" type="line"/>
      <point x="141" y="72" type="line"/>
      <point x="182" y="318" type="line"/>
      <point x="517" y="318" type="line"/>
      <point x="529" y="390" type="line"/>
      <point x="194" y="390" type="line"/>
      <point x="234" y="626" type="line"/>
      <point x="580" y="626" type="line"/>
      <point x="592" y="698" type="line"/>
    </contour>
  </outline>
</glyph>
<glyph name="uni0403" format="1">
  <advance width="600"/>
  <unicode hex="0403"/>
  <note>
    uni0403
  </note>
  <outline>
    <contour>
      <point x="375" y="783" type="line"/>
      <point x="422" y="755" type="line"/>
      <point x="551" y="910" type="line"/>
      <point x="483" y="949" type="line"/>
    </contour>
    <contour>
      <point x="596" y="698" type="line"/>
      <point x="207" y="698" type="line"/>
      <point x="90" y="0" type="line"/>
      <point x="172" y="0" type="line"/>
      <point x="277" y="626" type="line"/>
      <point x="584" y="626" type="line"/>
    </contour>
  </outline>
</glyph>
<glyph name="uni040D" format="1">
  <advance width="600"/>
  <unicode hex="040D"/>
  <note>
    uni040D
  </note>
  <outline>
    <contour>
      <point x="369" y="949" type="line"/>
      <point x="296" y="918" type="line"/>
      <point x="370" y="755" type="line"/>
      <point x="421" y="775" type="line"/>
    </contour>
    <contour>
      <point x="238" y="698" type="line"/>
      <point x="156" y="698" type="line"/>
      <point x="39" y="0" type="line"/>
      <point x="118" y="0" type="line"/>
      <point x="382" y="388" type="line"/>
      <point x="495" y="554" type="line"/>
      <point x="501" y="554" type="line"/>
      <point x="450" y="341" type="line"/>
      <point x="393" y="0" type="line"/>
      <point x="475" y="0" type="line"/>
      <point x="592" y="698" type="line"/>
      <point x="513" y="698" type="line"/>
      <point x="256" y="320" type="line"/>
      <point x="136" y="144" type="line"/>
      <point x="130" y="144" type="line"/>
      <point x="181" y="357" type="line"/>
    </contour>
  </outline>
</glyph>
<glyph name="uni040F" format="1">
  <advance width="600"/>
  <unicode hex="040F"/>
  <note>
    uni040F
  </note>
  <outline>
    <contour>
      <point x="42" y="0" type="line"/>
      <point x="218" y="0" type="line"/>
      <point x="193" y="-150" type="line"/>
      <point x="270" y="-150" type="line"/>
      <point x="295" y="0" type="line"/>
      <point x="472" y="0" type="line"/>
      <point x="589" y="698" type="line"/>
      <point x="507" y="698" type="line"/>
      <point x="402" y="72" type="line"/>
      <point x="136" y="72" type="line"/>
      <point x="241" y="698" type="line"/>
      <point x="159" y="698" type="line"/>
    </contour>
  </outline>
</glyph>
<glyph name="uni0412" format="1">
  <advance width="600"/>
  <unicode hex="0412"/>
  <note>
    uni0412
  </note>
  <outline>
    <contour>
      <point x="388" y="698" type="curve"/>
      <point x="163" y="698" type="line"/>
      <point x="46" y="0" type="line"/>
      <point x="313" y="0" type="line" smooth="yes"/>
      <point x="442" y="0"/>
      <point x="531" y="106"/>
      <point x="531" y="222" type="curve"/>
      <point x="531" y="305"/>
      <point x="485" y="343"/>
      <point x="423" y="362" type="curve"/>
      <point x="424" y="366" type="line"/>
      <point x="501" y="387"/>
      <point x="556" y="445"/>
      <point x="556" y="537" type="curve"/>
      <point x="556" y="635"/>
      <point x="497" y="698"/>
    </contour>
    <contour>
      <point x="296" y="72" type="curve"/>
      <point x="139" y="72" type="line"/>
      <point x="182" y="327" type="line"/>
      <point x="338" y="327" type="line" smooth="yes"/>
      <point x="407" y="327"/>
      <point x="447" y="296"/>
      <point x="447" y="245" type="curve"/>
      <point x="447" y="232"/>
      <point x="445" y="220"/>
      <point x="443" y="208" type="curve"/>
      <point x="438" y="178" type="line" smooth="yes"/>
      <point x="426" y="106"/>
      <point x="376" y="72"/>
    </contour>
    <contour>
      <point x="336" y="395" type="curve"/>
      <point x="193" y="395" type="line"/>
      <point x="231" y="626" type="line"/>
      <point x="374" y="626" type="line" smooth="yes"/>
      <point x="434" y="626"/>
      <point x="472" y="604"/>
      <point x="472" y="551" type="curve"/>
      <point x="472" y="541"/>
      <point x="471" y="531"/>
      <point x="469" y="519" type="curve"/>
      <point x="464" y="489" type="line" smooth="yes"/>
      <point x="454" y="429"/>
      <point x="411" y="395"/>
    </contour>
  </outline>
</glyph>
<glyph name="uni0415" format="1">
  <advance width="600"/>
  <unicode hex="0415"/>
  <note>
    uni0415
  </note>
  <outline>
    <contour>
      <point x="164" y="698" type="line"/>
      <point x="47" y="0" type="line"/>
      <point x="477" y="0" type="line"/>
      <point x="489" y="72" type="line"/>
      <point x="141" y="72" type="line"/>
      <point x="182" y="318" type="line"/>
      <point x="517" y="318" type="line"/>
      <point x="529" y="390" type="line"/>
      <point x="194" y="390" type="line"/>
      <point x="234" y="626" type="line"/>
      <point x="580" y="626" type="line"/>
      <point x="592" y="698" type="line"/>
    </contour>
  </outline>
</glyph>
<glyph name="uni0419" format="1">
  <advance width="600"/>
  <unicode hex="0419"/>
  <note>
    uni0419
  </note>
  <outline>
    <contour>
      <point x="379" y="765" type="curve"/>
      <point x="440" y="765"/>
      <point x="488" y="792"/>
      <point x="530" y="858" type="curve"/>
      <point x="566" y="915" type="line"/>
      <point x="496" y="938" type="line"/>
      <point x="438" y="832" type="line"/>
      <point x="423" y="827"/>
      <point x="400" y="826"/>
      <point x="381" y="826" type="curve"/>
      <point x="368" y="826"/>
      <point x="341" y="827"/>
      <point x="328" y="832" type="curve"/>
      <point x="306" y="938" type="line"/>
      <point x="232" y="915" type="line"/>
      <point x="252" y="858" type="line" smooth="yes"/>
      <point x="273" y="798"/>
      <point x="308" y="765"/>
    </contour>
    <contour>
      <point x="238" y="698" type="line"/>
      <point x="156" y="698" type="line"/>
      <point x="39" y="0" type="line"/>
      <point x="118" y="0" type="line"/>
      <point x="382" y="388" type="line"/>
      <point x="495" y="554" type="line"/>
      <point x="501" y="554" type="line"/>
      <point x="450" y="341" type="line"/>
      <point x="393" y="0" type="line"/>
      <point x="475" y="0" type="line"/>
      <point x="592" y="698" type="line"/>
      <point x="513" y="698" type="line"/>
      <point x="256" y="320" type="line"/>
      <point x="136" y="144" type="line"/>
      <point x="130" y="144" type="line"/>
      <point x="181" y="357" type="line"/>
    </contour>
  </outline>
</glyph>
<glyph name="uni041A" format="1">
  <advance width="600"/>
  <unicode hex="041A"/>
  <note>
    uni041A
  </note>
  <outline>
    <contour>
      <point x="247" y="698" type="line"/>
      <point x="165" y="698" type="line"/>
      <point x="48" y="0" type="line"/>
      <point x="130" y="0" type="line"/>
      <point x="183" y="318" type="line"/>
      <point x="300" y="318" type="line"/>
      <point x="374" y="74" type="line" smooth="yes"/>
      <point x="390" y="22"/>
      <point x="415" y="0"/>
      <point x="458" y="0" type="curve"/>
      <point x="512" y="0" type="line"/>
      <point x="524" y="72" type="line"/>
      <point x="460" y="72" type="line"/>
      <point x="398" y="275" type="line" smooth="yes"/>
      <point x="380" y="333"/>
      <point x="368" y="346"/>
      <point x="344" y="352" type="curve"/>
      <point x="345" y="357" type="line"/>
      <point x="371" y="361"/>
      <point x="390" y="374"/>
      <point x="416" y="414" type="curve"/>
      <point x="592" y="698" type="line"/>
      <point x="503" y="698" type="line"/>
      <point x="312" y="390" type="line"/>
      <point x="195" y="390" type="line"/>
    </contour>
  </outline>
</glyph>
<glyph name="uni041B" format="1">
  <advance width="600"/>
  <unicode hex="041B"/>
  <note>
    uni041B
  </note>
  <outline>
    <contour>
      <point x="46" y="72" type="curve"/>
      <point x="-20" y="72" type="line"/>
      <point x="-31" y="0" type="line"/>
      <point x="-5" y="0" type="line" smooth="yes"/>
      <point x="45" y="0"/>
      <point x="81" y="9"/>
      <point x="128" y="56" type="curve"/>
      <point x="181" y="109"/>
      <point x="229" y="209"/>
      <point x="275" y="498" type="curve"/>
      <point x="297" y="625" type="line"/>
      <point x="497" y="625" type="line"/>
      <point x="392" y="0" type="line"/>
      <point x="474" y="0" type="line"/>
      <point x="591" y="698" type="line"/>
      <point x="229" y="698" type="line"/>
      <point x="197" y="505" type="line" smooth="yes"/>
      <point x="151" y="225"/>
      <point x="116" y="132"/>
    </contour>
  </outline>
</glyph>
<glyph name="uni041F" format="1">
  <advance width="600"/>
  <unicode hex="041F"/>
  <note>
    uni041F
  </note>
  <outline>
    <contour>
      <point x="589" y="698" type="line"/>
      <point x="159" y="698" type="line"/>
      <point x="42" y="0" type="line"/>
      <point x="124" y="0" type="line"/>
      <point x="229" y="626" type="line"/>
      <point x="495" y="626" type="line"/>
      <point x="390" y="0" type="line"/>
      <point x="472" y="0" type="line"/>
    </contour>
  </outline>
</glyph>
<glyph name="uni0422" format="1">
  <advance width="600"/>
  <unicode hex="0422"/>
  <note>
    uni0422
  </note>
  <outline>
    <contour>
      <point x="298" y="0" type="line"/>
      <point x="403" y="626" type="line"/>
      <point x="637" y="626" type="line"/>
      <point x="649" y="698" type="line"/>
      <point x="99" y="698" type="line"/>
      <point x="87" y="626" type="line"/>
      <point x="321" y="626" type="line"/>
      <point x="216" y="0" type="line"/>
    </contour>
  </outline>
</glyph>
<glyph name="uni0424" format="1">
  <advance width="600"/>
  <unicode hex="0424"/>
  <note>
    uni0424
  </note>
  <outline>
    <contour>
      <point x="227" y="61" type="curve"/>
      <point x="212" y="-29" type="line"/>
      <point x="291" y="-29" type="line"/>
      <point x="306" y="61" type="line"/>
      <point x="478" y="67"/>
      <point x="589" y="223"/>
      <point x="589" y="423" type="curve"/>
      <point x="589" y="540"/>
      <point x="534" y="627"/>
      <point x="402" y="635" type="curve"/>
      <point x="417" y="725" type="line"/>
      <point x="338" y="725" type="line"/>
      <point x="323" y="635" type="line"/>
      <point x="151" y="629"/>
      <point x="40" y="473"/>
      <point x="40" y="273" type="curve"/>
      <point x="40" y="156"/>
      <point x="95" y="69"/>
    </contour>
    <contour>
      <point x="313" y="565" type="curve"/>
      <point x="241" y="131" type="line"/>
      <point x="157" y="139"/>
      <point x="118" y="189"/>
      <point x="118" y="273" type="curve"/>
      <point x="118" y="289"/>
      <point x="120" y="311"/>
      <point x="123" y="329" type="curve"/>
      <point x="131" y="377" type="line" smooth="yes"/>
      <point x="148" y="478"/>
      <point x="213" y="559"/>
    </contour>
    <contour>
      <point x="316" y="131" type="curve"/>
      <point x="388" y="565" type="line"/>
      <point x="472" y="557"/>
      <point x="511" y="507"/>
      <point x="511" y="423" type="curve"/>
      <point x="511" y="407"/>
      <point x="509" y="385"/>
      <point x="506" y="367" type="curve"/>
      <point x="498" y="319" type="line" smooth="yes"/>
      <point x="481" y="218"/>
      <point x="416" y="137"/>
    </contour>
  </outline>
</glyph>
<glyph name="uni0426" format="1">
  <advance width="600"/>
  <unicode hex="0426"/>
  <note>
    uni0426
  </note>
  <outline>
    <contour>
      <point x="433" y="-190" type="curve"/>
      <point x="477" y="-190"/>
      <point x="505" y="-169"/>
      <point x="519" y="-85" type="curve"/>
      <point x="545" y="72" type="line"/>
      <point x="458" y="72" type="line"/>
      <point x="563" y="698" type="line"/>
      <point x="481" y="698" type="line"/>
      <point x="376" y="72" type="line"/>
      <point x="133" y="72" type="line"/>
      <point x="238" y="698" type="line"/>
      <point x="156" y="698" type="line"/>
      <point x="39" y="0" type="line"/>
      <point x="478" y="0" type="line"/>
      <point x="443" y="-122" type="line"/>
      <point x="438" y="-126" type="line"/>
      <point x="306" y="-85" type="line" smooth="yes"/>
      <point x="270" y="-73"/>
      <point x="259" y="-71"/>
      <point x="241" y="-71" type="curve"/>
      <point x="199" y="-71"/>
      <point x="167" y="-99"/>
      <point x="159" y="-149" type="curve"/>
      <point x="153" y="-186" type="line"/>
      <point x="232" y="-186" type="line"/>
      <point x="241" y="-129" type="line"/>
      <point x="246" y="-125" type="line"/>
      <point x="342" y="-175"/>
      <point x="391" y="-190"/>
    </contour>
  </outline>
</glyph>
<glyph name="uni042C" format="1">
  <advance width="600"/>
  <unicode hex="042C"/>
  <note>
    uni042C
  </note>
  <outline>
    <contour>
      <point x="291" y="72" type="curve"/>
      <point x="151" y="72" type="line"/>
      <point x="197" y="346" type="line"/>
      <point x="335" y="346" type="line" smooth="yes"/>
      <point x="400" y="346"/>
      <point x="438" y="320"/>
      <point x="438" y="260" type="curve"/>
      <point x="438" y="240"/>
      <point x="437" y="221"/>
      <point x="434" y="202" type="curve"/>
      <point x="430" y="178" type="line" smooth="yes"/>
      <point x="418" y="107"/>
      <point x="370" y="72"/>
    </contour>
    <contour>
      <point x="256" y="698" type="line"/>
      <point x="174" y="698" type="line"/>
      <point x="57" y="0" type="line"/>
      <point x="283" y="0" type="line" smooth="yes"/>
      <point x="433" y="0"/>
      <point x="522" y="88"/>
      <point x="522" y="249" type="curve"/>
      <point x="522" y="353"/>
      <point x="466" y="418"/>
      <point x="345" y="418" type="curve"/>
      <point x="209" y="418" type="line"/>
    </contour>
  </outline>
</glyph>
<glyph name="uni0439" format="1">
  <advance width="600"/>
  <unicode hex="0439"/>
  <note>
    uni0439
  </note>
  <outline>
    <contour>
      <point x="355" y="595" type="curve"/>
      <point x="416" y="595"/>
      <point x="464" y="622"/>
      <point x="506" y="688" type="curve"/>
      <point x="542" y="745" type="line"/>
      <point x="472" y="768" type="line"/>
      <point x="414" y="662" type="line"/>
      <point x="399" y="657"/>
      <point x="376" y="656"/>
      <point x="357" y="656" type="curve"/>
      <point x="344" y="656"/>
      <point x="317" y="657"/>
      <point x="304" y="662" type="curve"/>
      <point x="282" y="768" type="line"/>
      <point x="208" y="745" type="line"/>
      <point x="228" y="688" type="line" smooth="yes"/>
      <point x="249" y="628"/>
      <point x="284" y="595"/>
    </contour>
    <contour>
      <point x="395" y="122" type="curve"/>
      <point x="399" y="122" type="line"/>
      <point x="379" y="0" type="line"/>
      <point x="457" y="0" type="line"/>
      <point x="543" y="516" type="line"/>
      <point x="465" y="516" type="line"/>
      <point x="417" y="231" type="line" smooth="yes"/>
      <point x="407" y="172"/>
      <point x="369" y="126"/>
      <point x="358" y="113" type="curve"/>
      <point x="329" y="79"/>
      <point x="294" y="57"/>
      <point x="249" y="57" type="curve"/>
      <point x="191" y="57"/>
      <point x="163" y="95"/>
      <point x="163" y="156" type="curve"/>
      <point x="163" y="167"/>
      <point x="164" y="187"/>
      <point x="168" y="211" type="curve"/>
      <point x="219" y="516" type="line"/>
      <point x="141" y="516" type="line"/>
      <point x="89" y="204" type="line" smooth="yes"/>
      <point x="85" y="181"/>
      <point x="83" y="157"/>
      <point x="83" y="137" type="curve"/>
      <point x="83" y="43"/>
      <point x="137" y="-12"/>
      <point x="223" y="-12" type="curve"/>
      <point x="306" y="-12"/>
      <point x="357" y="40"/>
    </contour>
  </outline>
</glyph>
<glyph name="uni0447" format="1">
  <advance width="600"/>
  <unicode hex="0447"/>
  <note>
    uni0447
  </note>
  <outline>
    <contour>
      <point x="406" y="277" type="curve"/>
      <point x="411" y="277" type="line"/>
      <point x="366" y="0" type="line"/>
      <point x="443" y="0" type="line"/>
      <point x="530" y="516" type="line"/>
      <point x="452" y="516" type="line"/>
      <point x="428" y="375" type="line" smooth="yes"/>
      <point x="418" y="315"/>
      <point x="362" y="245"/>
      <point x="265" y="245" type="curve"/>
      <point x="208" y="245"/>
      <point x="174" y="269"/>
      <point x="174" y="313" type="curve"/>
      <point x="174" y="321"/>
      <point x="175" y="339"/>
      <point x="178" y="359" type="curve"/>
      <point x="205" y="516" type="line"/>
      <point x="127" y="516" type="line"/>
      <point x="101" y="359" type="line" smooth="yes"/>
      <point x="97" y="334"/>
      <point x="95" y="310"/>
      <point x="95" y="297" type="curve"/>
      <point x="95" y="228"/>
      <point x="156" y="175"/>
      <point x="248" y="175" type="curve"/>
      <point x="322" y="175"/>
      <point x="370" y="210"/>
    </contour>
  </outline>
</glyph>
<glyph name="uni045E" format="1">
  <advance width="600"/>
  <unicode hex="045E"/>
  <note>
    uni045E
  </note>
  <outline>
    <contour>
      <point x="360" y="595" type="curve"/>
      <point x="421" y="595"/>
      <point x="469" y="622"/>
      <point x="511" y="688" type="curve"/>
      <point x="547" y="745" type="line"/>
      <point x="477" y="768" type="line"/>
      <point x="419" y="662" type="line"/>
      <point x="404" y="657"/>
      <point x="381" y="656"/>
      <point x="362" y="656" type="curve"/>
      <point x="349" y="656"/>
      <point x="322" y="657"/>
      <point x="309" y="662" type="curve"/>
      <point x="287" y="768" type="line"/>
      <point x="213" y="745" type="line"/>
      <point x="233" y="688" type="line" smooth="yes"/>
      <point x="254" y="628"/>
      <point x="289" y="595"/>
    </contour>
    <contour>
      <point x="208" y="-212" type="curve"/>
      <point x="337" y="-212"/>
      <point x="431" y="-152"/>
      <point x="457" y="0" type="curve"/>
      <point x="543" y="516" type="line"/>
      <point x="465" y="516" type="line"/>
      <point x="420" y="246" type="line" smooth="yes"/>
      <point x="410" y="187"/>
      <point x="372" y="141"/>
      <point x="361" y="128" type="curve"/>
      <point x="332" y="94"/>
      <point x="297" y="72"/>
      <point x="252" y="72" type="curve"/>
      <point x="194" y="72"/>
      <point x="165" y="110"/>
      <point x="165" y="171" type="curve"/>
      <point x="165" y="182"/>
      <point x="166" y="200"/>
      <point x="170" y="223" type="curve"/>
      <point x="219" y="516" type="line"/>
      <point x="141" y="516" type="line"/>
      <point x="91" y="216" type="line" smooth="yes"/>
      <point x="87" y="189"/>
      <point x="85" y="170"/>
      <point x="85" y="152" type="curve"/>
      <point x="85" y="58"/>
      <point x="140" y="3"/>
      <point x="226" y="3" type="curve"/>
      <point x="309" y="3"/>
      <point x="361" y="55"/>
      <point x="399" y="137" type="curve"/>
      <point x="402" y="137" type="line"/>
      <point x="382" y="15" type="line" smooth="yes"/>
      <point x="364" y="-97"/>
      <point x="308" y="-143"/>
      <point x="213" y="-143" type="curve"/>
      <point x="150" y="-143"/>
      <point x="108" y="-123"/>
      <point x="81" y="-89" type="curve"/>
      <point x="27" y="-141" type="line"/>
      <point x="64" y="-187"/>
      <point x="125" y="-212"/>
    </contour>
  </outline>
</glyph>
<glyph name="uni0473" format="1">
  <advance width="600"/>
  <unicode hex="0473"/>
  <note>
    uni0473
  </note>
  <outline>
    <contour>
      <point x="265" y="-12" type="curve"/>
      <point x="417" y="-12"/>
      <point x="536" y="113"/>
      <point x="536" y="310" type="curve"/>
      <point x="536" y="439"/>
      <point x="468" y="528"/>
      <point x="334" y="528" type="curve"/>
      <point x="183" y="528"/>
      <point x="64" y="403"/>
      <point x="64" y="206" type="curve"/>
      <point x="64" y="77"/>
      <point x="133" y="-12"/>
    </contour>
    <contour>
      <point x="269" y="56" type="curve"/>
      <point x="192" y="56"/>
      <point x="143" y="96"/>
      <point x="143" y="183" type="curve"/>
      <point x="143" y="194"/>
      <point x="144" y="208"/>
      <point x="147" y="227" type="curve"/>
      <point x="443" y="227" type="line"/>
      <point x="442" y="221" type="line" smooth="yes"/>
      <point x="425" y="119"/>
      <point x="366" y="56"/>
    </contour>
    <contour>
      <point x="331" y="460" type="curve"/>
      <point x="408" y="460"/>
      <point x="457" y="420"/>
      <point x="457" y="333" type="curve"/>
      <point x="457" y="323"/>
      <point x="456" y="311"/>
      <point x="454" y="294" type="curve"/>
      <point x="158" y="294" type="line"/>
      <point x="175" y="396"/>
      <point x="234" y="460"/>
    </contour>
  </outline>
</glyph>
<glyph name="uni0492" format="1">
  <advance width="600"/>
  <unicode hex="0492"/>
  <note>
    uni0492
  </note>
  <outline>
    <contour>
      <point x="175" y="400" type="line"/>
      <point x="79" y="400" type="line"/>
      <point x="68" y="338" type="line"/>
      <point x="164" y="338" type="line"/>
      <point x="108" y="0" type="line"/>
      <point x="190" y="0" type="line"/>
      <point x="246" y="338" type="line"/>
      <point x="441" y="338" type="line"/>
      <point x="452" y="400" type="line"/>
      <point x="257" y="400" type="line"/>
      <point x="295" y="626" type="line"/>
      <point x="602" y="626" type="line"/>
      <point x="614" y="698" type="line"/>
      <point x="225" y="698" type="line"/>
    </contour>
  </outline>
</glyph>
<glyph name="uni0493" format="1">
  <advance width="600"/>
  <unicode hex="0493"/>
  <note>
    uni0493
  </note>
  <outline>
    <contour>
      <point x="49" y="223" type="line"/>
      <point x="147" y="223" type="line"/>
      <point x="110" y="0" type="line"/>
      <point x="187" y="0" type="line"/>
      <point x="224" y="223" type="line"/>
      <point x="387" y="223" type="line"/>
      <point x="397" y="284" type="line"/>
      <point x="234" y="284" type="line"/>
      <point x="262" y="448" type="line"/>
      <point x="547" y="448" type="line"/>
      <point x="558" y="516" type="line"/>
      <point x="196" y="516" type="line"/>
      <point x="157" y="284" type="line"/>
      <point x="59" y="284" type="line"/>
    </contour>
  </outline>
</glyph>
<glyph name="uni049C" format="1">
  <advance width="600"/>
  <unicode hex="049C"/>
  <note>
    uni049C
  </note>
  <outline>
    <contour>
      <point x="163" y="318" type="line"/>
      <point x="217" y="318" type="line"/>
      <point x="192" y="164" type="line"/>
      <point x="257" y="164" type="line"/>
      <point x="282" y="318" type="line"/>
      <point x="326" y="318" type="line"/>
      <point x="389" y="83" type="line" smooth="yes"/>
      <point x="405" y="23"/>
      <point x="432" y="0"/>
      <point x="475" y="0" type="curve"/>
      <point x="529" y="0" type="line"/>
      <point x="541" y="72" type="line"/>
      <point x="477" y="72" type="line"/>
      <point x="423" y="273" type="line" smooth="yes"/>
      <point x="406" y="335"/>
      <point x="393" y="346"/>
      <point x="370" y="352" type="curve"/>
      <point x="371" y="357" type="line"/>
      <point x="397" y="361"/>
      <point x="417" y="374"/>
      <point x="442" y="415" type="curve"/>
      <point x="614" y="698" type="line"/>
      <point x="525" y="698" type="line"/>
      <point x="338" y="390" type="line"/>
      <point x="294" y="390" type="line"/>
      <point x="320" y="544" type="line"/>
      <point x="255" y="544" type="line"/>
      <point x="229" y="390" type="line"/>
      <point x="175" y="390" type="line"/>
      <point x="227" y="698" type="line"/>
      <point x="145" y="698" type="line"/>
      <point x="28" y="0" type="line"/>
      <point x="110" y="0" type="line"/>
    </contour>
  </outline>
</glyph>
<glyph name="uni04A4" format="1">
  <advance width="600"/>
  <unicode hex="04A4"/>
  <note>
    uni04A4
  </note>
  <outline>
    <contour>
      <point x="210" y="698" type="line"/>
      <point x="128" y="698" type="line"/>
      <point x="11" y="0" type="line"/>
      <point x="93" y="0" type="line"/>
      <point x="146" y="318" type="line"/>
      <point x="325" y="318" type="line"/>
      <point x="272" y="0" type="line"/>
      <point x="354" y="0" type="line"/>
      <point x="459" y="626" type="line"/>
      <point x="641" y="626" type="line"/>
      <point x="653" y="698" type="line"/>
      <point x="389" y="698" type="line"/>
      <point x="337" y="390" type="line"/>
      <point x="158" y="390" type="line"/>
    </contour>
  </outline>
</glyph>
<glyph name="uni04DD" format="1">
  <advance width="600"/>
  <unicode hex="04DD"/>
  <note>
    uni04DD
  </note>
  <outline>
    <contour>
      <point x="270" y="619" type="curve"/>
      <point x="310" y="619"/>
      <point x="323" y="636"/>
      <point x="329" y="662" type="curve"/>
      <point x="331" y="671"/>
      <point x="333" y="680"/>
      <point x="333" y="687" type="curve"/>
      <point x="333" y="706"/>
      <point x="320" y="723"/>
      <point x="281" y="723" type="curve"/>
      <point x="241" y="723"/>
      <point x="228" y="706"/>
      <point x="222" y="680" type="curve"/>
      <point x="220" y="671"/>
      <point x="218" y="662"/>
      <point x="218" y="655" type="curve"/>
      <point x="218" y="636"/>
      <point x="231" y="619"/>
    </contour>
    <contour>
      <point x="456" y="619" type="curve"/>
      <point x="496" y="619"/>
      <point x="509" y="636"/>
      <point x="515" y="662" type="curve"/>
      <point x="517" y="671"/>
      <point x="519" y="680"/>
      <point x="519" y="687" type="curve"/>
      <point x="519" y="706"/>
      <point x="506" y="723"/>
      <point x="467" y="723" type="curve"/>
      <point x="427" y="723"/>
      <point x="414" y="706"/>
      <point x="408" y="680" type="curve"/>
      <point x="406" y="671"/>
      <point x="404" y="662"/>
      <point x="404" y="655" type="curve"/>
      <point x="404" y="636"/>
      <point x="417" y="619"/>
    </contour>
    <contour>
      <point x="62" y="66" type="curve"/>
      <point x="-17" y="66" type="line"/>
      <point x="-28" y="0" type="line"/>
      <point x="19" y="0" type="line" smooth="yes"/>
      <point x="51" y="0"/>
      <point x="82" y="7"/>
      <point x="109" y="34" type="curve"/>
      <point x="144" y="69"/>
      <point x="163" y="116"/>
      <point x="185" y="235" type="curve"/>
      <point x="262" y="235" type="line"/>
      <point x="224" y="0" type="line"/>
      <point x="295" y="0" type="line"/>
      <point x="333" y="235" type="line"/>
      <point x="412" y="235" type="line"/>
      <point x="410" y="221"/>
      <point x="407" y="185"/>
      <point x="407" y="147" type="curve"/>
      <point x="407" y="33"/>
      <point x="447" y="0"/>
      <point x="515" y="0" type="curve"/>
      <point x="547" y="0" type="line"/>
      <point x="558" y="66" type="line"/>
      <point x="486" y="66" type="line"/>
      <point x="477" y="85"/>
      <point x="472" y="111"/>
      <point x="472" y="144" type="curve"/>
      <point x="472" y="182"/>
      <point x="476" y="231"/>
      <point x="484" y="280" type="curve"/>
      <point x="498" y="365"/>
      <point x="520" y="420"/>
      <point x="542" y="450" type="curve"/>
      <point x="613" y="450" type="line"/>
      <point x="624" y="516" type="line"/>
      <point x="585" y="516" type="line" smooth="yes"/>
      <point x="553" y="516"/>
      <point x="522" y="509"/>
      <point x="495" y="482" type="curve"/>
      <point x="460" y="447"/>
      <point x="440" y="393"/>
      <point x="422" y="297" type="curve"/>
      <point x="344" y="297" type="line"/>
      <point x="380" y="516" type="line"/>
      <point x="309" y="516" type="line"/>
      <point x="273" y="297" type="line"/>
      <point x="194" y="297" type="line"/>
      <point x="196" y="321"/>
      <point x="197" y="341"/>
      <point x="197" y="369" type="curve"/>
      <point x="197" y="483"/>
      <point x="157" y="516"/>
      <point x="89" y="516" type="curve"/>
      <point x="65" y="516" type="line"/>
      <point x="54" y="450" type="line"/>
      <point x="118" y="450" type="line"/>
      <point x="127" y="431"/>
      <point x="132" y="405"/>
      <point x="132" y="372" type="curve"/>
      <point x="132" y="334"/>
      <point x="128" y="285"/>
      <point x="120" y="236" type="curve"/>
      <point x="106" y="151"/>
      <point x="84" y="96"/>
    </contour>
  </outline>
</glyph>
<glyph name="uni04E4" format="1">
  <advance width="600"/>
  <unicode hex="04E4"/>
  <note>
    uni04E4
  </note>
  <outline>
    <contour>
      <point x="292" y="789" type="curve"/>
      <point x="332" y="789"/>
      <point x="344" y="806"/>
      <point x="351" y="832" type="curve"/>
      <point x="353" y="839"/>
      <point x="355" y="850"/>
      <point x="355" y="857" type="curve"/>
      <point x="355" y="876"/>
      <point x="342" y="893"/>
      <point x="303" y="893" type="curve"/>
      <point x="263" y="893"/>
      <point x="251" y="876"/>
      <point x="244" y="850" type="curve"/>
      <point x="242" y="843"/>
      <point x="240" y="832"/>
      <point x="240" y="825" type="curve"/>
      <point x="240" y="806"/>
      <point x="253" y="789"/>
    </contour>
    <contour>
      <point x="478" y="789" type="curve"/>
      <point x="518" y="789"/>
      <point x="530" y="806"/>
      <point x="537" y="832" type="curve"/>
      <point x="539" y="839"/>
      <point x="541" y="850"/>
      <point x="541" y="857" type="curve"/>
      <point x="541" y="876"/>
      <point x="528" y="893"/>
      <point x="489" y="893" type="curve"/>
      <point x="449" y="893"/>
      <point x="437" y="876"/>
      <point x="430" y="850" type="curve"/>
      <point x="428" y="843"/>
      <point x="426" y="832"/>
      <point x="426" y="825" type="curve"/>
      <point x="426" y="806"/>
      <point x="439" y="789"/>
    </contour>
    <contour>
      <point x="238" y="698" type="line"/>
      <point x="156" y="698" type="line"/>
      <point x="39" y="0" type="line"/>
      <point x="118" y="0" type="line"/>
      <point x="382" y="388" type="line"/>
      <point x="495" y="554" type="line"/>
      <point x="501" y="554" type="line"/>
      <point x="450" y="341" type="line"/>
      <point x="393" y="0" type="line"/>
      <point x="475" y="0" type="line"/>
      <point x="592" y="698" type="line"/>
      <point x="513" y="698" type="line"/>
      <point x="256" y="320" type="line"/>
      <point x="136" y="144" type="line"/>
      <point x="130" y="144" type="line"/>
      <point x="181" y="357" type="line"/>
    </contour>
  </outline>
</glyph>
<glyph name="uni04E5" format="1">
  <advance width="600"/>
  <unicode hex="04E5"/>
  <note>
    uni04E5
  </note>
  <outline>
    <contour>
      <point x="266" y="619" type="curve"/>
      <point x="306" y="619"/>
      <point x="319" y="636"/>
      <point x="325" y="662" type="curve"/>
      <point x="327" y="671"/>
      <point x="329" y="680"/>
      <point x="329" y="687" type="curve"/>
      <point x="329" y="706"/>
      <point x="316" y="723"/>
      <point x="277" y="723" type="curve"/>
      <point x="237" y="723"/>
      <point x="224" y="706"/>
      <point x="218" y="680" type="curve"/>
      <point x="216" y="671"/>
      <point x="214" y="662"/>
      <point x="214" y="655" type="curve"/>
      <point x="214" y="636"/>
      <point x="227" y="619"/>
    </contour>
    <contour>
      <point x="452" y="619" type="curve"/>
      <point x="492" y="619"/>
      <point x="505" y="636"/>
      <point x="511" y="662" type="curve"/>
      <point x="513" y="671"/>
      <point x="515" y="680"/>
      <point x="515" y="687" type="curve"/>
      <point x="515" y="706"/>
      <point x="502" y="723"/>
      <point x="463" y="723" type="curve"/>
      <point x="423" y="723"/>
      <point x="410" y="706"/>
      <point x="404" y="680" type="curve"/>
      <point x="402" y="671"/>
      <point x="400" y="662"/>
      <point x="400" y="655" type="curve"/>
      <point x="400" y="636"/>
      <point x="413" y="619"/>
    </contour>
    <contour>
      <point x="395" y="122" type="curve"/>
      <point x="399" y="122" type="line"/>
      <point x="379" y="0" type="line"/>
      <point x="457" y="0" type="line"/>
      <point x="543" y="516" type="line"/>
      <point x="465" y="516" type="line"/>
      <point x="417" y="231" type="line" smooth="yes"/>
      <point x="407" y="172"/>
      <point x="369" y="126"/>
      <point x="358" y="113" type="curve"/>
      <point x="329" y="79"/>
      <point x="294" y="57"/>
      <point x="249" y="57" type="curve"/>
      <point x="191" y="57"/>
      <point x="163" y="95"/>
      <point x="163" y="156" type="curve"/>
      <point x="163" y="167"/>
      <point x="164" y="187"/>
      <point x="168" y="211" type="curve"/>
      <point x="219" y="516" type="line"/>
      <point x="141" y="516" type="line"/>
      <point x="89" y="204" type="line" smooth="yes"/>
      <point x="85" y="181"/>
      <point x="83" y="157"/>
      <point x="83" y="137" type="curve"/>
      <point x="83" y="43"/>
      <point x="137" y="-12"/>
      <point x="223" y="-12" type="curve"/>
      <point x="306" y="-12"/>
      <point x="357" y="40"/>
    </contour>
  </outline>
</glyph>
<glyph name="uni04E8" format="1">
  <advance width="600"/>
  <unicode hex="04E8"/>
  <note>
    uni04E8
  </note>
  <outline>
    <contour>
      <point x="260" y="-12" type="curve"/>
      <point x="510" y="-12"/>
      <point x="570" y="297"/>
      <point x="570" y="473" type="curve"/>
      <point x="570" y="625"/>
      <point x="508" y="710"/>
      <point x="372" y="710" type="curve"/>
      <point x="122" y="710"/>
      <point x="62" y="401"/>
      <point x="62" y="225" type="curve"/>
      <point x="62" y="73"/>
      <point x="124" y="-12"/>
    </contour>
    <contour>
      <point x="266" y="60" type="curve"/>
      <point x="178" y="60"/>
      <point x="143" y="115"/>
      <point x="143" y="210" type="curve"/>
      <point x="143" y="233"/>
      <point x="145" y="262"/>
      <point x="150" y="292" type="curve"/>
      <point x="154" y="318" type="line"/>
      <point x="467" y="318" type="line"/>
      <point x="463" y="293" type="line" smooth="yes"/>
      <point x="440" y="150"/>
      <point x="373" y="60"/>
    </contour>
    <contour>
      <point x="479" y="390" type="line"/>
      <point x="166" y="390" type="line"/>
      <point x="169" y="407" type="line" smooth="yes"/>
      <point x="194" y="551"/>
      <point x="259" y="638"/>
      <point x="366" y="638" type="curve"/>
      <point x="454" y="638"/>
      <point x="489" y="583"/>
      <point x="489" y="488" type="curve"/>
      <point x="489" y="465"/>
      <point x="487" y="430"/>
      <point x="481" y="400" type="curve"/>
    </contour>
  </outline>
</glyph>
<glyph name="uni04EE" format="1">
  <advance width="600"/>
  <unicode hex="04EE"/>
  <note>
    uni04EE
  </note>
  <outline>
    <contour>
      <point x="542" y="875" type="line"/>
      <point x="265" y="875" type="line"/>
      <point x="254" y="808" type="line"/>
      <point x="531" y="808" type="line"/>
    </contour>
    <contour>
      <point x="215" y="72" type="line"/>
      <point x="115" y="72" type="line"/>
      <point x="103" y="0" type="line"/>
      <point x="164" y="0" type="line" smooth="yes"/>
      <point x="234" y="0"/>
      <point x="265" y="15"/>
      <point x="301" y="82" type="curve"/>
      <point x="637" y="698" type="line"/>
      <point x="551" y="698" type="line"/>
      <point x="385" y="386" type="line"/>
      <point x="316" y="251" type="line"/>
      <point x="314" y="251" type="line"/>
      <point x="283" y="389" type="line"/>
      <point x="203" y="698" type="line"/>
      <point x="124" y="698" type="line"/>
      <point x="264" y="163" type="line"/>
    </contour>
  </outline>
</glyph>
<glyph name="uni04F2" format="1">
  <advance width="600"/>
  <unicode hex="04F2"/>
  <note>
    uni04F2
  </note>
  <outline>
    <contour>
      <point x="270" y="782" type="line"/>
      <point x="314" y="756" type="line"/>
      <point x="442" y="911" type="line"/>
      <point x="377" y="948" type="line"/>
    </contour>
    <contour>
      <point x="431" y="782" type="line"/>
      <point x="475" y="756" type="line"/>
      <point x="603" y="911" type="line"/>
      <point x="538" y="948" type="line"/>
    </contour>
    <contour>
      <point x="215" y="72" type="line"/>
      <point x="115" y="72" type="line"/>
      <point x="103" y="0" type="line"/>
      <point x="164" y="0" type="line" smooth="yes"/>
      <point x="234" y="0"/>
      <point x="265" y="15"/>
      <point x="301" y="82" type="curve"/>
      <point x="637" y="698" type="line"/>
      <point x="551" y="698" type="line"/>
      <point x="385" y="386" type="line"/>
      <point x="316" y="251" type="line"/>
      <point x="314" y="251" type="line"/>
      <point x="283" y="389" type="line"/>
      <point x="203" y="698" type="line"/>
      <point x="124" y="698" type="line"/>
      <point x="264" y="163" type="line"/>
    </contour>
  </outline>
</glyph>
<glyph name="uni04F3" format="1">
  <advance width="600"/>
  <unicode hex="04F3"/>
  <note>
    uni04F3
  </note>
  <outline>
    <contour>
      <point x="241" y="612" type="line"/>
      <point x="285" y="586" type="line"/>
      <point x="413" y="741" type="line"/>
      <point x="348" y="778" type="line"/>
    </contour>
    <contour>
      <point x="402" y="612" type="line"/>
      <point x="446" y="586" type="line"/>
      <point x="574" y="741" type="line"/>
      <point x="509" y="778" type="line"/>
    </contour>
    <contour>
      <point x="208" y="-212" type="curve"/>
      <point x="337" y="-212"/>
      <point x="431" y="-152"/>
      <point x="457" y="0" type="curve"/>
      <point x="543" y="516" type="line"/>
      <point x="465" y="516" type="line"/>
      <point x="420" y="246" type="line" smooth="yes"/>
      <point x="410" y="187"/>
      <point x="372" y="141"/>
      <point x="361" y="128" type="curve"/>
      <point x="332" y="94"/>
      <point x="297" y="72"/>
      <point x="252" y="72" type="curve"/>
      <point x="194" y="72"/>
      <point x="165" y="110"/>
      <point x="165" y="171" type="curve"/>
      <point x="165" y="182"/>
      <point x="166" y="200"/>
      <point x="170" y="223" type="curve"/>
      <point x="219" y="516" type="line"/>
      <point x="141" y="516" type="line"/>
      <point x="91" y="216" type="line" smooth="yes"/>
      <point x="87" y="189"/>
      <point x="85" y="170"/>
      <point x="85" y="152" type="curve"/>
      <point x="85" y="58"/>
      <point x="140" y="3"/>
      <point x="226" y="3" type="curve"/>
      <point x="309" y="3"/>
      <point x="361" y="55"/>
      <point x="399" y="137" type="curve"/>
      <point x="402" y="137" type="line"/>
      <point x="382" y="15" type="line" smooth="yes"/>
      <point x="364" y="-97"/>
      <point x="308" y="-143"/>
      <point x="213" y="-143" type="curve"/>
      <point x="150" y="-143"/>
      <point x="108" y="-123"/>
      <point x="81" y="-89" type="curve"/>
      <point x="27" y="-141" type="line"/>
      <point x="64" y="-187"/>
      <point x="125" y="-212"/>
    </contour>
  </outline>
</glyph>
<glyph name="uni04F8" format="1">
  <advance width="600"/>
  <unicode hex="04F8"/>
  <note>
    uni04F8
  </note>
  <outline>
    <contour>
      <point x="301" y="789" type="curve"/>
      <point x="341" y="789"/>
      <point x="353" y="806"/>
      <point x="360" y="832" type="curve"/>
      <point x="362" y="839"/>
      <point x="364" y="850"/>
      <point x="364" y="857" type="curve"/>
      <point x="364" y="876"/>
      <point x="351" y="893"/>
      <point x="312" y="893" type="curve"/>
      <point x="272" y="893"/>
      <point x="260" y="876"/>
      <point x="253" y="850" type="curve"/>
      <point x="251" y="843"/>
      <point x="249" y="832"/>
      <point x="249" y="825" type="curve"/>
      <point x="249" y="806"/>
      <point x="262" y="789"/>
    </contour>
    <contour>
      <point x="487" y="789" type="curve"/>
      <point x="527" y="789"/>
      <point x="539" y="806"/>
      <point x="546" y="832" type="curve"/>
      <point x="548" y="839"/>
      <point x="550" y="850"/>
      <point x="550" y="857" type="curve"/>
      <point x="550" y="876"/>
      <point x="537" y="893"/>
      <point x="498" y="893" type="curve"/>
      <point x="458" y="893"/>
      <point x="446" y="876"/>
      <point x="439" y="850" type="curve"/>
      <point x="437" y="843"/>
      <point x="435" y="832"/>
      <point x="435" y="825" type="curve"/>
      <point x="435" y="806"/>
      <point x="448" y="789"/>
    </contour>
    <contour>
      <point x="171" y="69" type="curve"/>
      <point x="101" y="69" type="line"/>
      <point x="148" y="349" type="line"/>
      <point x="216" y="349" type="line" smooth="yes"/>
      <point x="273" y="349"/>
      <point x="311" y="320"/>
      <point x="311" y="260" type="curve"/>
      <point x="311" y="240"/>
      <point x="310" y="221"/>
      <point x="307" y="202" type="curve"/>
      <point x="303" y="178" type="line" smooth="yes"/>
      <point x="291" y="107"/>
      <point x="242" y="69"/>
    </contour>
    <contour>
      <point x="207" y="698" type="line"/>
      <point x="128" y="698" type="line"/>
      <point x="11" y="0" type="line"/>
      <point x="164" y="0" type="line" smooth="yes"/>
      <point x="303" y="0"/>
      <point x="392" y="88"/>
      <point x="392" y="255" type="curve"/>
      <point x="392" y="353"/>
      <point x="336" y="418"/>
      <point x="226" y="418" type="curve"/>
      <point x="160" y="418" type="line"/>
    </contour>
    <contour>
      <point x="621" y="698" type="line"/>
      <point x="542" y="698" type="line"/>
      <point x="425" y="0" type="line"/>
      <point x="504" y="0" type="line"/>
    </contour>
  </outline>
</glyph>
<glyph name="uni04F9" format="1">
  <advance width="600"/>
  <unicode hex="04F9"/>
  <note>
    uni04F9
  </note>
  <outline>
    <contour>
      <point x="269" y="619" type="curve"/>
      <point x="309" y="619"/>
      <point x="322" y="636"/>
      <point x="328" y="662" type="curve"/>
      <point x="330" y="671"/>
      <point x="332" y="680"/>
      <point x="332" y="687" type="curve"/>
      <point x="332" y="706"/>
      <point x="319" y="723"/>
      <point x="280" y="723" type="curve"/>
      <point x="240" y="723"/>
      <point x="227" y="706"/>
      <point x="221" y="680" type="curve"/>
      <point x="219" y="671"/>
      <point x="217" y="662"/>
      <point x="217" y="655" type="curve"/>
      <point x="217" y="636"/>
      <point x="230" y="619"/>
    </contour>
    <contour>
      <point x="455" y="619" type="curve"/>
      <point x="495" y="619"/>
      <point x="508" y="636"/>
      <point x="514" y="662" type="curve"/>
      <point x="516" y="671"/>
      <point x="518" y="680"/>
      <point x="518" y="687" type="curve"/>
      <point x="518" y="706"/>
      <point x="505" y="723"/>
      <point x="466" y="723" type="curve"/>
      <point x="426" y="723"/>
      <point x="413" y="706"/>
      <point x="407" y="680" type="curve"/>
      <point x="405" y="671"/>
      <point x="403" y="662"/>
      <point x="403" y="655" type="curve"/>
      <point x="403" y="636"/>
      <point x="416" y="619"/>
    </contour>
    <contour>
      <point x="190" y="-12" type="curve"/>
      <point x="306" y="-12"/>
      <point x="382" y="78"/>
      <point x="382" y="220" type="curve"/>
      <point x="382" y="299"/>
      <point x="334" y="357"/>
      <point x="258" y="357" type="curve"/>
      <point x="206" y="357"/>
      <point x="166" y="330"/>
      <point x="136" y="286" type="curve"/>
      <point x="132" y="286" type="line"/>
      <point x="170" y="516" type="line"/>
      <point x="98" y="516" type="line"/>
      <point x="48" y="216" type="line" smooth="yes"/>
      <point x="42" y="182"/>
      <point x="40" y="161"/>
      <point x="40" y="139" type="curve"/>
      <point x="40" y="49"/>
      <point x="94" y="-12"/>
    </contour>
    <contour>
      <point x="192" y="47" type="curve"/>
      <point x="144" y="47"/>
      <point x="112" y="83"/>
      <point x="112" y="139" type="curve"/>
      <point x="112" y="161"/>
      <point x="114" y="175"/>
      <point x="116" y="187" type="curve"/>
      <point x="125" y="245"/>
      <point x="161" y="298"/>
      <point x="232" y="298" type="curve"/>
      <point x="278" y="298"/>
      <point x="305" y="270"/>
      <point x="305" y="216" type="curve"/>
      <point x="305" y="202"/>
      <point x="303" y="182"/>
      <point x="301" y="170" type="curve"/>
      <point x="285" y="79"/>
      <point x="246" y="47"/>
    </contour>
    <contour>
      <point x="587" y="516" type="line"/>
      <point x="515" y="516" type="line"/>
      <point x="429" y="0" type="line"/>
      <point x="501" y="0" type="line"/>
    </contour>
  </outline>
</glyph>
<glyph name="Wgrave" format="1">
  <advance width="600"/>
  <unicode hex="1E80"/>
  <outline>
    <contour>
      <point x="366" y="949" type="line"/>
      <point x="293" y="918" type="line"/>
      <point x="367" y="755" type="line"/>
      <point x="418" y="775" type="line"/>
    </contour>
    <contour>
      <point x="107" y="698" type="line"/>
      <point x="46" y="0" type="line"/>
      <point x="167" y="0" type="line"/>
      <point x="322" y="421" type="line"/>
      <point x="330" y="421" type="line"/>
      <point x="345" y="0" type="line"/>
      <point x="466" y="0" type="line"/>
      <point x="637" y="698" type="line"/>
      <point x="562" y="698" type="line"/>
      <point x="467" y="298" type="line"/>
      <point x="416" y="82" type="line"/>
      <point x="408" y="82" type="line"/>
      <point x="387" y="516" type="line"/>
      <point x="293" y="516" type="line"/>
      <point x="130" y="82" type="line"/>
      <point x="122" y="82" type="line"/>
      <point x="143" y="305" type="line"/>
      <point x="180" y="698" type="line"/>
    </contour>
  </outline>
</glyph>
<glyph name="Wacute" format="1">
  <advance width="600"/>
  <unicode hex="1E82"/>
  <outline>
    <contour>
      <point x="336" y="783" type="line"/>
      <point x="383" y="755" type="line"/>
      <point x="512" y="910" type="line"/>
      <point x="444" y="949" type="line"/>
    </contour>
    <contour>
      <point x="107" y="698" type="line"/>
      <point x="46" y="0" type="line"/>
      <point x="167" y="0" type="line"/>
      <point x="322" y="421" type="line"/>
      <point x="330" y="421" type="line"/>
      <point x="345" y="0" type="line"/>
      <point x="466" y="0" type="line"/>
      <point x="637" y="698" type="line"/>
      <point x="562" y="698" type="line"/>
      <point x="467" y="298" type="line"/>
      <point x="416" y="82" type="line"/>
      <point x="408" y="82" type="line"/>
      <point x="387" y="516" type="line"/>
      <point x="293" y="516" type="line"/>
      <point x="130" y="82" type="line"/>
      <point x="122" y="82" type="line"/>
      <point x="143" y="305" type="line"/>
      <point x="180" y="698" type="line"/>
    </contour>
  </outline>
</glyph>
<glyph name="wdieresis" format="1">
  <advance width="600"/>
  <unicode hex="1E85"/>
  <outline>
    <contour>
      <point x="274" y="619" type="curve"/>
      <point x="314" y="619"/>
      <point x="327" y="636"/>
      <point x="333" y="662" type="curve"/>
      <point x="335" y="671"/>
      <point x="337" y="680"/>
      <point x="337" y="687" type="curve"/>
      <point x="337" y="706"/>
      <point x="324" y="723"/>
      <point x="285" y="723" type="curve"/>
      <point x="245" y="723"/>
      <point x="232" y="706"/>
      <point x="226" y="680" type="curve"/>
      <point x="224" y="671"/>
      <point x="222" y="662"/>
      <point x="222" y="655" type="curve"/>
      <point x="222" y="636"/>
      <point x="235" y="619"/>
    </contour>
    <contour>
      <point x="460" y="619" type="curve"/>
      <point x="500" y="619"/>
      <point x="513" y="636"/>
      <point x="519" y="662" type="curve"/>
      <point x="521" y="671"/>
      <point x="523" y="680"/>
      <point x="523" y="687" type="curve"/>
      <point x="523" y="706"/>
      <point x="510" y="723"/>
      <point x="471" y="723" type="curve"/>
      <point x="431" y="723"/>
      <point x="418" y="706"/>
      <point x="412" y="680" type="curve"/>
      <point x="410" y="671"/>
      <point x="408" y="662"/>
      <point x="408" y="655" type="curve"/>
      <point x="408" y="636"/>
      <point x="421" y="619"/>
    </contour>
    <contour>
      <point x="133" y="-10" type="curve"/>
      <point x="196" y="-10"/>
      <point x="231" y="30"/>
      <point x="260" y="95" type="curve"/>
      <point x="265" y="95" type="line"/>
      <point x="260" y="17"/>
      <point x="296" y="-10"/>
      <point x="350" y="-10" type="curve"/>
      <point x="405" y="-10"/>
      <point x="453" y="16"/>
      <point x="489" y="66" type="curve"/>
      <point x="539" y="136"/>
      <point x="567" y="251"/>
      <point x="567" y="371" type="curve"/>
      <point x="567" y="432"/>
      <point x="556" y="486"/>
      <point x="540" y="521" type="curve"/>
      <point x="474" y="501" type="line"/>
      <point x="489" y="469"/>
      <point x="497" y="417"/>
      <point x="497" y="367" type="curve"/>
      <point x="497" y="220"/>
      <point x="441" y="54"/>
      <point x="366" y="54" type="curve"/>
      <point x="335" y="54"/>
      <point x="322" y="71"/>
      <point x="322" y="112" type="curve"/>
      <point x="322" y="129"/>
      <point x="323" y="148"/>
      <point x="327" y="173" type="curve"/>
      <point x="383" y="516" type="line"/>
      <point x="315" y="516" type="line"/>
      <point x="258" y="186" type="line" smooth="yes"/>
      <point x="253" y="160"/>
      <point x="244" y="120"/>
      <point x="225" y="94" type="curve"/>
      <point x="207" y="70"/>
      <point x="188" y="54"/>
      <point x="161" y="54" type="curve"/>
      <point x="132" y="54"/>
      <point x="116" y="71"/>
      <point x="116" y="111" type="curve"/>
      <point x="116" y="129"/>
      <point x="118" y="150"/>
      <point x="122" y="173" type="curve"/>
      <point x="178" y="516" type="line"/>
      <point x="108" y="516" type="line"/>
      <point x="49" y="159" type="line" smooth="yes"/>
      <point x="45" y="133"/>
      <point x="43" y="113"/>
      <point x="43" y="92" type="curve"/>
      <point x="43" y="30"/>
      <point x="73" y="-10"/>
    </contour>
  </outline>
</glyph>
<glyph name="uni1EA4" format="1">
  <advance width="600"/>
  <unicode hex="1EA4"/>
  <outline>
    <contour>
      <point x="509" y="904" type="line"/>
      <point x="553" y="878" type="line"/>
      <point x="682" y="1033" type="line"/>
      <point x="617" y="1070" type="line"/>
    </contour>
    <contour>
      <point x="548" y="778" type="line"/>
      <point x="461" y="925" type="line"/>
      <point x="363" y="925" type="line"/>
      <point x="230" y="784" type="line"/>
      <point x="269" y="751" type="line"/>
      <point x="406" y="868" type="line"/>
      <point x="502" y="751" type="line"/>
    </contour>
    <contour>
      <point x="417" y="199" type="line"/>
      <point x="442" y="0" type="line"/>
      <point x="528" y="0" type="line"/>
      <point x="431" y="698" type="line"/>
      <point x="321" y="698" type="line"/>
      <point x="-9" y="0" type="line"/>
      <point x="79" y="0" type="line"/>
      <point x="171" y="199" type="line"/>
    </contour>
    <contour>
      <point x="357" y="614" type="line"/>
      <point x="366" y="614" type="line"/>
      <point x="409" y="272" type="line"/>
      <point x="202" y="272" type="line"/>
    </contour>
  </outline>
</glyph>
<glyph name="uni1EAA" format="1">
  <advance width="600"/>
  <unicode hex="1EAA"/>
  <outline>
    <contour>
      <point x="361" y="1064" type="curve"/>
      <point x="319" y="1064"/>
      <point x="284" y="1038"/>
      <point x="262" y="1012" type="curve"/>
      <point x="290" y="971" type="line"/>
      <point x="313" y="989"/>
      <point x="332" y="1000"/>
      <point x="353" y="1000" type="curve"/>
      <point x="372" y="1000"/>
      <point x="394" y="991"/>
      <point x="417" y="977" type="curve"/>
      <point x="437" y="965"/>
      <point x="460" y="949"/>
      <point x="493" y="949" type="curve"/>
      <point x="535" y="949"/>
      <point x="570" y="975"/>
      <point x="592" y="1001" type="curve"/>
      <point x="564" y="1042" type="line"/>
      <point x="541" y="1024"/>
      <point x="522" y="1013"/>
      <point x="501" y="1013" type="curve"/>
      <point x="482" y="1013"/>
      <point x="460" y="1022"/>
      <point x="437" y="1036" type="curve"/>
      <point x="417" y="1048"/>
      <point x="394" y="1064"/>
    </contour>
    <contour>
      <point x="550" y="776" type="line"/>
      <point x="462" y="915" type="line"/>
      <point x="363" y="915" type="line"/>
      <point x="231" y="786" type="line"/>
      <point x="270" y="751" type="line"/>
      <point x="405" y="862" type="line"/>
      <point x="503" y="751" type="line"/>
    </contour>
    <contour>
      <point x="417" y="199" type="line"/>
      <point x="442" y="0" type="line"/>
      <point x="528" y="0" type="line"/>
      <point x="431" y="698" type="line"/>
      <point x="321" y="698" type="line"/>
      <point x="-9" y="0" type="line"/>
      <point x="79" y="0" type="line"/>
      <point x="171" y="199" type="line"/>
    </contour>
    <contour>
      <point x="357" y="614" type="line"/>
      <point x="366" y="614" type="line"/>
      <point x="409" y="272" type="line"/>
      <point x="202" y="272" type="line"/>
    </contour>
  </outline>
</glyph>
<glyph name="uni1EAC" format="1">
  <advance width="600"/>
  <unicode hex="1EAC"/>
  <outline>
    <contour>
      <point x="239" y="-171" type="curve"/>
      <point x="279" y="-171"/>
      <point x="291" y="-153"/>
      <point x="298" y="-128" type="curve"/>
      <point x="300" y="-121"/>
      <point x="302" y="-109"/>
      <point x="302" y="-102" type="curve"/>
      <point x="302" y="-83"/>
      <point x="288" y="-66"/>
      <point x="250" y="-66" type="curve"/>
      <point x="210" y="-66"/>
      <point x="198" y="-84"/>
      <point x="191" y="-109" type="curve"/>
      <point x="189" y="-116"/>
      <point x="187" y="-128"/>
      <point x="187" y="-135" type="curve"/>
      <point x="187" y="-154"/>
      <point x="201" y="-171"/>
    </contour>
    <contour>
      <point x="550" y="788" type="line"/>
      <point x="463" y="935" type="line"/>
      <point x="365" y="935" type="line"/>
      <point x="232" y="794" type="line"/>
      <point x="271" y="761" type="line"/>
      <point x="408" y="878" type="line"/>
      <point x="504" y="761" type="line"/>
    </contour>
    <contour>
      <point x="417" y="199" type="line"/>
      <point x="442" y="0" type="line"/>
      <point x="528" y="0" type="line"/>
      <point x="431" y="698" type="line"/>
      <point x="321" y="698" type="line"/>
      <point x="-9" y="0" type="line"/>
      <point x="79" y="0" type="line"/>
      <point x="171" y="199" type="line"/>
    </contour>
    <contour>
      <point x="357" y="614" type="line"/>
      <point x="366" y="614" type="line"/>
      <point x="409" y="272" type="line"/>
      <point x="202" y="272" type="line"/>
    </contour>
  </outline>
</glyph>
<glyph name="uni1EB0" format="1">
  <advance width="600"/>
  <unicode hex="1EB0"/>
  <outline>
    <contour>
      <point x="385" y="755" type="curve"/>
      <point x="489" y="755"/>
      <point x="543" y="831"/>
      <point x="574" y="894" type="curve"/>
      <point x="525" y="917" type="line"/>
      <point x="499" y="885" type="line" smooth="yes"/>
      <point x="457" y="833"/>
      <point x="429" y="817"/>
      <point x="390" y="817" type="curve"/>
      <point x="347" y="817"/>
      <point x="328" y="837"/>
      <point x="304" y="885" type="curve"/>
      <point x="288" y="917" type="line"/>
      <point x="243" y="894" type="line"/>
      <point x="252" y="836"/>
      <point x="277" y="755"/>
    </contour>
    <contour>
      <point x="379" y="1070" type="line"/>
      <point x="308" y="1044" type="line"/>
      <point x="383" y="878" type="line"/>
      <point x="431" y="896" type="line"/>
    </contour>
    <contour>
      <point x="417" y="199" type="line"/>
      <point x="442" y="0" type="line"/>
      <point x="528" y="0" type="line"/>
      <point x="431" y="698" type="line"/>
      <point x="321" y="698" type="line"/>
      <point x="-9" y="0" type="line"/>
      <point x="79" y="0" type="line"/>
      <point x="171" y="199" type="line"/>
    </contour>
    <contour>
      <point x="357" y="614" type="line"/>
      <point x="366" y="614" type="line"/>
      <point x="409" y="272" type="line"/>
      <point x="202" y="272" type="line"/>
    </contour>
  </outline>
</glyph>
<glyph name="uni1EBC" format="1">
  <advance width="600"/>
  <unicode hex="1EBC"/>
  <outline>
    <contour>
      <point x="470" y="782" type="curve"/>
      <point x="512" y="782"/>
      <point x="547" y="808"/>
      <point x="569" y="834" type="curve"/>
      <point x="541" y="875" type="line"/>
      <point x="518" y="857"/>
      <point x="499" y="846"/>
      <point x="478" y="846" type="curve"/>
      <point x="459" y="846"/>
      <point x="437" y="855"/>
      <point x="414" y="869" type="curve"/>
      <point x="394" y="881"/>
      <point x="371" y="897"/>
      <point x="338" y="897" type="curve"/>
      <point x="296" y="897"/>
      <point x="261" y="871"/>
      <point x="239" y="845" type="curve"/>
      <point x="267" y="804" type="line"/>
      <point x="290" y="822"/>
      <point x="309" y="833"/>
      <point x="330" y="833" type="curve"/>
      <point x="349" y="833"/>
      <point x="371" y="824"/>
      <point x="394" y="810" type="curve"/>
      <point x="414" y="798"/>
      <point x="437" y="782"/>
    </contour>
    <contour>
      <point x="164" y="698" type="line"/>
      <point x="47" y="0" type="line"/>
      <point x="477" y="0" type="line"/>
      <point x="489" y="72" type="line"/>
      <point x="141" y="72" type="line"/>
      <point x="182" y="318" type="line"/>
      <point x="517" y="318" type="line"/>
      <point x="529" y="390" type="line"/>
      <point x="194" y="390" type="line"/>
      <point x="234" y="626" type="line"/>
      <point x="580" y="626" type="line"/>
      <point x="592" y="698" type="line"/>
    </contour>
  </outline>
</glyph>
<glyph name="uni1EBD" format="1">
  <advance width="600"/>
  <unicode hex="1EBD"/>
  <outline>
    <contour>
      <point x="445" y="612" type="curve"/>
      <point x="487" y="612"/>
      <point x="522" y="638"/>
      <point x="544" y="664" type="curve"/>
      <point x="516" y="705" type="line"/>
      <point x="493" y="687"/>
      <point x="474" y="676"/>
      <point x="453" y="676" type="curve"/>
      <point x="434" y="676"/>
      <point x="412" y="685"/>
      <point x="389" y="699" type="curve"/>
      <point x="369" y="711"/>
      <point x="346" y="727"/>
      <point x="313" y="727" type="curve"/>
      <point x="271" y="727"/>
      <point x="236" y="701"/>
      <point x="214" y="675" type="curve"/>
      <point x="242" y="634" type="line"/>
      <point x="265" y="652"/>
      <point x="284" y="663"/>
      <point x="305" y="663" type="curve"/>
      <point x="324" y="663"/>
      <point x="346" y="654"/>
      <point x="369" y="640" type="curve"/>
      <point x="389" y="628"/>
      <point x="412" y="612"/>
    </contour>
    <contour>
      <point x="277" y="-12" type="curve"/>
      <point x="386" y="-12"/>
      <point x="456" y="40"/>
      <point x="514" y="135" type="curve"/>
      <point x="459" y="169" type="line"/>
      <point x="401" y="87"/>
      <point x="358" y="55"/>
      <point x="284" y="55" type="curve"/>
      <point x="176" y="55"/>
      <point x="155" y="122"/>
      <point x="155" y="194" type="curve"/>
      <point x="155" y="196"/>
      <point x="155" y="207"/>
      <point x="156" y="217" type="curve"/>
      <point x="485" y="226"/>
      <point x="532" y="316"/>
      <point x="532" y="389" type="curve"/>
      <point x="532" y="479"/>
      <point x="458" y="528"/>
      <point x="357" y="528" type="curve"/>
      <point x="191" y="528"/>
      <point x="73" y="396"/>
      <point x="73" y="209" type="curve"/>
      <point x="73" y="61"/>
      <point x="147" y="-12"/>
    </contour>
    <contour>
      <point x="350" y="463" type="curve"/>
      <point x="425" y="463"/>
      <point x="452" y="428"/>
      <point x="452" y="386" type="curve"/>
      <point x="452" y="336"/>
      <point x="414" y="279"/>
      <point x="162" y="271" type="curve"/>
      <point x="163" y="281" type="line" smooth="yes"/>
      <point x="178" y="398"/>
      <point x="246" y="463"/>
    </contour>
  </outline>
</glyph>
<glyph name="uni1EBE" format="1">
  <advance width="600"/>
  <unicode hex="1EBE"/>
  <outline>
    <contour>
      <point x="514" y="904" type="line"/>
      <point x="558" y="878" type="line"/>
      <point x="687" y="1033" type="line"/>
      <point x="622" y="1070" type="line"/>
    </contour>
    <contour>
      <point x="553" y="778" type="line"/>
      <point x="466" y="925" type="line"/>
      <point x="368" y="925" type="line"/>
      <point x="235" y="784" type="line"/>
      <point x="274" y="751" type="line"/>
      <point x="411" y="868" type="line"/>
      <point x="507" y="751" type="line"/>
    </contour>
    <contour>
      <point x="164" y="698" type="line"/>
      <point x="47" y="0" type="line"/>
      <point x="477" y="0" type="line"/>
      <point x="489" y="72" type="line"/>
      <point x="141" y="72" type="line"/>
      <point x="182" y="318" type="line"/>
      <point x="517" y="318" type="line"/>
      <point x="529" y="390" type="line"/>
      <point x="194" y="390" type="line"/>
      <point x="234" y="626" type="line"/>
      <point x="580" y="626" type="line"/>
      <point x="592" y="698" type="line"/>
    </contour>
  </outline>
</glyph>
<glyph name="uni1EC0" format="1">
  <advance width="600"/>
  <unicode hex="1EC0"/>
  <outline>
    <contour>
      <point x="258" y="1075" type="line"/>
      <point x="187" y="1049" type="line"/>
      <point x="262" y="883" type="line"/>
      <point x="310" y="901" type="line"/>
    </contour>
    <contour>
      <point x="553" y="778" type="line"/>
      <point x="466" y="925" type="line"/>
      <point x="368" y="925" type="line"/>
      <point x="235" y="784" type="line"/>
      <point x="274" y="751" type="line"/>
      <point x="411" y="868" type="line"/>
      <point x="507" y="751" type="line"/>
    </contour>
    <contour>
      <point x="164" y="698" type="line"/>
      <point x="47" y="0" type="line"/>
      <point x="477" y="0" type="line"/>
      <point x="489" y="72" type="line"/>
      <point x="141" y="72" type="line"/>
      <point x="182" y="318" type="line"/>
      <point x="517" y="318" type="line"/>
      <point x="529" y="390" type="line"/>
      <point x="194" y="390" type="line"/>
      <point x="234" y="626" type="line"/>
      <point x="580" y="626" type="line"/>
      <point x="592" y="698" type="line"/>
    </contour>
  </outline>
</glyph>
<glyph name="uni1ECA" format="1">
  <advance width="600"/>
  <unicode hex="1ECA"/>
  <outline>
    <contour>
      <point x="236" y="-171" type="curve"/>
      <point x="276" y="-171"/>
      <point x="288" y="-153"/>
      <point x="295" y="-128" type="curve"/>
      <point x="297" y="-121"/>
      <point x="299" y="-109"/>
      <point x="299" y="-102" type="curve"/>
      <point x="299" y="-83"/>
      <point x="285" y="-66"/>
      <point x="247" y="-66" type="curve"/>
      <point x="207" y="-66"/>
      <point x="195" y="-84"/>
      <point x="188" y="-109" type="curve"/>
      <point x="186" y="-116"/>
      <point x="184" y="-128"/>
      <point x="184" y="-135" type="curve"/>
      <point x="184" y="-154"/>
      <point x="198" y="-171"/>
    </contour>
    <contour>
      <point x="52" y="66" type="line"/>
      <point x="41" y="0" type="line"/>
      <point x="473" y="0" type="line"/>
      <point x="484" y="66" type="line"/>
      <point x="309" y="66" type="line"/>
      <point x="404" y="632" type="line"/>
      <point x="579" y="632" type="line"/>
      <point x="590" y="698" type="line"/>
      <point x="158" y="698" type="line"/>
      <point x="147" y="632" type="line"/>
      <point x="322" y="632" type="line"/>
      <point x="227" y="66" type="line"/>
    </contour>
  </outline>
</glyph>
<glyph name="uni1ECB" format="1">
  <advance width="600"/>
  <unicode hex="1ECB"/>
  <outline>
    <contour>
      <point x="239" y="-171" type="curve"/>
      <point x="279" y="-171"/>
      <point x="291" y="-153"/>
      <point x="298" y="-128" type="curve"/>
      <point x="300" y="-121"/>
      <point x="302" y="-109"/>
      <point x="302" y="-102" type="curve"/>
      <point x="302" y="-83"/>
      <point x="288" y="-66"/>
      <point x="250" y="-66" type="curve"/>
      <point x="210" y="-66"/>
      <point x="198" y="-84"/>
      <point x="191" y="-109" type="curve"/>
      <point x="189" y="-116"/>
      <point x="187" y="-128"/>
      <point x="187" y="-135" type="curve"/>
      <point x="187" y="-154"/>
      <point x="201" y="-171"/>
    </contour>
    <contour>
      <point x="340" y="631" type="curve"/>
      <point x="380" y="631"/>
      <point x="401" y="649"/>
      <point x="406" y="679" type="curve"/>
      <point x="408" y="691"/>
      <point x="410" y="700"/>
      <point x="410" y="708" type="curve"/>
      <point x="410" y="729"/>
      <point x="395" y="748"/>
      <point x="352" y="748" type="curve"/>
      <point x="312" y="748"/>
      <point x="291" y="730"/>
      <point x="286" y="700" type="curve"/>
      <point x="284" y="688"/>
      <point x="282" y="679"/>
      <point x="282" y="671" type="curve"/>
      <point x="282" y="650"/>
      <point x="297" y="631"/>
    </contour>
    <contour>
      <point x="272" y="-12" type="curve"/>
      <point x="317" y="-12"/>
      <point x="354" y="12"/>
      <point x="448" y="99" type="curve"/>
      <point x="539" y="183" type="line"/>
      <point x="492" y="227" type="line"/>
      <point x="295" y="57" type="line"/>
      <point x="272" y="66" type="line"/>
      <point x="359" y="516" type="line"/>
      <point x="93" y="516" type="line"/>
      <point x="82" y="449" type="line"/>
      <point x="268" y="449" type="line"/>
      <point x="200" y="97" type="line" smooth="yes"/>
      <point x="198" y="85"/>
      <point x="195" y="70"/>
      <point x="195" y="57" type="curve"/>
      <point x="195" y="17"/>
      <point x="222" y="-12"/>
    </contour>
  </outline>
</glyph>
<glyph name="uni1EEE" format="1">
  <advance width="600"/>
  <unicode hex="1EEE"/>
  <outline>
    <contour>
      <point x="448" y="786" type="curve"/>
      <point x="490" y="786"/>
      <point x="523" y="811"/>
      <point x="545" y="837" type="curve"/>
      <point x="514" y="877" type="line"/>
      <point x="493" y="860"/>
      <point x="474" y="850"/>
      <point x="453" y="850" type="curve"/>
      <point x="436" y="850"/>
      <point x="420" y="858"/>
      <point x="398" y="870" type="curve"/>
      <point x="376" y="882"/>
      <point x="362" y="894"/>
      <point x="334" y="894" type="curve"/>
      <point x="292" y="894"/>
      <point x="259" y="869"/>
      <point x="237" y="843" type="curve"/>
      <point x="268" y="803" type="line"/>
      <point x="289" y="820"/>
      <point x="308" y="830"/>
      <point x="329" y="830" type="curve"/>
      <point x="346" y="830"/>
      <point x="362" y="822"/>
      <point x="384" y="810" type="curve"/>
      <point x="406" y="798"/>
      <point x="420" y="786"/>
    </contour>
    <contour>
      <point x="169" y="298" type="curve"/>
      <point x="236" y="698" type="line"/>
      <point x="154" y="698" type="line"/>
      <point x="91" y="323" type="line" smooth="yes"/>
      <point x="82" y="269"/>
      <point x="73" y="209"/>
      <point x="73" y="166" type="curve"/>
      <point x="73" y="52"/>
      <point x="126" y="-12"/>
      <point x="269" y="-12" type="curve"/>
      <point x="452" y="-12"/>
      <point x="489" y="84"/>
      <point x="524" y="291" type="curve"/>
      <point x="583" y="646" type="line"/>
      <point x="602" y="646" type="line" smooth="yes"/>
      <point x="651" y="646"/>
      <point x="668" y="674"/>
      <point x="674" y="708" type="curve"/>
      <point x="691" y="809" type="line"/>
      <point x="622" y="809" type="line"/>
      <point x="604" y="698" type="line"/>
      <point x="510" y="698" type="line"/>
      <point x="439" y="274" type="line" smooth="yes"/>
      <point x="416" y="137"/>
      <point x="398" y="60"/>
      <point x="266" y="60" type="curve"/>
      <point x="177" y="60"/>
      <point x="154" y="104"/>
      <point x="154" y="173" type="curve"/>
      <point x="154" y="198"/>
      <point x="157" y="226"/>
    </contour>
  </outline>
</glyph>
<glyph name="uni1EF6" format="1">
  <advance width="600"/>
  <unicode hex="1EF6"/>
  <outline>
    <contour>
      <point x="424" y="935" type="curve"/>
      <point x="322" y="935" type="line"/>
      <point x="312" y="874" type="line"/>
      <point x="427" y="874" type="line"/>
      <point x="356" y="774" type="line"/>
      <point x="399" y="747" type="line"/>
      <point x="439" y="789" type="line" smooth="yes"/>
      <point x="472" y="823"/>
      <point x="491" y="853"/>
      <point x="491" y="883" type="curve"/>
      <point x="491" y="913"/>
      <point x="471" y="935"/>
    </contour>
    <contour>
      <point x="262" y="272" type="line"/>
      <point x="216" y="0" type="line"/>
      <point x="298" y="0" type="line"/>
      <point x="345" y="279" type="line"/>
      <point x="656" y="698" type="line"/>
      <point x="558" y="698" type="line"/>
      <point x="427" y="515" type="line"/>
      <point x="312" y="354" type="line"/>
      <point x="308" y="354" type="line"/>
      <point x="249" y="515" type="line"/>
      <point x="178" y="698" type="line"/>
      <point x="90" y="698" type="line"/>
    </contour>
  </outline>
</glyph>
<glyph name="uni1EF7" format="1">
  <advance width="600"/>
  <unicode hex="1EF7"/>
  <outline>
    <contour>
      <point x="405" y="765" type="curve"/>
      <point x="303" y="765" type="line"/>
      <point x="293" y="704" type="line"/>
      <point x="408" y="704" type="line"/>
      <point x="337" y="604" type="line"/>
      <point x="380" y="577" type="line"/>
      <point x="420" y="619" type="line" smooth="yes"/>
      <point x="453" y="653"/>
      <point x="472" y="683"/>
      <point x="472" y="713" type="curve"/>
      <point x="472" y="743"/>
      <point x="452" y="765"/>
    </contour>
    <contour>
      <point x="208" y="-212" type="curve"/>
      <point x="337" y="-212"/>
      <point x="431" y="-152"/>
      <point x="457" y="0" type="curve"/>
      <point x="543" y="516" type="line"/>
      <point x="465" y="516" type="line"/>
      <point x="420" y="246" type="line" smooth="yes"/>
      <point x="410" y="187"/>
      <point x="372" y="141"/>
      <point x="361" y="128" type="curve"/>
      <point x="332" y="94"/>
      <point x="297" y="72"/>
      <point x="252" y="72" type="curve"/>
      <point x="194" y="72"/>
      <point x="165" y="110"/>
      <point x="165" y="171" type="curve"/>
      <point x="165" y="182"/>
      <point x="166" y="200"/>
      <point x="170" y="223" type="curve"/>
      <point x="219" y="516" type="line"/>
      <point x="141" y="516" type="line"/>
      <point x="91" y="216" type="line" smooth="yes"/>
      <point x="87" y="189"/>
      <point x="85" y="170"/>
      <point x="85" y="152" type="curve"/>
      <point x="85" y="58"/>
      <point x="140" y="3"/>
      <point x="226" y="3" type="curve"/>
      <point x="309" y="3"/>
      <point x="361" y="55"/>
      <point x="399" y="137" type="curve"/>
      <point x="402" y="137" type="line"/>
      <point x="382" y="15" type="line" smooth="yes"/>
      <point x="364" y="-97"/>
      <point x="308" y="-143"/>
      <point x="213" y="-143" type="curve"/>
      <point x="150" y="-143"/>
      <point x="108" y="-123"/>
      <point x="81" y="-89" type="curve"/>
      <point x="27" y="-141" type="line"/>
      <point x="64" y="-187"/>
      <point x="125" y="-212"/>
    </contour>
  </outline>
</glyph>
<glyph name="uni1EF9" format="1">
  <advance width="600"/>
  <unicode hex="1EF9"/>
  <outline>
    <contour>
      <point x="436" y="612" type="curve"/>
      <point x="478" y="612"/>
      <point x="513" y="638"/>
      <point x="535" y="664" type="curve"/>
      <point x="507" y="705" type="line"/>
      <point x="484" y="687"/>
      <point x="465" y="676"/>
      <point x="444" y="676" type="curve"/>
      <point x="425" y="676"/>
      <point x="403" y="685"/>
      <point x="380" y="699" type="curve"/>
      <point x="360" y="711"/>
      <point x="337" y="727"/>
      <point x="304" y="727" type="curve"/>
      <point x="262" y="727"/>
      <point x="227" y="701"/>
      <point x="205" y="675" type="curve"/>
      <point x="233" y="634" type="line"/>
      <point x="256" y="652"/>
      <point x="275" y="663"/>
      <point x="296" y="663" type="curve"/>
      <point x="315" y="663"/>
      <point x="337" y="654"/>
      <point x="360" y="640" type="curve"/>
      <point x="380" y="628"/>
      <point x="403" y="612"/>
    </contour>
    <contour>
      <point x="208" y="-212" type="curve"/>
      <point x="337" y="-212"/>
      <point x="431" y="-152"/>
      <point x="457" y="0" type="curve"/>
      <point x="543" y="516" type="line"/>
      <point x="465" y="516" type="line"/>
      <point x="420" y="246" type="line" smooth="yes"/>
      <point x="410" y="187"/>
      <point x="372" y="141"/>
      <point x="361" y="128" type="curve"/>
      <point x="332" y="94"/>
      <point x="297" y="72"/>
      <point x="252" y="72" type="curve"/>
      <point x="194" y="72"/>
      <point x="165" y="110"/>
      <point x="165" y="171" type="curve"/>
      <point x="165" y="182"/>
      <point x="166" y="200"/>
      <point x="170" y="223" type="curve"/>
      <point x="219" y="516" type="line"/>
      <point x="141" y="516" type="line"/>
      <point x="91" y="216" type="line" smooth="yes"/>
      <point x="87" y="189"/>
      <point x="85" y="170"/>
      <point x="85" y="152" type="curve"/>
      <point x="85" y="58"/>
      <point x="140" y="3"/>
      <point x="226" y="3" type="curve"/>
      <point x="309" y="3"/>
      <point x="361" y="55"/>
      <point x="399" y="137" type="curve"/>
      <point x="402" y="137" type="line"/>
      <point x="382" y="15" type="line" smooth="yes"/>
      <point x="364" y="-97"/>
      <point x="308" y="-143"/>
      <point x="213" y="-143" type="curve"/>
      <point x="150" y="-143"/>
      <point x="108" y="-123"/>
      <point x="81" y="-89" type="curve"/>
      <point x="27" y="-141" type="line"/>
      <point x="64" y="-187"/>
      <point x="125" y="-212"/>
    </contour>
  </outline>
</glyph>
<glyph name="uni1FED" format="1">
  <advance width="600"/>
  <unicode hex="1FED"/>
  <outline>
    <contour>
      <point x="308" y="772" type="line"/>
      <point x="392" y="595" type="line"/>
      <point x="435" y="607" type="line"/>
      <point x="372" y="790" type="line"/>
    </contour>
    <contour>
      <point x="270" y="618" type="curve"/>
      <point x="297" y="618"/>
      <point x="316" y="635"/>
      <point x="321" y="665" type="curve"/>
      <point x="323" y="676"/>
      <point x="324" y="681"/>
      <point x="324" y="686" type="curve"/>
      <point x="324" y="709"/>
      <point x="307" y="721"/>
      <point x="287" y="721" type="curve"/>
      <point x="260" y="721"/>
      <point x="241" y="704"/>
      <point x="236" y="674" type="curve"/>
      <point x="234" y="663"/>
      <point x="233" y="658"/>
      <point x="233" y="653" type="curve"/>
      <point x="233" y="630"/>
      <point x="250" y="618"/>
    </contour>
    <contour>
      <point x="492" y="618" type="curve"/>
      <point x="519" y="618"/>
      <point x="538" y="635"/>
      <point x="543" y="665" type="curve"/>
      <point x="545" y="676"/>
      <point x="546" y="681"/>
      <point x="546" y="686" type="curve"/>
      <point x="546" y="709"/>
      <point x="529" y="721"/>
      <point x="509" y="721" type="curve"/>
      <point x="482" y="721"/>
      <point x="463" y="704"/>
      <point x="458" y="674" type="curve"/>
      <point x="456" y="663"/>
      <point x="455" y="658"/>
      <point x="455" y="653" type="curve"/>
      <point x="455" y="630"/>
      <point x="472" y="618"/>
    </contour>
    <contour>
      <point x="339" y="522" type="move" name="_top"/>
    </contour>
  </outline>
</glyph>
<glyph name="uni1FEE" format="1">
  <advance width="600"/>
  <unicode hex="1FEE"/>
  <outline>
    <component base="dieresistonos"/>
    <contour>
      <point x="339" y="522" type="move" name="_top"/>
    </contour>
  </outline>
</glyph>
<glyph name="quotedblleft" format="1">
  <advance width="600"/>
  <unicode hex="201C"/>
  <outline>
    <contour>
      <point x="583" y="740" type="line"/>
      <point x="517" y="740" type="line"/>
      <point x="358" y="464" type="line"/>
      <point x="485" y="464" type="line"/>
    </contour>
    <contour>
      <point x="343" y="740" type="line"/>
      <point x="277" y="740" type="line"/>
      <point x="118" y="464" type="line"/>
      <point x="245" y="464" type="line"/>
    </contour>
  </outline>
</glyph>
<glyph name="ellipsis" format="1">
  <advance width="900"/>
  <unicode hex="2026"/>
  <outline>
    <contour>
      <point x="116" y="-4" type="curve"/>
      <point x="159" y="-4"/>
      <point x="179" y="17"/>
      <point x="184" y="47" type="curve"/>
      <point x="187" y="65"/>
      <point x="189" y="74"/>
      <point x="189" y="84" type="curve"/>
      <point x="189" y="108"/>
      <point x="175" y="126"/>
      <point x="132" y="126" type="curve"/>
      <point x="90" y="126"/>
      <point x="70" y="105"/>
      <point x="65" y="75" type="curve"/>
      <point x="62" y="57"/>
      <point x="60" y="48"/>
      <point x="60" y="38" type="curve"/>
      <point x="60" y="14"/>
      <point x="74" y="-4"/>
    </contour>
    <contour>
      <point x="409" y="-4" type="curve"/>
      <point x="452" y="-4"/>
      <point x="472" y="17"/>
      <point x="477" y="47" type="curve"/>
      <point x="480" y="65"/>
      <point x="482" y="74"/>
      <point x="482" y="84" type="curve"/>
      <point x="482" y="108"/>
      <point x="468" y="126"/>
      <point x="425" y="126" type="curve"/>
      <point x="383" y="126"/>
      <point x="363" y="105"/>
      <point x="358" y="75" type="curve"/>
      <point x="355" y="57"/>
      <point x="353" y="48"/>
      <point x="353" y="38" type="curve"/>
      <point x="353" y="14"/>
      <point x="367" y="-4"/>
    </contour>
    <contour>
      <point x="702" y="-4" type="curve"/>
      <point x="745" y="-4"/>
      <point x="765" y="17"/>
      <point x="770" y="47" type="curve"/>
      <point x="773" y="65"/>
      <point x="775" y="74"/>
      <point x="775" y="84" type="curve"/>
      <point x="775" y="108"/>
      <point x="761" y="126"/>
      <point x="718" y="126" type="curve"/>
      <point x="676" y="126"/>
      <point x="656" y="105"/>
      <point x="651" y="75" type="curve"/>
      <point x="648" y="57"/>
      <point x="646" y="48"/>
      <point x="646" y="38" type="curve"/>
      <point x="646" y="14"/>
      <point x="660" y="-4"/>
    </contour>
  </outline>
</glyph>
<glyph name="perthousand" format="1">
  <advance width="1200"/>
  <unicode hex="2030"/>
  <outline>
    <contour>
      <point x="702" y="698" type="line"/>
      <point x="98" y="0" type="line"/>
      <point x="178" y="0" type="line"/>
      <point x="782" y="698" type="line"/>
    </contour>
    <contour>
      <point x="207" y="314" type="curve"/>
      <point x="327" y="314"/>
      <point x="395" y="435"/>
      <point x="395" y="567" type="curve"/>
      <point x="395" y="657"/>
      <point x="348" y="710"/>
      <point x="270" y="710" type="curve"/>
      <point x="150" y="710"/>
      <point x="82" y="589"/>
      <point x="82" y="457" type="curve"/>
      <point x="82" y="367"/>
      <point x="128" y="314"/>
    </contour>
    <contour>
      <point x="213" y="364" type="curve"/>
      <point x="171" y="364"/>
      <point x="148" y="391"/>
      <point x="148" y="439" type="curve"/>
      <point x="148" y="450"/>
      <point x="150" y="466"/>
      <point x="152" y="476" type="curve"/>
      <point x="166" y="544" type="line" smooth="yes"/>
      <point x="181" y="616"/>
      <point x="213" y="660"/>
      <point x="264" y="660" type="curve"/>
      <point x="306" y="660"/>
      <point x="329" y="633"/>
      <point x="329" y="585" type="curve"/>
      <point x="329" y="574"/>
      <point x="327" y="558"/>
      <point x="325" y="548" type="curve"/>
      <point x="311" y="480" type="line" smooth="yes"/>
      <point x="296" y="408"/>
      <point x="264" y="364"/>
    </contour>
    <contour>
      <point x="610" y="-12" type="curve"/>
      <point x="730" y="-12"/>
      <point x="798" y="109"/>
      <point x="798" y="241" type="curve"/>
      <point x="798" y="331"/>
      <point x="751" y="384"/>
      <point x="673" y="384" type="curve"/>
      <point x="553" y="384"/>
      <point x="485" y="263"/>
      <point x="485" y="131" type="curve"/>
      <point x="485" y="41"/>
      <point x="531" y="-12"/>
    </contour>
    <contour>
      <point x="616" y="38" type="curve"/>
      <point x="574" y="38"/>
      <point x="551" y="65"/>
      <point x="551" y="113" type="curve"/>
      <point x="551" y="124"/>
      <point x="553" y="140"/>
      <point x="555" y="150" type="curve"/>
      <point x="569" y="218" type="line" smooth="yes"/>
      <point x="584" y="290"/>
      <point x="616" y="334"/>
      <point x="667" y="334" type="curve"/>
      <point x="709" y="334"/>
      <point x="732" y="307"/>
      <point x="732" y="259" type="curve"/>
      <point x="732" y="248"/>
      <point x="730" y="232"/>
      <point x="728" y="222" type="curve"/>
      <point x="714" y="154" type="line" smooth="yes"/>
      <point x="699" y="82"/>
      <point x="667" y="38"/>
    </contour>
    <contour>
      <point x="972" y="-12" type="curve"/>
      <point x="1092" y="-12"/>
      <point x="1160" y="109"/>
      <point x="1160" y="241" type="curve"/>
      <point x="1160" y="331"/>
      <point x="1113" y="384"/>
      <point x="1035" y="384" type="curve"/>
      <point x="915" y="384"/>
      <point x="847" y="263"/>
      <point x="847" y="131" type="curve"/>
      <point x="847" y="41"/>
      <point x="893" y="-12"/>
    </contour>
    <contour>
      <point x="978" y="38" type="curve"/>
      <point x="936" y="38"/>
      <point x="913" y="65"/>
      <point x="913" y="113" type="curve"/>
      <point x="913" y="124"/>
      <point x="915" y="140"/>
      <point x="917" y="150" type="curve"/>
      <point x="931" y="218" type="line" smooth="yes"/>
      <point x="946" y="290"/>
      <point x="978" y="334"/>
      <point x="1029" y="334" type="curve"/>
      <point x="1071" y="334"/>
      <point x="1094" y="307"/>
      <point x="1094" y="259" type="curve"/>
      <point x="1094" y="248"/>
      <point x="1092" y="232"/>
      <point x="1090" y="222" type="curve"/>
      <point x="1076" y="154" type="line" smooth="yes"/>
      <point x="1061" y="82"/>
      <point x="1029" y="38"/>
    </contour>
  </outline>
</glyph>
<glyph name="uni2074" format="1">
  <advance width="600"/>
  <unicode hex="2074"/>
  <outline>
    <contour>
      <point x="370" y="402" type="line"/>
      <point x="358" y="329" type="line"/>
      <point x="417" y="329" type="line"/>
      <point x="429" y="402" type="line"/>
      <point x="480" y="402" type="line"/>
      <point x="488" y="448" type="line"/>
      <point x="437" y="448" type="line"/>
      <point x="479" y="698" type="line"/>
      <point x="404" y="698" type="line"/>
      <point x="198" y="455" type="line"/>
      <point x="189" y="402" type="line"/>
    </contour>
    <contour>
      <point x="406" y="631" type="line"/>
      <point x="409" y="631" type="line"/>
      <point x="378" y="448" type="line"/>
      <point x="253" y="448" type="line"/>
    </contour>
  </outline>
</glyph>
<glyph name="uni2076" format="1">
  <advance width="600"/>
  <unicode hex="2076"/>
  <outline>
    <contour>
      <point x="332" y="323" type="curve"/>
      <point x="422" y="323"/>
      <point x="478" y="379"/>
      <point x="478" y="458" type="curve"/>
      <point x="478" y="517"/>
      <point x="435" y="560"/>
      <point x="373" y="560" type="curve"/>
      <point x="334" y="560"/>
      <point x="303" y="540"/>
      <point x="284" y="507" type="curve"/>
      <point x="280" y="509" type="line"/>
      <point x="301" y="578"/>
      <point x="368" y="645"/>
      <point x="471" y="698" type="curve"/>
      <point x="383" y="698" type="line"/>
      <point x="297" y="654"/>
      <point x="207" y="550"/>
      <point x="207" y="438" type="curve"/>
      <point x="207" y="368"/>
      <point x="252" y="323"/>
    </contour>
    <contour>
      <point x="335" y="370" type="curve"/>
      <point x="293" y="370"/>
      <point x="267" y="392"/>
      <point x="267" y="425" type="curve"/>
      <point x="267" y="432"/>
      <point x="268" y="440"/>
      <point x="269" y="446" type="curve"/>
      <point x="277" y="496"/>
      <point x="311" y="513"/>
      <point x="348" y="513" type="curve"/>
      <point x="390" y="513"/>
      <point x="416" y="491"/>
      <point x="416" y="458" type="curve"/>
      <point x="416" y="451"/>
      <point x="415" y="443"/>
      <point x="414" y="437" type="curve"/>
      <point x="406" y="387"/>
      <point x="372" y="370"/>
    </contour>
  </outline>
</glyph>
<glyph name="uni2084" format="1">
  <advance width="600"/>
  <unicode hex="2084"/>
  <outline>
    <contour>
      <point x="315" y="73" type="line"/>
      <point x="303" y="0" type="line"/>
      <point x="362" y="0" type="line"/>
      <point x="374" y="73" type="line"/>
      <point x="425" y="73" type="line"/>
      <point x="433" y="119" type="line"/>
      <point x="382" y="119" type="line"/>
      <point x="424" y="369" type="line"/>
      <point x="349" y="369" type="line"/>
      <point x="143" y="126" type="line"/>
      <point x="134" y="73" type="line"/>
    </contour>
    <contour>
      <point x="351" y="302" type="line"/>
      <point x="354" y="302" type="line"/>
      <point x="323" y="119" type="line"/>
      <point x="198" y="119" type="line"/>
    </contour>
  </outline>
</glyph>
<glyph name="uni2086" format="1">
  <advance width="600"/>
  <unicode hex="2086"/>
  <outline>
    <contour>
      <point x="277" y="-6" type="curve"/>
      <point x="367" y="-6"/>
      <point x="423" y="50"/>
      <point x="423" y="129" type="curve"/>
      <point x="423" y="188"/>
      <point x="380" y="231"/>
      <point x="318" y="231" type="curve"/>
      <point x="279" y="231"/>
      <point x="248" y="211"/>
      <point x="229" y="178" type="curve"/>
      <point x="225" y="180" type="line"/>
      <point x="246" y="249"/>
      <point x="313" y="316"/>
      <point x="416" y="369" type="curve"/>
      <point x="328" y="369" type="line"/>
      <point x="242" y="325"/>
      <point x="152" y="221"/>
      <point x="152" y="109" type="curve"/>
      <point x="152" y="39"/>
      <point x="197" y="-6"/>
    </contour>
    <contour>
      <point x="280" y="41" type="curve"/>
      <point x="238" y="41"/>
      <point x="212" y="63"/>
      <point x="212" y="96" type="curve"/>
      <point x="212" y="103"/>
      <point x="213" y="111"/>
      <point x="214" y="117" type="curve"/>
      <point x="222" y="167"/>
      <point x="256" y="184"/>
      <point x="293" y="184" type="curve"/>
      <point x="335" y="184"/>
      <point x="361" y="162"/>
      <point x="361" y="129" type="curve"/>
      <point x="361" y="122"/>
      <point x="360" y="114"/>
      <point x="359" y="108" type="curve"/>
      <point x="351" y="58"/>
      <point x="317" y="41"/>
    </contour>
  </outline>
</glyph>
<glyph name="uni2150" format="1">
  <advance width="600"/>
  <unicode hex="2150"/>
  <outline>
    <contour>
      <point x="388" y="284" type="line"/>
      <point x="514" y="284" type="line"/>
      <point x="341" y="0" type="line"/>
      <point x="404" y="0" type="line"/>
      <point x="576" y="282" type="line"/>
      <point x="585" y="335" type="line"/>
      <point x="342" y="335" type="line"/>
      <point x="323" y="219" type="line"/>
      <point x="377" y="219" type="line"/>
    </contour>
    <contour>
      <point x="656" y="698" type="line"/>
      <point x="584" y="698" type="line"/>
      <point x="375" y="398" type="line"/>
      <point x="447" y="398" type="line"/>
    </contour>
    <contour>
      <point x="257" y="300" type="line"/>
      <point x="185" y="300" type="line"/>
      <point x="-24" y="0" type="line"/>
      <point x="48" y="0" type="line"/>
    </contour>
    <contour>
      <point x="159" y="413" type="line"/>
      <point x="66" y="413" type="line"/>
      <point x="58" y="363" type="line"/>
      <point x="295" y="363" type="line"/>
      <point x="304" y="413" type="line"/>
      <point x="221" y="413" type="line"/>
      <point x="269" y="698" type="line"/>
      <point x="202" y="698" type="line"/>
      <point x="86" y="642" type="line"/>
      <point x="103" y="596" type="line"/>
      <point x="198" y="642" type="line"/>
    </contour>
  </outline>
</glyph>
<glyph name="uni2155" format="1">
  <advance width="600"/>
  <unicode hex="2155"/>
  <outline>
    <contour>
      <point x="411" y="-6" type="curve"/>
      <point x="499" y="-6"/>
      <point x="553" y="51"/>
      <point x="553" y="122" type="curve"/>
      <point x="553" y="181"/>
      <point x="515" y="215"/>
      <point x="462" y="215" type="curve"/>
      <point x="421" y="215"/>
      <point x="399" y="196"/>
      <point x="379" y="167" type="curve"/>
      <point x="374" y="167" type="line"/>
      <point x="404" y="285" type="line"/>
      <point x="561" y="285" type="line"/>
      <point x="570" y="335" type="line"/>
      <point x="364" y="335" type="line"/>
      <point x="320" y="146" type="line"/>
      <point x="370" y="138" type="line"/>
      <point x="383" y="150"/>
      <point x="409" y="165"/>
      <point x="440" y="165" type="curve"/>
      <point x="469" y="165"/>
      <point x="490" y="151"/>
      <point x="490" y="121" type="curve"/>
      <point x="490" y="114"/>
      <point x="489" y="101"/>
      <point x="486" y="92" type="curve"/>
      <point x="475" y="58"/>
      <point x="441" y="44"/>
      <point x="410" y="44" type="curve"/>
      <point x="373" y="44"/>
      <point x="357" y="64"/>
      <point x="346" y="90" type="curve"/>
      <point x="299" y="63" type="line"/>
      <point x="312" y="27"/>
      <point x="344" y="-6"/>
    </contour>
    <contour>
      <point x="656" y="698" type="line"/>
      <point x="584" y="698" type="line"/>
      <point x="375" y="398" type="line"/>
      <point x="447" y="398" type="line"/>
    </contour>
    <contour>
      <point x="257" y="300" type="line"/>
      <point x="185" y="300" type="line"/>
      <point x="-24" y="0" type="line"/>
      <point x="48" y="0" type="line"/>
    </contour>
    <contour>
      <point x="159" y="413" type="line"/>
      <point x="66" y="413" type="line"/>
      <point x="58" y="363" type="line"/>
      <point x="295" y="363" type="line"/>
      <point x="304" y="413" type="line"/>
      <point x="221" y="413" type="line"/>
      <point x="269" y="698" type="line"/>
      <point x="202" y="698" type="line"/>
      <point x="86" y="642" type="line"/>
      <point x="103" y="596" type="line"/>
      <point x="198" y="642" type="line"/>
    </contour>
  </outline>
</glyph>
<glyph name="uni2159" format="1">
  <advance width="600"/>
  <unicode hex="2159"/>
  <outline>
    <contour>
      <point x="414" y="-6" type="curve"/>
      <point x="497" y="-6"/>
      <point x="556" y="50"/>
      <point x="556" y="124" type="curve"/>
      <point x="556" y="179"/>
      <point x="518" y="215"/>
      <point x="460" y="215" type="curve"/>
      <point x="418" y="215"/>
      <point x="391" y="189"/>
      <point x="373" y="163" type="curve"/>
      <point x="368" y="164" type="line"/>
      <point x="395" y="232"/>
      <point x="455" y="277"/>
      <point x="547" y="335" type="curve"/>
      <point x="462" y="335" type="line"/>
      <point x="391" y="293"/>
      <point x="301" y="208"/>
      <point x="301" y="102" type="curve"/>
      <point x="301" y="36"/>
      <point x="341" y="-6"/>
    </contour>
    <contour>
      <point x="418" y="41" type="curve"/>
      <point x="383" y="41"/>
      <point x="361" y="59"/>
      <point x="361" y="86" type="curve"/>
      <point x="361" y="92"/>
      <point x="362" y="99"/>
      <point x="364" y="111" type="curve"/>
      <point x="370" y="147"/>
      <point x="398" y="169"/>
      <point x="437" y="169" type="curve"/>
      <point x="472" y="169"/>
      <point x="494" y="151"/>
      <point x="494" y="124" type="curve"/>
      <point x="494" y="118"/>
      <point x="493" y="111"/>
      <point x="491" y="99" type="curve"/>
      <point x="485" y="63"/>
      <point x="457" y="41"/>
    </contour>
    <contour>
      <point x="656" y="698" type="line"/>
      <point x="584" y="698" type="line"/>
      <point x="375" y="398" type="line"/>
      <point x="447" y="398" type="line"/>
    </contour>
    <contour>
      <point x="257" y="300" type="line"/>
      <point x="185" y="300" type="line"/>
      <point x="-24" y="0" type="line"/>
      <point x="48" y="0" type="line"/>
    </contour>
    <contour>
      <point x="159" y="413" type="line"/>
      <point x="66" y="413" type="line"/>
      <point x="58" y="363" type="line"/>
      <point x="295" y="363" type="line"/>
      <point x="304" y="413" type="line"/>
      <point x="221" y="413" type="line"/>
      <point x="269" y="698" type="line"/>
      <point x="202" y="698" type="line"/>
      <point x="86" y="642" type="line"/>
      <point x="103" y="596" type="line"/>
      <point x="198" y="642" type="line"/>
    </contour>
  </outline>
</glyph>
<glyph name="uni215A" format="1">
  <advance width="600"/>
  <unicode hex="215A"/>
  <outline>
    <contour>
      <point x="414" y="-6" type="curve"/>
      <point x="497" y="-6"/>
      <point x="556" y="50"/>
      <point x="556" y="124" type="curve"/>
      <point x="556" y="179"/>
      <point x="518" y="215"/>
      <point x="460" y="215" type="curve"/>
      <point x="418" y="215"/>
      <point x="391" y="189"/>
      <point x="373" y="163" type="curve"/>
      <point x="368" y="164" type="line"/>
      <point x="395" y="232"/>
      <point x="455" y="277"/>
      <point x="547" y="335" type="curve"/>
      <point x="462" y="335" type="line"/>
      <point x="391" y="293"/>
      <point x="301" y="208"/>
      <point x="301" y="102" type="curve"/>
      <point x="301" y="36"/>
      <point x="341" y="-6"/>
    </contour>
    <contour>
      <point x="418" y="41" type="curve"/>
      <point x="383" y="41"/>
      <point x="361" y="59"/>
      <point x="361" y="86" type="curve"/>
      <point x="361" y="92"/>
      <point x="362" y="99"/>
      <point x="364" y="111" type="curve"/>
      <point x="370" y="147"/>
      <point x="398" y="169"/>
      <point x="437" y="169" type="curve"/>
      <point x="472" y="169"/>
      <point x="494" y="151"/>
      <point x="494" y="124" type="curve"/>
      <point x="494" y="118"/>
      <point x="493" y="111"/>
      <point x="491" y="99" type="curve"/>
      <point x="485" y="63"/>
      <point x="457" y="41"/>
    </contour>
    <contour>
      <point x="656" y="698" type="line"/>
      <point x="584" y="698" type="line"/>
      <point x="375" y="398" type="line"/>
      <point x="447" y="398" type="line"/>
    </contour>
    <contour>
      <point x="257" y="300" type="line"/>
      <point x="185" y="300" type="line"/>
      <point x="-24" y="0" type="line"/>
      <point x="48" y="0" type="line"/>
    </contour>
    <contour>
      <point x="171" y="357" type="curve"/>
      <point x="259" y="357"/>
      <point x="313" y="414"/>
      <point x="313" y="485" type="curve"/>
      <point x="313" y="544"/>
      <point x="275" y="578"/>
      <point x="222" y="578" type="curve"/>
      <point x="181" y="578"/>
      <point x="159" y="559"/>
      <point x="139" y="530" type="curve"/>
      <point x="134" y="530" type="line"/>
      <point x="164" y="648" type="line"/>
      <point x="321" y="648" type="line"/>
      <point x="330" y="698" type="line"/>
      <point x="124" y="698" type="line"/>
      <point x="80" y="509" type="line"/>
      <point x="130" y="501" type="line"/>
      <point x="143" y="513"/>
      <point x="169" y="528"/>
      <point x="200" y="528" type="curve"/>
      <point x="229" y="528"/>
      <point x="250" y="514"/>
      <point x="250" y="484" type="curve"/>
      <point x="250" y="477"/>
      <point x="249" y="464"/>
      <point x="246" y="455" type="curve"/>
      <point x="235" y="421"/>
      <point x="201" y="407"/>
      <point x="170" y="407" type="curve"/>
      <point x="133" y="407"/>
      <point x="117" y="427"/>
      <point x="106" y="453" type="curve"/>
      <point x="59" y="426" type="line"/>
      <point x="72" y="390"/>
      <point x="104" y="357"/>
    </contour>
  </outline>
</glyph>
<glyph name="uni2206" format="1">
  <advance width="600"/>
  <unicode hex="2206"/>
  <outline>
    <contour>
      <point x="318" y="698" type="line"/>
      <point x="17" y="75" type="line"/>
      <point x="5" y="0" type="line"/>
      <point x="509" y="0" type="line"/>
      <point x="520" y="75" type="line"/>
      <point x="428" y="698" type="line"/>
    </contour>
    <contour>
      <point x="355" y="611" type="line"/>
      <point x="364" y="611" type="line"/>
      <point x="437" y="72" type="line"/>
      <point x="104" y="72" type="line"/>
    </contour>
  </outline>
</glyph>
<glyph name="infinity" format="1">
  <advance width="600"/>
  <unicode hex="221E"/>
  <outline>
    <contour>
      <point x="136" y="126" type="curve"/>
      <point x="197" y="126"/>
      <point x="252" y="171"/>
      <point x="282" y="258" type="curve"/>
      <point x="287" y="258" type="line"/>
      <point x="300" y="177"/>
      <point x="350" y="126"/>
      <point x="425" y="126" type="curve"/>
      <point x="531" y="126"/>
      <point x="597" y="228"/>
      <point x="597" y="337" type="curve"/>
      <point x="597" y="444"/>
      <point x="533" y="485"/>
      <point x="477" y="485" type="curve"/>
      <point x="416" y="485"/>
      <point x="361" y="441"/>
      <point x="331" y="354" type="curve"/>
      <point x="326" y="354" type="line"/>
      <point x="314" y="434"/>
      <point x="263" y="485"/>
      <point x="188" y="485" type="curve"/>
      <point x="82" y="485"/>
      <point x="16" y="383"/>
      <point x="16" y="274" type="curve"/>
      <point x="16" y="167"/>
      <point x="80" y="126"/>
    </contour>
    <contour>
      <point x="154" y="188" type="curve"/>
      <point x="112" y="188"/>
      <point x="89" y="217"/>
      <point x="89" y="260" type="curve"/>
      <point x="89" y="278"/>
      <point x="94" y="310"/>
      <point x="96" y="322" type="curve"/>
      <point x="107" y="388"/>
      <point x="142" y="422"/>
      <point x="191" y="422" type="curve"/>
      <point x="249" y="422"/>
      <point x="266" y="375"/>
      <point x="275" y="300" type="curve"/>
      <point x="242" y="227"/>
      <point x="204" y="188"/>
    </contour>
    <contour>
      <point x="422" y="189" type="curve"/>
      <point x="364" y="189"/>
      <point x="347" y="236"/>
      <point x="338" y="312" type="curve"/>
      <point x="371" y="385"/>
      <point x="409" y="423"/>
      <point x="459" y="423" type="curve"/>
      <point x="501" y="423"/>
      <point x="524" y="394"/>
      <point x="524" y="351" type="curve"/>
      <point x="524" y="333"/>
      <point x="519" y="301"/>
      <point x="517" y="289" type="curve"/>
      <point x="506" y="223"/>
      <point x="471" y="189"/>
    </contour>
  </outline>
</glyph>
<glyph name="uni2713" format="1">
  <advance width="600"/>
  <unicode hex="2713"/>
  <outline>
    <contour>
      <point x="122" y="506" type="line"/>
      <point x="46" y="484" type="line"/>
      <point x="228" y="0" type="line"/>
      <point x="314" y="0" type="line"/>
      <point x="594" y="687" type="line"/>
      <point x="523" y="712" type="line"/>
      <point x="359" y="305" type="line"/>
      <point x="276" y="89" type="line"/>
      <point x="271" y="89" type="line"/>
      <point x="196" y="305" type="line"/>
    </contour>
  </outline>
</glyph>
<glyph name="aringacute.alt01" format="1">
  <advance width="600"/>
  <outline>
    <contour>
      <point x="345" y="842" type="line"/>
      <point x="382" y="814" type="line"/>
      <point x="488" y="917" type="line"/>
      <point x="435" y="956" type="line"/>
    </contour>
    <contour>
      <point x="343" y="568" type="curve"/>
      <point x="411" y="568"/>
      <point x="472" y="624"/>
      <point x="472" y="695" type="curve"/>
      <point x="472" y="753"/>
      <point x="430" y="794"/>
      <point x="371" y="794" type="curve"/>
      <point x="303" y="794"/>
      <point x="242" y="738"/>
      <point x="242" y="667" type="curve"/>
      <point x="242" y="609"/>
      <point x="284" y="568"/>
    </contour>
    <contour>
      <point x="347" y="615" type="curve"/>
      <point x="314" y="615"/>
      <point x="297" y="632"/>
      <point x="297" y="659" type="curve"/>
      <point x="297" y="666"/>
      <point x="298" y="676"/>
      <point x="301" y="691" type="curve"/>
      <point x="310" y="732"/>
      <point x="336" y="747"/>
      <point x="367" y="747" type="curve"/>
      <point x="400" y="747"/>
      <point x="417" y="730"/>
      <point x="417" y="703" type="curve"/>
      <point x="417" y="696"/>
      <point x="416" y="686"/>
      <point x="413" y="671" type="curve"/>
      <point x="404" y="630"/>
      <point x="378" y="615"/>
    </contour>
    <contour>
      <point x="219" y="-12" type="curve"/>
      <point x="300" y="-12"/>
      <point x="356" y="32"/>
      <point x="386" y="91" type="curve"/>
      <point x="390" y="91" type="line"/>
      <point x="375" y="0" type="line"/>
      <point x="451" y="0" type="line"/>
      <point x="505" y="324" type="line" smooth="yes"/>
      <point x="508" y="342"/>
      <point x="510" y="361"/>
      <point x="510" y="379" type="curve"/>
      <point x="510" y="463"/>
      <point x="442" y="528"/>
      <point x="329" y="528" type="curve"/>
      <point x="230" y="528"/>
      <point x="161" y="479"/>
      <point x="126" y="428" type="curve"/>
      <point x="176" y="384" type="line"/>
      <point x="211" y="432"/>
      <point x="254" y="461"/>
      <point x="323" y="461" type="curve"/>
      <point x="393" y="461"/>
      <point x="432" y="428"/>
      <point x="432" y="364" type="curve"/>
      <point x="432" y="354"/>
      <point x="431" y="343"/>
      <point x="429" y="331" type="curve"/>
      <point x="423" y="295" type="line"/>
      <point x="308" y="295" type="line" smooth="yes"/>
      <point x="135" y="295"/>
      <point x="61" y="228"/>
      <point x="61" y="120" type="curve"/>
      <point x="61" y="39"/>
      <point x="121" y="-12"/>
    </contour>
    <contour>
      <point x="238" y="55" type="curve"/>
      <point x="177" y="55"/>
      <point x="140" y="78"/>
      <point x="140" y="119" type="curve"/>
      <point x="140" y="129"/>
      <point x="140" y="134"/>
      <point x="143" y="152" type="curve"/>
      <point x="152" y="206"/>
      <point x="201" y="235"/>
      <point x="297" y="235" type="curve"/>
      <point x="413" y="235" type="line"/>
      <point x="400" y="157" type="line" smooth="yes"/>
      <point x="391" y="103"/>
      <point x="323" y="55"/>
    </contour>
  </outline>
</glyph>
<glyph name="four.numr" format="1">
  <advance width="600"/>
  <outline>
    <contour>
      <point x="191" y="427" type="line"/>
      <point x="357" y="427" type="line"/>
      <point x="346" y="363" type="line"/>
      <point x="406" y="363" type="line"/>
      <point x="417" y="427" type="line"/>
      <point x="463" y="427" type="line"/>
      <point x="471" y="475" type="line"/>
      <point x="425" y="475" type="line"/>
      <point x="462" y="698" type="line"/>
      <point x="376" y="698" type="line"/>
      <point x="201" y="486" type="line"/>
    </contour>
    <contour>
      <point x="393" y="646" type="line"/>
      <point x="365" y="475" type="line"/>
      <point x="252" y="475" type="line"/>
      <point x="390" y="646" type="line"/>
    </contour>
  </outline>
</glyph>
<glyph name="hookabovecomb.case" format="1">
  <advance width="0"/>
  <outline>
    <contour>
      <point x="60" y="935" type="curve"/>
      <point x="-42" y="935" type="line"/>
      <point x="-52" y="874" type="line"/>
      <point x="63" y="874" type="line"/>
      <point x="-8" y="774" type="line"/>
      <point x="35" y="747" type="line"/>
      <point x="75" y="789" type="line" smooth="yes"/>
      <point x="108" y="823"/>
      <point x="127" y="853"/>
      <point x="127" y="883" type="curve"/>
      <point x="127" y="913"/>
      <point x="107" y="935"/>
    </contour>
  </outline>
</glyph>
<glyph name="macron.case" format="1">
  <advance width="600"/>
  <outline>
    <contour>
      <point x="548" y="875" type="line"/>
      <point x="271" y="875" type="line"/>
      <point x="260" y="808" type="line"/>
      <point x="537" y="808" type="line"/>
    </contour>
  </outline>
</glyph>
<glyph name="ringacute.case" format="1">
  <advance width="600"/>
  <outline>
    <contour>
      <point x="315" y="1012" type="line"/>
      <point x="352" y="984" type="line"/>
      <point x="458" y="1087" type="line"/>
      <point x="405" y="1126" type="line"/>
    </contour>
    <contour>
      <point x="313" y="738" type="curve"/>
      <point x="381" y="738"/>
      <point x="442" y="794"/>
      <point x="442" y="865" type="curve"/>
      <point x="442" y="923"/>
      <point x="400" y="964"/>
      <point x="341" y="964" type="curve"/>
      <point x="273" y="964"/>
      <point x="212" y="908"/>
      <point x="212" y="837" type="curve"/>
      <point x="212" y="779"/>
      <point x="254" y="738"/>
    </contour>
    <contour>
      <point x="317" y="785" type="curve"/>
      <point x="284" y="785"/>
      <point x="267" y="802"/>
      <point x="267" y="829" type="curve"/>
      <point x="267" y="836"/>
      <point x="268" y="845"/>
      <point x="271" y="861" type="curve"/>
      <point x="279" y="902"/>
      <point x="306" y="917"/>
      <point x="337" y="917" type="curve"/>
      <point x="370" y="917"/>
      <point x="387" y="900"/>
      <point x="387" y="873" type="curve"/>
      <point x="387" y="866"/>
      <point x="386" y="857"/>
      <point x="383" y="841" type="curve"/>
      <point x="375" y="800"/>
      <point x="348" y="785"/>
    </contour>
  </outline>
</glyph>
<glyph name="seven.dnom" format="1">
  <advance width="600"/>
  <outline>
    <contour>
      <point x="238" y="284" type="line"/>
      <point x="364" y="284" type="line"/>
      <point x="191" y="0" type="line"/>
      <point x="254" y="0" type="line"/>
      <point x="426" y="282" type="line"/>
      <point x="435" y="335" type="line"/>
      <point x="192" y="335" type="line"/>
      <point x="173" y="219" type="line"/>
      <point x="227" y="219" type="line"/>
    </contour>
  </outline>
</glyph>
<glyph name="tonos.case" format="1">
  <advance width="600"/>
  <note>
    tonos.case
  </note>
  <outline>
    <contour>
      <point x="20" y="597" type="line"/>
      <point x="72" y="585" type="line"/>
      <point x="157" y="762" type="line"/>
      <point x="83" y="780" type="line"/>
    </contour>
    <contour>
      <point x="357" y="702" type="move" name="_top"/>
    </contour>
  </outline>
</glyph>
<glyph name="uni03020309.ccmp0" format="1">
  <advance width="0"/>
  <outline>
    <contour>
      <point x="207" y="1065" type="curve"/>
      <point x="106" y="1065" type="line"/>
      <point x="95" y="1004" type="line"/>
      <point x="210" y="1004" type="line"/>
      <point x="139" y="904" type="line"/>
      <point x="181" y="877" type="line"/>
      <point x="237" y="940" type="line" smooth="yes"/>
      <point x="260" y="966"/>
      <point x="274" y="990"/>
      <point x="274" y="1014" type="curve"/>
      <point x="274" y="1042"/>
      <point x="254" y="1065"/>
    </contour>
    <contour>
      <point x="175" y="778" type="line"/>
      <point x="88" y="925" type="line"/>
      <point x="-10" y="925" type="line"/>
      <point x="-143" y="784" type="line"/>
      <point x="-104" y="751" type="line"/>
      <point x="33" y="868" type="line"/>
      <point x="129" y="751" type="line"/>
    </contour>
  </outline>
</glyph>
<glyph name="uni03080304" format="1">
  <advance width="0"/>
  <note>
    dieresismacron
  </note>
  <outline>
    <contour>
      <point x="185" y="825" type="line"/>
      <point x="-92" y="825" type="line"/>
      <point x="-103" y="758" type="line"/>
      <point x="174" y="758" type="line"/>
    </contour>
    <contour>
      <point x="-82" y="598" type="curve"/>
      <point x="-42" y="598"/>
      <point x="-30" y="615"/>
      <point x="-23" y="641" type="curve"/>
      <point x="-21" y="648"/>
      <point x="-19" y="659"/>
      <point x="-19" y="666" type="curve"/>
      <point x="-19" y="685"/>
      <point x="-32" y="702"/>
      <point x="-71" y="702" type="curve"/>
      <point x="-111" y="702"/>
      <point x="-123" y="685"/>
      <point x="-130" y="659" type="curve"/>
      <point x="-132" y="652"/>
      <point x="-134" y="641"/>
      <point x="-134" y="634" type="curve"/>
      <point x="-134" y="615"/>
      <point x="-121" y="598"/>
    </contour>
    <contour>
      <point x="112" y="598" type="curve"/>
      <point x="152" y="598"/>
      <point x="164" y="615"/>
      <point x="171" y="641" type="curve"/>
      <point x="173" y="648"/>
      <point x="175" y="659"/>
      <point x="175" y="666" type="curve"/>
      <point x="175" y="685"/>
      <point x="162" y="702"/>
      <point x="123" y="702" type="curve"/>
      <point x="83" y="702"/>
      <point x="71" y="685"/>
      <point x="64" y="659" type="curve"/>
      <point x="62" y="652"/>
      <point x="60" y="641"/>
      <point x="60" y="634" type="curve"/>
      <point x="60" y="615"/>
      <point x="73" y="598"/>
    </contour>
  </outline>
</glyph>
